<?xml version="1.0" encoding="utf-8"?>
<!-- Generator: Adobe Illustrator 19.0.0, SVG Export Plug-In . SVG Version: 6.00 Build 0)  -->
<svg version="1.1" id="Layer_1" xmlns="http://www.w3.org/2000/svg" xmlns:xlink="http://www.w3.org/1999/xlink" x="0px" y="0px"
	 viewBox="0 0 650 650" style="enable-background:new 0 0 650 650;" xml:space="preserve">
<style type="text/css">
	.st0{fill:#F3703D;}
	.st1{fill:#FFFFFF;}
	.st2{fill:#FCD5C8;}
	.st3{fill:#050606;}
	.st4{fill:#FDE000;}
	.st5{fill:#F06F3C;}
	.st6{fill:#F9D2C6;}
</style>
<path id="XMLID_3083_" class="st0" d="M559.5,458.4l-64,90.6c-0.4,0.5-0.8,1-1.2,1.5c-0.2,0.3-0.4,0.5-0.6,0.8
	c-3.8,4.4-8.6,7.8-13.8,9.9c-3.3,1.3-6.9,2.2-10.5,2.4c-3.5,0.3-7.1,0-10.6-0.9c-0.6-0.1-1.3-0.3-1.9-0.5l-5-1.6l-6.5-2.1l-8.1-2.5
	l-4.8-1.5l-1.3-0.4l-43.7-13.7l-10.4-3.2l-6.1-1.9l-1.1-0.3l-19-5.9c-14.4-4.4-24.3-17.7-24.3-32l-0.1-9.2l0-0.5l-0.8-81.3
	l-0.2-19.4c0-15.5,8.8-28.7,23.2-33.1l16.1-5.4l11.9-4l5.1-1.7l42.4-14.3l1.8-0.6l0.4-0.1l12.7-4.3h0l0.4-0.1c0,0,0,0,0,0l5.2-1.8
	l9-3c0.9-0.3,1.7-0.5,2.6-0.7c2-0.5,4.1-0.8,6.1-0.9c2.6-0.2,5.3-0.1,7.8,0.3c1.9,0.3,3.7,0.7,5.5,1.3c0.1,0,0.3,0.1,0.4,0.1
	c6.4,2.2,12.1,6.2,16.3,12l66.3,88.3C567.2,429.7,567.2,446.2,559.5,458.4z"/>
<path id="XMLID_3052_" class="st1" d="M494.3,392.5v158c-0.2,0.3-0.4,0.5-0.6,0.8c-3.8,4.4-8.6,7.8-13.8,9.9
	c-3.3,1.3-6.9,2.2-10.5,2.4c-3.5,0.3-7.1,0-10.6-0.9c-0.6-0.1-1.3-0.3-1.9-0.5l-5-1.6l-6.5-2.1l-8.1-2.5l-4.8-1.5l-1.3-0.4
	l-43.7-13.7l-10.4-3.2l-6.1-1.9l2.2-48.9v-0.1l0.3-7.3l0.7,0l13.7-0.3l8.6-0.2l15.3-0.3l0.1-0.5c0,0,0,0,0,0l8.3-77
	c0-0.1,0-0.2,0-0.2l4.1-38l0.4-3.6c0-0.2,0-0.3,0-0.5l1.2-22.8c0,0,0-0.1,0-0.1l0.4-8.2l0.9-17.2c0,0,0,0,0-0.1l0.1-1.6l0.7-12.8
	l8.1-0.2h0.1l0.6,0l0.9-15.2l4.1-0.1l6.8-30l7.8,0l2.5,8.7c0,0,0,0,0,0l1.3,19.5l4.1,0.7c0,0,0,0,0,0l4.9,0.9l-1,12.9l7.8,2.2
	l0,23.2l0.2,73.2l4.8,0.2c0,0,0,0,0,0L494.3,392.5z"/>
<g id="XMLID_2892_">
	<path id="XMLID_680_" class="st2" d="M432.2,315.1c-0.1-3.2,0-6.4,0.4-9.5c0-0.3,0.1-0.5,0.3-0.7c0.2-0.2,0.5-0.3,0.8-0.3
		c2.9-0.3,5.9-0.3,8.8,0c0.4,0,0.9,0.1,1.2,0.4c0.6,0.5,0.4,1.5,0.2,2.2c-1.4,5-2.9,10.1-4.3,15.1c-0.1,0.3-0.2,0.7-0.5,0.8
		c-0.2,0.1-0.4,0-0.6-0.1c-1.7-0.7-3.5-1.4-5.2-2L432.2,315.1z"/>
</g>
<g id="XMLID_2889_">
	<path id="XMLID_678_" class="st2" d="M448.7,306c-2.1,4.7-3.5,9.8-4.3,14.9c0,0.2,0,0.5,0.2,0.6c0.1,0.1,0.2,0.1,0.3,0.1
		c3.4,0,6.9,0,10.3,0.1c0.9-4.3,1.3-8.8,1.3-13.2c0-0.3,0-0.5-0.2-0.7c-0.1-0.2-0.3-0.2-0.5-0.3c-1.9-0.6-3.9-1.2-5.9-1.6L448.7,306
		z"/>
</g>
<g id="XMLID_2886_">
	<path id="XMLID_676_" class="st2" d="M463.8,308.8c-1.3,4-2,8.3-2,12.6c0,0.6,0.1,1.2,0.6,1.4c0.2,0.1,0.5,0.1,0.8,0
		c1-0.2,2-0.3,2.9-0.5c0.9-0.2,1.8-0.3,2.5-0.9c1-0.8,1.1-2.2,1.2-3.5c0.2-2.8,0.3-5.6,0.2-8.5c0-0.2,0-0.5-0.2-0.7
		c-0.1-0.1-0.3-0.2-0.5-0.2c-0.7-0.1-1.4-0.1-2.1-0.1L463.8,308.8z"/>
</g>
<g id="XMLID_2883_">
	<path id="XMLID_674_" class="st2" d="M431.6,340.3c-0.1-3.2,0-6.4,0.4-9.5c0-0.3,0.1-0.5,0.3-0.7c0.2-0.2,0.5-0.3,0.8-0.3
		c2.9-0.3,5.9-0.3,8.8,0c0.4,0,0.9,0.1,1.2,0.4c0.6,0.5,0.4,1.5,0.2,2.2c-1.4,5-2.9,10.1-4.3,15.1c-0.1,0.3-0.2,0.7-0.5,0.8
		c-0.2,0.1-0.4,0-0.6-0.1c-1.7-0.7-3.5-1.4-5.2-2L431.6,340.3z"/>
</g>
<g id="XMLID_2880_">
	<path id="XMLID_672_" class="st2" d="M448.2,331.2c-2.1,4.7-3.5,9.8-4.3,14.9c0,0.2,0,0.5,0.2,0.6c0.1,0.1,0.2,0.1,0.3,0.1
		c3.4,0,6.9,0,10.3,0.1c0.9-4.3,1.3-8.8,1.3-13.2c0-0.3,0-0.5-0.2-0.7c-0.1-0.2-0.3-0.2-0.5-0.3c-1.9-0.6-3.9-1.2-5.9-1.6
		L448.2,331.2z"/>
</g>
<g id="XMLID_2877_">
	<path id="XMLID_670_" class="st2" d="M463.3,334c-1.3,4-2,8.3-2,12.6c0,0.6,0.1,1.2,0.6,1.4c0.2,0.1,0.5,0.1,0.8,0
		c1-0.2,2-0.3,2.9-0.5c0.9-0.2,1.8-0.3,2.5-0.9c1-0.8,1.1-2.2,1.2-3.5c0.2-2.8,0.3-5.6,0.2-8.5c0-0.2,0-0.5-0.2-0.7
		c-0.1-0.1-0.3-0.2-0.5-0.2c-0.7-0.1-1.4-0.1-2.1-0.1L463.3,334z"/>
</g>
<g id="XMLID_2874_">
	<path id="XMLID_668_" class="st2" d="M431,366.1c-0.1-3.2,0-6.4,0.4-9.5c0-0.3,0.1-0.5,0.3-0.7c0.2-0.2,0.5-0.3,0.8-0.3
		c2.9-0.3,5.9-0.3,8.8,0c0.4,0,0.9,0.1,1.2,0.4c0.6,0.5,0.4,1.5,0.2,2.2c-1.4,5-2.9,10.1-4.3,15.1c-0.1,0.3-0.2,0.7-0.5,0.8
		c-0.2,0.1-0.4,0-0.6-0.1c-1.7-0.7-3.5-1.4-5.2-2L431,366.1z"/>
</g>
<g id="XMLID_2871_">
	<path id="XMLID_666_" class="st2" d="M447.6,357c-2.1,4.7-3.5,9.8-4.3,14.9c0,0.2,0,0.5,0.2,0.6c0.1,0.1,0.2,0.1,0.3,0.1
		c3.4,0,6.9,0,10.3,0.1c0.9-4.3,1.3-8.8,1.3-13.2c0-0.3,0-0.5-0.2-0.7c-0.1-0.2-0.3-0.2-0.5-0.3c-1.9-0.6-3.9-1.2-5.9-1.6L447.6,357
		z"/>
</g>
<g id="XMLID_2868_">
	<path id="XMLID_664_" class="st2" d="M462.7,359.8c-1.3,4-2,8.3-2,12.6c0,0.6,0.1,1.2,0.6,1.4c0.2,0.1,0.5,0.1,0.8,0
		c1-0.2,2-0.3,2.9-0.5c0.9-0.2,1.8-0.3,2.5-0.9c1-0.8,1.1-2.2,1.2-3.5c0.2-2.8,0.3-5.6,0.2-8.5c0-0.2,0-0.5-0.2-0.7
		c-0.1-0.1-0.3-0.2-0.5-0.2c-0.7-0.1-1.4-0.1-2.1-0.1L462.7,359.8z"/>
</g>
<g id="XMLID_2865_">
	<path id="XMLID_662_" class="st2" d="M430.5,392.9c-0.1-3.2,0-6.4,0.4-9.5c0-0.3,0.1-0.5,0.3-0.7c0.2-0.2,0.5-0.3,0.8-0.3
		c2.9-0.3,5.9-0.3,8.8,0c0.4,0,0.9,0.1,1.2,0.4c0.6,0.5,0.4,1.5,0.2,2.2c-1.4,5-2.9,10.1-4.3,15.1c-0.1,0.3-0.2,0.7-0.5,0.8
		c-0.2,0.1-0.4,0-0.6-0.1c-1.7-0.7-3.5-1.4-5.2-2L430.5,392.9z"/>
</g>
<g id="XMLID_2862_">
	<path id="XMLID_660_" class="st2" d="M447,383.8c-2.1,4.7-3.5,9.8-4.3,14.9c0,0.2,0,0.5,0.2,0.6c0.1,0.1,0.2,0.1,0.3,0.1
		c3.4,0,6.9,0,10.3,0.1c0.9-4.3,1.3-8.8,1.3-13.2c0-0.3,0-0.5-0.2-0.7c-0.1-0.2-0.3-0.2-0.5-0.3c-1.9-0.6-3.9-1.2-5.9-1.6L447,383.8
		z"/>
</g>
<g id="XMLID_2859_">
	<path id="XMLID_658_" class="st2" d="M462.1,386.6c-1.3,4-2,8.3-2,12.6c0,0.6,0.1,1.2,0.6,1.4c0.2,0.1,0.5,0.1,0.8,0
		c1-0.2,2-0.3,2.9-0.5c0.9-0.2,1.8-0.3,2.5-0.9c1-0.8,1.1-2.2,1.2-3.5c0.2-2.8,0.3-5.6,0.2-8.5c0-0.2,0-0.5-0.2-0.7
		c-0.1-0.1-0.3-0.2-0.5-0.2c-0.7-0.1-1.4-0.1-2.1-0.1L462.1,386.6z"/>
</g>
<g id="XMLID_2856_">
	<path id="XMLID_656_" class="st2" d="M429.5,421.2c-0.1-3.2,0-6.4,0.4-9.5c0-0.3,0.1-0.5,0.3-0.7c0.2-0.2,0.5-0.3,0.8-0.3
		c2.9-0.3,5.9-0.3,8.8,0c0.4,0,0.9,0.1,1.2,0.4c0.6,0.5,0.4,1.5,0.2,2.2c-1.4,5-2.9,10.1-4.3,15.1c-0.1,0.3-0.2,0.7-0.5,0.8
		c-0.2,0.1-0.4,0-0.6-0.1c-1.7-0.7-3.5-1.4-5.2-2L429.5,421.2z"/>
</g>
<g id="XMLID_2853_">
	<path id="XMLID_654_" class="st2" d="M446.1,412.1c-2.1,4.7-3.5,9.8-4.3,14.9c0,0.2,0,0.5,0.2,0.6c0.1,0.1,0.2,0.1,0.3,0.1
		c3.4,0,6.9,0,10.3,0.1c0.9-4.3,1.3-8.8,1.3-13.2c0-0.3,0-0.5-0.2-0.7c-0.1-0.2-0.3-0.2-0.5-0.3c-1.9-0.6-3.9-1.2-5.9-1.6
		L446.1,412.1z"/>
</g>
<g id="XMLID_2850_">
	<path id="XMLID_652_" class="st2" d="M461.2,414.9c-1.3,4-2,8.3-2,12.6c0,0.6,0.1,1.2,0.6,1.4c0.2,0.1,0.5,0.1,0.8,0
		c1-0.2,2-0.3,2.9-0.5c0.9-0.2,1.8-0.3,2.5-0.9c1-0.8,1.1-2.2,1.2-3.5c0.2-2.8,0.3-5.6,0.2-8.5c0-0.2,0-0.5-0.2-0.7
		c-0.1-0.1-0.3-0.2-0.5-0.2c-0.7-0.1-1.4-0.1-2.1-0.1L461.2,414.9z"/>
</g>
<g id="XMLID_2847_">
	<path id="XMLID_650_" class="st2" d="M427.4,448.8c-0.1-3.2,0-6.4,0.4-9.5c0-0.3,0.1-0.5,0.3-0.7c0.2-0.2,0.5-0.3,0.8-0.3
		c2.9-0.3,5.9-0.3,8.8,0c0.4,0,0.9,0.1,1.2,0.4c0.6,0.5,0.4,1.5,0.2,2.2c-1.4,5-2.9,10.1-4.3,15.1c-0.1,0.3-0.2,0.7-0.5,0.8
		c-0.2,0.1-0.4,0-0.6-0.1c-1.7-0.7-3.5-1.4-5.2-2L427.4,448.8z"/>
</g>
<g id="XMLID_2844_">
	<path id="XMLID_648_" class="st2" d="M472.8,450.8c-0.1-3.2,0-6.4,0.4-9.5c0-0.3,0.1-0.5,0.3-0.7c0.2-0.2,0.5-0.3,0.8-0.3
		c2.9-0.3,5.9-0.3,8.8,0c0.4,0,0.9,0.1,1.2,0.4c0.6,0.5,0.4,1.5,0.2,2.2c-1.4,5-2.9,10.1-4.3,15.1c-0.1,0.3-0.2,0.7-0.5,0.8
		c-0.2,0.1-0.4,0-0.6-0.1c-1.7-0.7-3.5-1.4-5.2-2L472.8,450.8z"/>
</g>
<g id="XMLID_2841_">
	<path id="XMLID_646_" class="st2" d="M444,439.7c-2.1,4.7-3.5,9.8-4.3,14.9c0,0.2,0,0.5,0.2,0.6c0.1,0.1,0.2,0.1,0.3,0.1
		c3.4,0,6.9,0,10.3,0.1c0.9-4.3,1.3-8.8,1.3-13.2c0-0.3,0-0.5-0.2-0.7c-0.1-0.2-0.3-0.2-0.5-0.3c-1.9-0.6-3.9-1.2-5.9-1.6L444,439.7
		z"/>
</g>
<g id="XMLID_2838_">
	<path id="XMLID_644_" class="st2" d="M459.1,442.5c-1.3,4-2,8.3-2,12.6c0,0.6,0.1,1.2,0.6,1.4c0.2,0.1,0.5,0.1,0.8,0
		c1-0.2,2-0.3,2.9-0.5c0.9-0.2,1.8-0.3,2.5-0.9c1-0.8,1.1-2.2,1.2-3.5c0.2-2.8,0.3-5.6,0.2-8.5c0-0.2,0-0.5-0.2-0.7
		c-0.1-0.1-0.3-0.2-0.5-0.2c-0.7-0.1-1.4-0.1-2.1-0.1L459.1,442.5z"/>
</g>
<g id="XMLID_2835_">
	<path id="XMLID_642_" class="st2" d="M424.9,477.9c-0.1-3.2,0-6.4,0.4-9.5c0-0.3,0.1-0.5,0.3-0.7c0.2-0.2,0.5-0.3,0.8-0.3
		c2.9-0.3,5.9-0.3,8.8,0c0.4,0,0.9,0.1,1.2,0.4c0.6,0.5,0.4,1.5,0.2,2.2c-1.4,5-2.9,10.1-4.3,15.1c-0.1,0.3-0.2,0.7-0.5,0.8
		c-0.2,0.1-0.4,0-0.6-0.1c-1.7-0.7-3.5-1.4-5.2-2L424.9,477.9z"/>
</g>
<g id="XMLID_2832_">
	<path id="XMLID_640_" class="st2" d="M441.5,468.8c-2.1,4.7-3.5,9.8-4.3,14.9c0,0.2,0,0.5,0.2,0.6c0.1,0.1,0.2,0.1,0.3,0.1
		c3.4,0,6.9,0,10.3,0.1c0.9-4.3,1.3-8.8,1.3-13.2c0-0.3,0-0.5-0.2-0.7c-0.1-0.2-0.3-0.2-0.5-0.3c-1.9-0.6-3.9-1.2-5.9-1.6
		L441.5,468.8z"/>
</g>
<g id="XMLID_2829_">
	<path id="XMLID_638_" class="st2" d="M456.6,471.6c-1.3,4-2,8.3-2,12.6c0,0.6,0.1,1.2,0.6,1.4c0.2,0.1,0.5,0.1,0.8,0
		c1-0.2,2-0.3,2.9-0.5c0.9-0.2,1.8-0.3,2.5-0.9c1-0.8,1.1-2.2,1.2-3.5c0.2-2.8,0.3-5.6,0.2-8.5c0-0.2,0-0.5-0.2-0.7
		c-0.1-0.1-0.3-0.2-0.5-0.2c-0.7-0.1-1.4-0.1-2.1-0.1L456.6,471.6z"/>
</g>
<g id="XMLID_2826_">
	<path id="XMLID_636_" class="st2" d="M473.8,469.6c-1.3,4-2,8.3-2,12.6c0,0.6,0.1,1.2,0.6,1.4c0.2,0.1,0.5,0.1,0.8,0
		c1-0.2,2-0.3,2.9-0.5c0.9-0.2,1.8-0.3,2.5-0.9c1-0.8,1.1-2.2,1.2-3.5c0.2-2.8,0.3-5.6,0.2-8.5c0-0.2,0-0.5-0.2-0.7
		c-0.1-0.1-0.3-0.2-0.5-0.2c-0.7-0.1-1.4-0.1-2.1-0.1L473.8,469.6z"/>
</g>
<g id="XMLID_2823_">
	<path id="XMLID_634_" class="st2" d="M424.9,507.1c-0.1-3.2,0-6.4,0.4-9.5c0-0.3,0.1-0.5,0.3-0.7c0.2-0.2,0.5-0.3,0.8-0.3
		c2.9-0.3,5.9-0.3,8.8,0c0.4,0,0.9,0.1,1.2,0.4c0.6,0.5,0.4,1.5,0.2,2.2c-1.4,5-2.9,10.1-4.3,15.1c-0.1,0.3-0.2,0.7-0.5,0.8
		c-0.2,0.1-0.4,0-0.6-0.1c-1.7-0.7-3.5-1.4-5.2-2L424.9,507.1z"/>
</g>
<g id="XMLID_2820_">
	<path id="XMLID_632_" class="st2" d="M405.8,507.1c-0.1-3.2,0-6.4,0.4-9.5c0-0.3,0.1-0.5,0.3-0.7c0.2-0.2,0.5-0.3,0.8-0.3
		c2.9-0.3,5.9-0.3,8.8,0c0.4,0,0.9,0.1,1.2,0.4c0.6,0.5,0.4,1.5,0.2,2.2c-1.4,5-2.9,10.1-4.3,15.1c-0.1,0.3-0.2,0.7-0.5,0.8
		c-0.2,0.1-0.4,0-0.6-0.1c-1.7-0.7-3.5-1.4-5.2-2L405.8,507.1z"/>
</g>
<g id="XMLID_2817_">
	<path id="XMLID_630_" class="st2" d="M441.5,498c-2.1,4.7-3.5,9.8-4.3,14.9c0,0.2,0,0.5,0.2,0.6c0.1,0.1,0.2,0.1,0.3,0.1
		c3.4,0,6.9,0,10.3,0.1c0.9-4.3,1.3-8.8,1.3-13.2c0-0.3,0-0.5-0.2-0.7c-0.1-0.2-0.3-0.2-0.5-0.3c-1.9-0.6-3.9-1.2-5.9-1.6L441.5,498
		z"/>
</g>
<g id="XMLID_2814_">
	<path id="XMLID_628_" class="st2" d="M476.9,414.1c-2.1,4.7-3.5,9.8-4.3,14.9c0,0.2,0,0.5,0.2,0.6c0.1,0.1,0.2,0.1,0.3,0.1
		c3.4,0,6.9,0,10.3,0.1c0.9-4.3,1.3-8.8,1.3-13.2c0-0.3,0-0.5-0.2-0.7c-0.1-0.2-0.3-0.2-0.5-0.3c-1.9-0.6-3.9-1.2-5.9-1.6
		L476.9,414.1z"/>
</g>
<g id="XMLID_2811_">
	<path id="XMLID_626_" class="st2" d="M380.5,496.6c-2.1,4.7-3.5,9.8-4.3,14.9c0,0.2,0,0.5,0.2,0.6c0.1,0.1,0.2,0.1,0.3,0.1
		c3.4,0,6.9,0,10.3,0.1c0.9-4.3,1.3-8.8,1.3-13.2c0-0.3,0-0.5-0.2-0.7c-0.1-0.2-0.3-0.2-0.5-0.3c-1.9-0.6-3.9-1.2-5.9-1.6
		L380.5,496.6z"/>
</g>
<g id="XMLID_2808_">
	<path id="XMLID_624_" class="st2" d="M456.6,500.8c-1.3,4-2,8.3-2,12.6c0,0.6,0.1,1.2,0.6,1.4c0.2,0.1,0.5,0.1,0.8,0
		c1-0.2,2-0.3,2.9-0.5c0.9-0.2,1.8-0.3,2.5-0.9c1-0.8,1.1-2.2,1.2-3.5c0.2-2.8,0.3-5.6,0.2-8.5c0-0.2,0-0.5-0.2-0.7
		c-0.1-0.1-0.3-0.2-0.5-0.2c-0.7-0.1-1.4-0.1-2.1-0.1L456.6,500.8z"/>
</g>
<g id="XMLID_2805_">
	<path id="XMLID_622_" class="st2" d="M473.2,500.8c-1.3,4-2,8.3-2,12.6c0,0.6,0.1,1.2,0.6,1.4c0.2,0.1,0.5,0.1,0.8,0
		c1-0.2,2-0.3,2.9-0.5c0.9-0.2,1.8-0.3,2.5-0.9c1-0.8,1.1-2.2,1.2-3.5c0.2-2.8,0.3-5.6,0.2-8.5c0-0.2,0-0.5-0.2-0.7
		c-0.1-0.1-0.3-0.2-0.5-0.2c-0.7-0.1-1.4-0.1-2.1-0.1L473.2,500.8z"/>
</g>
<g id="XMLID_2802_">
	<path id="XMLID_620_" class="st2" d="M394.9,498.8c-1.3,4-2,8.3-2,12.6c0,0.6,0.1,1.2,0.6,1.4c0.2,0.1,0.5,0.1,0.8,0
		c1-0.2,2-0.3,2.9-0.5c0.9-0.2,1.8-0.3,2.5-0.9c1-0.8,1.1-2.2,1.2-3.5c0.2-2.8,0.3-5.6,0.2-8.5c0-0.2,0-0.5-0.2-0.7
		c-0.1-0.1-0.3-0.2-0.5-0.2c-0.7-0.1-1.4-0.1-2.1-0.1L394.9,498.8z"/>
</g>
<g id="XMLID_2799_">
	<path id="XMLID_618_" class="st2" d="M405.8,536.3c-0.1-3.2,0-6.4,0.4-9.5c0-0.3,0.1-0.5,0.3-0.7c0.2-0.2,0.5-0.3,0.8-0.3
		c2.9-0.3,5.9-0.3,8.8,0c0.4,0,0.9,0.1,1.2,0.4c0.6,0.5,0.4,1.5,0.2,2.2c-1.4,5-2.9,10.1-4.3,15.1c-0.1,0.3-0.2,0.7-0.5,0.8
		c-0.2,0.1-0.4,0-0.6-0.1c-1.7-0.7-3.5-1.4-5.2-2L405.8,536.3z"/>
</g>
<g id="XMLID_2337_">
	<path id="XMLID_616_" class="st2" d="M388.5,528.3c0,4.1-0.4,8.2-1.1,12.2l-10.4-3.2c0.8-3.9,2-7.8,3.7-11.4l1.3-0.2
		c2,0.4,4,1,5.9,1.6c0.2,0.1,0.4,0.1,0.5,0.3C388.5,527.7,388.5,528,388.5,528.3z"/>
</g>
<g id="XMLID_2793_">
	<path id="XMLID_604_" class="st2" d="M395,528.1c-1.3,4-2,8.3-2,12.6c0,0.6,0.1,1.2,0.6,1.4c0.2,0.1,0.5,0.1,0.8,0
		c1-0.2,2-0.3,2.9-0.5c0.9-0.2,1.8-0.3,2.5-0.9c1-0.8,1.1-2.2,1.2-3.5c0.2-2.8,0.3-5.6,0.2-8.5c0-0.2,0-0.5-0.2-0.7
		c-0.1-0.1-0.3-0.2-0.5-0.2c-0.7-0.1-1.4-0.1-2.1-0.1L395,528.1z"/>
</g>
<g id="XMLID_2781_">
	<path id="XMLID_600_" class="st2" d="M422.8,536.3c-0.1-3.2,0-6.4,0.4-9.5c0-0.3,0.1-0.5,0.3-0.7c0.2-0.2,0.5-0.3,0.8-0.3
		c2.9-0.3,5.9-0.3,8.8,0c0.4,0,0.9,0.1,1.2,0.4c0.6,0.5,0.4,1.5,0.2,2.2c-1.4,5-2.9,10.1-4.3,15.1c-0.1,0.3-0.2,0.7-0.5,0.8
		c-0.2,0.1-0.4,0-0.6-0.1c-1.7-0.7-3.5-1.4-5.2-2L422.8,536.3z"/>
</g>
<g id="XMLID_2778_">
	<path id="XMLID_596_" class="st2" d="M469.3,536.3c-0.1-3.2,0-6.4,0.4-9.5c0-0.3,0.1-0.5,0.3-0.7c0.2-0.2,0.5-0.3,0.8-0.3
		c2.9-0.3,5.9-0.3,8.8,0c0.4,0,0.9,0.1,1.2,0.4c0.6,0.5,0.4,1.5,0.2,2.2c-1.4,5-2.9,10.1-4.3,15.1c-0.1,0.3-0.2,0.7-0.5,0.8
		c-0.2,0.1-0.4,0-0.6-0.1c-1.7-0.7-3.5-1.4-5.2-2L469.3,536.3z"/>
</g>
<g id="XMLID_2775_">
	<path id="XMLID_592_" class="st2" d="M439.4,527.2c-2.1,4.7-3.5,9.8-4.3,14.9c0,0.2,0,0.5,0.2,0.6c0.1,0.1,0.2,0.1,0.3,0.1
		c3.4,0,6.9,0,10.3,0.1c0.9-4.3,1.3-8.8,1.3-13.2c0-0.3,0-0.5-0.2-0.7c-0.1-0.2-0.3-0.2-0.5-0.3c-1.9-0.6-3.9-1.2-5.9-1.6
		L439.4,527.2z"/>
</g>
<g id="XMLID_2772_">
	<path id="XMLID_590_" class="st2" d="M454.5,530c-1.3,4-2,8.3-2,12.6c0,0.6,0.1,1.2,0.6,1.4c0.2,0.1,0.5,0.1,0.8,0
		c1-0.2,2-0.3,2.9-0.5c0.9-0.2,1.8-0.3,2.5-0.9c1-0.8,1.1-2.2,1.2-3.5c0.2-2.8,0.3-5.6,0.2-8.5c0-0.2,0-0.5-0.2-0.7
		c-0.1-0.1-0.3-0.2-0.5-0.2c-0.7-0.1-1.4-0.1-2.1-0.1L454.5,530z"/>
</g>
<g id="XMLID_2893_">
	<path id="XMLID_587_" class="st2" d="M432.3,554.5l-1.3-0.4h0.1C431.5,554.2,432,554.3,432.3,554.5
		C432.3,554.5,432.3,554.5,432.3,554.5z"/>
</g>
<g id="XMLID_2762_">
	<path id="XMLID_586_" class="st2" d="M481.1,556.7c-0.4,1.5-0.8,3-1.3,4.4c-3.3,1.3-6.9,2.2-10.5,2.4c0-2.8,0.1-5.7,0.5-8.5
		c0-0.3,0.1-0.5,0.3-0.7c0.2-0.2,0.5-0.3,0.8-0.3c2.9-0.3,5.9-0.3,8.8,0c0.4,0,0.9,0.1,1.2,0.4C481.4,555,481.3,556,481.1,556.7z"/>
</g>
<g id="XMLID_2761_">
	<path id="XMLID_584_" class="st2" d="M445.3,558c0,0.2,0,0.4,0,0.6l-8.1-2.5c0.1-0.2,0.1-0.3,0.2-0.5l1.3-0.2c2,0.4,4,1,5.9,1.6
		c0.2,0.1,0.4,0.1,0.5,0.3C445.2,557.5,445.3,557.7,445.3,558z"/>
</g>
<g id="XMLID_2102_">
	<path id="XMLID_582_" class="st2" d="M458.7,562.7c-0.6-0.1-1.3-0.3-1.9-0.5l-5-1.6c0.2-0.8,0.4-1.5,0.7-2.3l3.4-0.2
		c0.7,0,1.4,0,2.1,0c0.2,0,0.4,0,0.5,0.2c0.2,0.2,0.2,0.4,0.2,0.7C458.7,560.2,458.7,561.5,458.7,562.7z"/>
</g>
<g id="XMLID_3694_">
	<g id="XMLID_609_">
		<path id="XMLID_613_" class="st3" d="M430.7,125.1c3.9,7.7,5.9,16.4,7.8,24.7c2.5,11.1,4.5,22.3,6.1,33.6c3.1,21,5.7,42.5,6,63.8
			c0,3.2,5,3.2,5,0c-0.3-21.7-3-43.6-6.2-65.1c-1.7-11.6-3.7-23.3-6.4-34.7c-2-8.4-4.1-17.1-8-24.8
			C433.5,119.7,429.2,122.2,430.7,125.1L430.7,125.1z"/>
	</g>
</g>
<path id="XMLID_2745_" class="st1" d="M328.9,241.9l-2,8.9c-0.1,0.5-0.5,0.9-1,1c-1.2,0.2-3.1,0.6-1.9,0.7
	c1.6,0.2,20.6-9.3,21.4-9.7c0,0,0,0,0.1,0l19.3-8.4c0.2-0.1,0.4-0.2,0.5-0.4l12.9-18.3c0.1-0.1,0.2-0.2,0.3-0.3l5.5-3.8
	c0.2-0.2,0.4-0.4,0.5-0.7l7.4-23.1c0.1-0.2,0.2-0.4,0.4-0.6l29.7-27.4c0.3-0.3,0.6-0.4,1-0.3l3.8,0.4c0.2,0,0.4,0.1,0.5,0.2l1.8,1.1
	c0.1,0.1,0.3,0.2,0.4,0.4l1.6,2.3c0.2,0.3,0.3,0.8,0.2,1.2l-7.4,21.8c0,0.1,0,0.1-0.1,0.2l-2,13.1c0,0.1-0.1,0.3-0.1,0.4l-9.3,17.2
	c-0.1,0.1-0.1,0.2-0.2,0.3l-14.6,14.3c-0.2,0.2-0.3,0.4-0.4,0.6l-4.6,20.7c0,0.2-0.1,0.3-0.2,0.5l-20.7,27.8c-0.2,0.3-0.3,0.7-0.2,1
	l2.8,14.3c0,0,0,0.1,0,0.1l1,11.2c0,0.1,0,0.2,0.1,0.3l3.3,9.4c0.1,0.3,0.3,0.5,0.6,0.7l0,0c0.5,0.3,1,0.2,1.4-0.1l9.6-8.1
	c0.1-0.1,0.2-0.1,0.3-0.2l6.2-2.8c0.1,0,0.1-0.1,0.2-0.1l7.3-4.7c0.2-0.1,0.5-0.2,0.8-0.2l2.3,0.1c0.1,0,0.2,0,0.2,0l13.8,3.5
	c0.1,0,0.2,0,0.3,0h0.9c0.7,0,1.3,0.6,1.3,1.3l0.2,53.5c0,0.8-0.7,1.4-1.5,1.3l-13.1-2.2c-0.2,0-0.5,0-0.7,0.1l-5.3,2.2
	c-0.2,0.1-0.5,0.3-0.6,0.5l-3.6,5.6c0,0-0.1,0.1-0.1,0.1l-5.6,6.9c0,0,0,0-0.1,0.1l-7.5,8.1c0,0.1-0.1,0.1-0.2,0.1l-11,8.6
	c-0.2,0.1-0.3,0.3-0.4,0.5l-7.8,19.5c-0.1,0.2-0.2,0.3-0.3,0.5l-10,9.5l-4.3,3.7c-0.2,0.1-0.3,0.3-0.4,0.6l-0.9,2.7
	c0,0.1-0.1,0.1-0.1,0.2l-1.6,3c-0.1,0.1-0.1,0.2-0.1,0.4l-4.6,22.8c-0.2,1,0.7,1.8,1.6,1.5l11.9-3.6c0.2,0,0.3-0.1,0.5-0.1l8,0.7
	c0.2,0,0.4,0.1,0.6,0.2l6.5,4.4c0.5,0.3,1,0.3,1.5,0l8.3-6.1l3-2.3c0.2-0.1,0.4-0.2,0.6-0.3l2.7-0.3c0.4,0,0.7,0.1,1,0.3l3.3,2.9
	c0.3,0.3,0.5,0.8,0.4,1.2l-1.8,8.4c0,0.2,0,0.4,0,0.6l3.1,11c0.2,0.8-0.3,1.6-1.2,1.6l-12.9,0.8c-0.8,0.1-1.5-0.6-1.4-1.4l0.6-4.9
	c0.1-1.1-1.2-1.9-2.1-1.2l-10.8,8.3c-0.2,0.1-0.3,0.2-0.5,0.2l-17.5,3.7c-0.1,0-0.1,0-0.2,0.1l-18,6.9c-0.2,0.1-0.5,0.1-0.7,0.1
	l-9.2-1.8c-0.1,0-0.1,0-0.2,0l-10.6-3.7l-11.6-4.3c-0.3-0.1-0.6-0.3-0.7-0.6l-5.9-12.3c-0.1-0.2-0.1-0.4-0.1-0.6l1.8-30.9
	c0-0.1,0-0.1,0-0.2l4.8-24.6c0-0.1,0-0.2,0-0.2v-8c0-0.1,0-0.1,0-0.2l-2.1-12.7c0-0.2-0.1-0.4-0.2-0.5l-10.1-14.2c0,0,0,0,0-0.1
	l-11.4-18.4c-0.2-0.3-0.4-0.5-0.7-0.5l-16.7-5.5c-0.2-0.1-0.4-0.2-0.5-0.3l-5.3-5.2c-0.2-0.2-0.5-0.4-0.9-0.4l-37.7-0.7
	c-0.1,0-0.3,0-0.4-0.1l-28.1-10.1c-0.1-0.1-0.3-0.1-0.4-0.2l-25.6-22c-0.1-0.1-0.2-0.2-0.3-0.4L147,287.9c-0.1-0.1-0.1-0.3-0.1-0.4
	l-2.5-19c0-0.1,0-0.1,0-0.2v-11.8c0-0.3,0.1-0.6,0.3-0.9l2.3-2.5c0.2-0.2,0.5-0.4,0.8-0.4l4.7-0.6c0.5-0.1,1,0.2,1.3,0.6l6.8,11.5
	c0.1,0.2,0.4,0.4,0.6,0.5l9.3,3.7c0.1,0.1,0.3,0.1,0.4,0.2l7.4,6.8c0.1,0.1,0.2,0.2,0.3,0.4l8.8,17.5c0.1,0.2,0.2,0.3,0.4,0.4
	l6.7,5.2c0.3,0.3,0.8,0.3,1.2,0.2l12-3.5c0.1,0,0.3-0.1,0.5,0l25,1.8l14.6,0.5c0.2,0,0.4,0,0.6-0.1l6.5-2.9c0.1,0,0.2-0.1,0.3-0.2
	l7.2-5.8c0.1-0.1,0.1-0.1,0.2-0.2l5-6.2c0.2-0.2,0.3-0.4,0.3-0.7l1-10.4c0-0.2,0-0.4-0.1-0.6l-6.8-15.3c0-0.1-0.1-0.2-0.1-0.4
	l-1.4-10.7c0-0.1-0.1-0.3-0.1-0.4c-0.5-1-3.1-7.1-0.3-14.4c1.2-3.3,4.2-5.6,7-9c3.4-4.1,4.8-9.3,7.4-12.7
	c6.9-9.1,20.3-12.8,28.6-11.3c22.4,3.9,24.2,15.4,25,35.2c0.1,2.6,1.4,7.2,1.1,10C329,241.8,328.9,241.8,328.9,241.9z"/>
<g id="XMLID_2731_">
	<g id="XMLID_695_">
		<path id="XMLID_699_" d="M375.1,392.7c6.2-3.2,12-7,17.4-11.3c4.9-3.9,8.8-8,9.3-14.4c0.2-2.5-3.7-2.5-4,0
			c-0.6,6.7-6.8,10.8-11.8,14.4c-4.1,3-8.5,5.6-13,7.9C370.9,390.4,372.9,393.9,375.1,392.7L375.1,392.7z"/>
	</g>
</g>
<g id="XMLID_2724_">
	<g id="XMLID_689_">
		<path id="XMLID_693_" d="M355.1,425.2c2.2-3.5,6.2-5.1,8.9-8.1c2.7-3,4.2-7,6-10.6c2.2-4.6,5.9-10.4,6.2-15.5c0.1-2.5-3.8-2.5-4,0
			c-0.3,5.1-4.9,12.1-7.1,16.6c-1.9,3.8-3.6,6.9-7,9.6c-2.4,1.9-4.7,3.5-6.3,6.1C350.3,425.4,353.7,427.4,355.1,425.2L355.1,425.2z"
			/>
	</g>
</g>
<g id="XMLID_2717_">
	<g id="XMLID_615_">
		<path id="XMLID_687_" d="M357.4,482.4c4.9-1.5,9.3-4.2,14.2-5.8c4.7-1.5,7.2-3.1,9.9-7.4c1.3-2.2-2.1-4.2-3.4-2
			c-1.4,2.3-2.8,4-5.5,5c-1.7,0.7-3.5,1.1-5.2,1.8c-3.7,1.5-7.2,3.4-11,4.6C353.9,479.3,355,483.2,357.4,482.4L357.4,482.4z"/>
	</g>
</g>
<path id="XMLID_2716_" class="st1" d="M449.6,141.6c0,8.3-6,9.8-13.3,9.8c-7.3,0-13.3-1.5-13.3-9.8c0-8.3,6-15,13.3-15
	C443.6,126.6,449.6,133.3,449.6,141.6z"/>
<path id="XMLID_2715_" class="st1" d="M423,142.7c0,0,0.1,15.7-2.2,18.1c-2.3,2.4,6.9,3,6.9,3l3.9-0.2c0,0,10.9-15.7,13.2-14.6
	C447.1,150.2,423,142.7,423,142.7z"/>
<path id="XMLID_3669_" class="st4" d="M371.2,325.9c4.9,0.1,11.5,45-3,58.5c-1,0.9-3.7,3.2-7.3,5.6c-4.3,2.9-15.1,10.2-17.7,7.9
	c-3.4-2.9,10.8-18.8,20.8-48.2C369.8,332.9,369.3,325.9,371.2,325.9z"/>
<path id="XMLID_3668_" class="st4" d="M434.7,124c-1.5,1.2,5.8,9.9,3,14.3c-0.9,1.4-2.4,1.8-2.5,1.7c-0.2-0.3,11.1-7.1,9.9-11
	c-0.3-0.9-2.8-2.1-8-4.4C435.4,123.9,435,123.7,434.7,124z"/>
<path id="XMLID_3667_" class="st4" d="M438.7,127.9c-1.5,1.2,5.8,9.9,3,14.3c-0.9,1.4-2.4,1.8-2.5,1.7c-0.2-0.3,11.1-7.1,9.9-11
	c-0.3-0.9-2.8-2.1-8-4.4C439.5,127.8,439,127.7,438.7,127.9z"/>
<path id="XMLID_3666_" class="st4" d="M443.6,132c-1.5,1.2,5.8,9.9,3,14.3c-0.9,1.4-2.4,1.8-2.5,1.7c-0.2-0.3,8.5-6.6,7.3-10.6
	c-0.3-0.9-0.3-2.5-5.4-4.8C444.4,132,443.9,131.8,443.6,132z"/>
<path id="XMLID_3665_" class="st4" d="M381.1,454c0.1,0,0.1,0,0.2,0c1.6,0.3,11.4,2.1,11.9,5.7c0.1,1.1-0.6,2.1-0.8,2
	c-0.4-0.1,0.5-4.7,1.5-9.4L381.1,454z"/>
<path id="XMLID_3664_" class="st4" d="M391.6,463.5c-0.3-0.5-0.4-0.5-0.4-0.5c-0.7,0.2,4.1,11.3,0.4,14.6c-1.7,1.6-4.6,0.7-4.6,0.9
	c0,0.3,8.4,2.5,10.5-0.8c1.6-2.6-1.4-7.1-1.8-7.6L391.6,463.5z"/>
<path id="XMLID_3663_" class="st4" d="M200.7,300.8c0.3,3,25.1-1.8,40.1,7.7c1,0.7,3.2,2.1,6.3,2.5c7.7,0.9,14.2-5.6,16.6-7.9
	c2.7-2.7,6-6,5.1-8.3c-1.1-2.8-8.4-3.6-14-1.5c-5.5,2.1-5.9,5.6-10.5,6.1c-3.5,0.4-3.7-1.5-9.7-2.6c-3.8-0.7-4,0.1-13-0.1
	c-6.2-0.1-6.1-0.5-8.7-0.2C207.2,296.9,200.5,299.2,200.7,300.8z"/>
<path id="XMLID_3662_" class="st4" d="M145.2,262.7c3.4-1.8,17.7,21.2,20.7,26.4c1.3,2.3,2,3.6,2.5,5.3c1.8,6.3-0.9,9.3,1.3,13.6
	c1.3,2.7,2.5,1.8,5.1,5.4c3,4.1,2.5,6.5,4.4,10.2c3.8,7.4,12.2,9.3,11.9,9.9c-0.3,0.6-9.7-1.5-17.8-8.6c-2.4-2.2-1.6-1.9-8.9-9.7
	c-4.9-5.2-6-6.1-8.8-9.5c-5.2-6.4-6.4-9.5-6.9-11.3c-0.9-3.2-0.8-5.6-0.7-7.5C148.2,272.1,143.2,263.7,145.2,262.7z"/>
<path id="XMLID_3661_" class="st4" d="M270.6,242.3c3-3.6-2.4-8.7-0.1-14.4c1-2.5,2.5-2.6,3.8-6.3c0.7-2,0.4-2.5,1.2-4.6
	c0.9-2.3,2-3.9,3.5-5.9c1.6-2.2,2.8-3.8,4.8-5.5c0.6-0.5,1.9-1.5,6.4-3.8c6.1-3.1,8.1-3.4,8.1-3.9c-0.2-1-8.9-2-16.1,2.4
	c-3,1.8-5,4.1-6.7,6.1c-2.1,2.4-1.6,2.4-5.4,7.9c-0.5,0.7-1.2,1.8-1.5,3.3c-0.2,1.2,0.1,1.5-0.1,2.3c-0.5,2-3,2.1-5.2,4
	c-1.8,1.5-2.4,3.4-3.5,7.2c-1,3.4-1,6-1,8.4c0,3.3,0,4.9,0.9,5.8c2,1.8,6.7,0.2,9.4-1.5C269.9,243,270.3,242.7,270.6,242.3z"/>
<path id="XMLID_3660_" class="st4" d="M300,413.2c1.1,0.1,1.9,10.5,1,21.1c-1.1,13.4-4,16.7-1.4,23.8c1.2,3.1,2,3.2,5.8,11.3
	c1.5,3.3,2.4,5.3,4.6,7.6c2,2,4,3.1,6.2,4.2c3,1.6,5.8,2.6,8.8,3.3c8.1,2.2,13.8,1.8,13.7,2.1c0,0.4-10.3,1.8-22.7-0.6
	c-7.1-1.4-11.9-2.3-16.6-6.4c-6-5.2-7.7-12-8.2-13.9c-0.2-0.9-1-4.3-0.2-12.1c0.7-7.7,2.1-11.5,4.5-21.4
	C298.7,418.7,299.2,413.2,300,413.2z"/>
<path id="XMLID_3659_" class="st4" d="M392.5,210.6c1.5-0.1,0.4-6.8,4.3-14.8c2.9-5.9,4.6-4.4,11.8-14.8c4.3-6.2,4.3-7.6,7.5-10.2
	c2.4-2,4.5-3,5.9-5.9c1.3-2.8,1.2-6.3,0.2-6.7c-1-0.4-2.3,2.4-6.4,6.9c-2.5,2.8-2.5,2.4-7.4,7.3c-4.2,4.2-3.6,3.9-9.2,9.8
	c-5.7,6-6.5,6.5-7.7,8.8c-0.4,0.7-2,4.3-2,9.2C389.6,205.1,391.2,210.6,392.5,210.6z"/>
<path id="XMLID_3658_" class="st4" d="M383.5,320.3c1.7,1.7,10.1-9.6,22-9.9c9.7-0.2,15.1,7.2,19.2,4.1c2.6-1.9,3.2-6.9,1.6-8.3
	c-1.1-1-2.7,0.2-5.9,0.6c-6.2,0.8-7.7-2.6-13.5-2.6c-2,0-5.5,1.6-12.5,4.8c-5.3,2.5-7.7,4-9.4,6.7
	C384.8,316,382.6,319.4,383.5,320.3z"/>
<path id="XMLID_3657_" class="st4" d="M312.1,312.4c0,0.4,6.7-0.4,15.2,0.5c4.3,0.5,7.8,1.2,10.1,1.8c0,0,5,1.3,11.9,0.8
	c7.1-0.5,8.2-2.4,8.5-3.2c0.3-0.7,0.6-2-0.1-2.8c-1.3-1.7-5.3,0-11.1,1c-4,0.7-8.4,0.6-17.2,0.6c-3.1,0-6.5-0.1-11.4,0.4
	C315.1,311.7,312.1,312.2,312.1,312.4z"/>
<path id="XMLID_3656_" class="st4" d="M311.6,312.9"/>
<path id="XMLID_3655_" class="st4" d="M326.4,252.7c0.2,0.4,2.3-0.4,3.3-0.7c4.5-1.5,21.4-6.2,31.3-3.8c0.6,0.2,2.2,0.6,3.4-0.2
	c2.1-1.3,2.8-5.5,1.2-7.7c-2-2.9-7.4-2-11.9-1.3c-8.7,1.4-14.8,5.2-22.7,10.1C329.6,250.1,326.1,252.2,326.4,252.7z"/>
<path id="XMLID_3654_" class="st4" d="M307.1,232.8c2.7,1.8,5.9,4.1,7.5,7.4c4.1,8.4-4,20.9-4.7,20.7c-0.3-0.1,1-3.4,1.2-9.9
	c0.2-6.8-1.2-8.5-1.8-9.1c-1.7-1.7-3.3-1.2-4.3-3c-1.3-2.3-0.5-6,0.8-6.4C306.3,232.3,306.8,232.6,307.1,232.8z"/>
<g id="XMLID_2371_">
	<g id="XMLID_602_">
		<path id="XMLID_607_" class="st3" d="M375.8,481c10.6-0.1,21.1-0.3,31.7-0.4c3.2,0,3.2-5,0-5c-10.6,0.1-21.1,0.3-31.7,0.4
			C372.6,476,372.6,481,375.8,481L375.8,481z"/>
	</g>
</g>
<g id="XMLID_929_">
	<g id="XMLID_591_">
		<path id="XMLID_599_" class="st3" d="M371.8,475.8c-3.2,18.7-3.9,38-4.4,56.9c-0.1,3.2,4.9,3.2,5,0c0.5-18.5,1.1-37.3,4.3-55.6
			C377.1,474,372.3,472.7,371.8,475.8L371.8,475.8z"/>
	</g>
</g>
<g id="XMLID_2357_">
	<g id="XMLID_579_">
		<path id="XMLID_588_" class="st3" d="M414.2,479.1c2.4-56.2,18-112.2,13.4-168.7c-0.3-3.2-5.2-3.2-5,0
			c4.6,56.5-11,112.5-13.4,168.7C409.1,482.3,414.1,482.3,414.2,479.1L414.2,479.1z"/>
	</g>
</g>
<g id="XMLID_2350_">
	<g id="XMLID_569_">
		<path id="XMLID_573_" class="st3" d="M456.2,247.7c-2.6,0-5.2,0-7.8,0c-3.2,0-3.2,5,0,5c2.6,0,5.2,0,7.8,0
			C459.4,252.7,459.4,247.7,456.2,247.7L456.2,247.7z"/>
	</g>
</g>
<g id="XMLID_2343_">
	<g id="XMLID_563_">
		<path id="XMLID_567_" class="st3" d="M473,316.9c-0.3,24.8-0.2,49.5,0.5,74.3c0.1,3.2,5,3.2,5,0c-0.7-24.8-0.8-49.5-0.5-74.3
			C478,313.7,473,313.7,473,316.9L473,316.9z"/>
	</g>
</g>
<g id="XMLID_932_">
	<g id="XMLID_551_">
		<path id="XMLID_555_" class="st3" d="M495.3,548.2c-0.7-34.6-2.3-69.1-1-103.7c0.5-15.1,1.2-30.3,2-45.4c0.2-3.2-4.8-3.2-5,0
			c-1.8,36.9-3,73.5-1.9,110.5c0.4,12.9,0.7,25.7,1,38.6C490.4,551.4,495.4,551.4,495.3,548.2L495.3,548.2z"/>
	</g>
</g>
<g id="XMLID_471_">
	<g id="XMLID_557_">
		<path id="XMLID_561_" class="st3" d="M476.4,394.6c5.7-1,12-0.7,17.9-0.8c3.2-0.1,3.2-5,0-5c-6.3,0.1-13-0.1-19.2,1
			C471.9,390.4,473.3,395.1,476.4,394.6L476.4,394.6z"/>
	</g>
</g>
<g id="XMLID_2322_">
	<g id="XMLID_545_">
		<path id="XMLID_549_" class="st3" d="M428.6,306.6c0.3-2.9,0.7-5.8,1-8.7c0.2-1.3-1.3-2.5-2.5-2.5c-1.5,0-2.3,1.2-2.5,2.5
			c-0.4,2.9-0.7,5.8-1,8.7c-0.1,1.3,1.2,2.5,2.5,2.5C427.5,309,428.4,307.9,428.6,306.6L428.6,306.6z"/>
	</g>
</g>
<g id="XMLID_2315_">
	<g id="XMLID_539_">
		<path id="XMLID_543_" class="st3" d="M427.8,298.2c3.3-0.1,6.6-0.2,9.9-0.2c3.2,0,3.2-4.9,0-5c-3.3,0-6.6,0-9.9,0.2
			C424.7,293.3,424.7,298.3,427.8,298.2L427.8,298.2z"/>
	</g>
</g>
<g id="XMLID_2308_">
	<g id="XMLID_527_">
		<path id="XMLID_531_" class="st3" d="M439.2,293.9c-0.2-3.7,0-7.3,0.6-11c0.5-3.1-4.2-4.5-4.8-1.3c-0.7,4.1-1,8.2-0.8,12.3
			C434.4,297.1,439.3,297.1,439.2,293.9L439.2,293.9z"/>
	</g>
</g>
<g id="XMLID_2301_">
	<g id="XMLID_533_">
		<path id="XMLID_537_" class="st3" d="M437.5,282.8c1.4-0.1,2.7-0.2,4.1-0.1c1.3,0,2.5-1.2,2.5-2.5c-0.1-1.4-1.1-2.4-2.5-2.5
			c-1.4,0-2.7,0-4.1,0.1c-1.3,0.1-2.5,1.1-2.5,2.5C435.1,281.5,436.1,282.9,437.5,282.8L437.5,282.8z"/>
	</g>
</g>
<g id="XMLID_2294_">
	<g id="XMLID_521_">
		<path id="XMLID_525_" class="st3" d="M444.2,279.9c1.9-8.2,3.5-16.5,4.6-24.9c0.4-3.1-4.3-4.5-4.8-1.3c-1.1,8.4-2.7,16.6-4.6,24.9
			C438.7,281.7,443.4,283,444.2,279.9L444.2,279.9z"/>
	</g>
</g>
<g id="XMLID_2287_">
	<g id="XMLID_515_">
		<path id="XMLID_519_" class="st3" d="M455.5,252.4c1,8.6,1.6,17.3,2,26c0.1,3.2,5.1,3.2,5,0c-0.4-8.7-1-17.4-2-26
			C460.1,249.3,455.2,249.3,455.5,252.4L455.5,252.4z"/>
	</g>
</g>
<g id="XMLID_2280_">
	<g id="XMLID_502_">
		<path id="XMLID_506_" class="st3" d="M468.5,276.7c-2.8-0.1-5.5,0-8.3,0.3c-1.3,0.2-2.5,1-2.5,2.5c0,1.2,1.1,2.6,2.5,2.5
			c2.8-0.3,5.5-0.4,8.3-0.3C471.7,281.8,471.6,276.9,468.5,276.7L468.5,276.7z"/>
	</g>
</g>
<g id="XMLID_2273_">
	<g id="XMLID_508_">
		<path id="XMLID_513_" class="st3" d="M466.5,280.1c0.3,3.7-0.3,7.3-0.5,11c-0.2,3.2,4.8,3.2,5,0c0.2-3.7,0.8-7.3,0.5-11
			C471.2,276.9,466.3,276.9,466.5,280.1L466.5,280.1z"/>
	</g>
</g>
<g id="XMLID_2266_">
	<g id="XMLID_496_">
		<path id="XMLID_500_" class="st3" d="M467.3,295.4c2.5,0.5,5,1,7.5,1.5c3.1,0.6,4.4-4.1,1.3-4.8c-2.5-0.5-5-1-7.5-1.5
			C465.5,289.9,464.2,294.7,467.3,295.4L467.3,295.4z"/>
	</g>
</g>
<g id="XMLID_2259_">
	<g id="XMLID_415_">
		<path id="XMLID_419_" class="st3" d="M473.3,295.2c0.1,7.7,0.1,15.4,0.2,23.2c0,3.2,5,3.2,5,0c-0.1-7.7-0.1-15.4-0.2-23.2
			C478.3,292,473.3,292,473.3,295.2L473.3,295.2z"/>
	</g>
</g>
<g id="XMLID_2252_">
	<g id="XMLID_489_">
		<path id="XMLID_494_" d="M316.8,406.8c14.4,2.8,33.3,2.5,45.5-6.8c2-1.5,0-5-2-3.4c-11.4,8.6-29,9-42.4,6.4
			C315.3,402.5,314.3,406.3,316.8,406.8L316.8,406.8z"/>
	</g>
</g>
<g id="XMLID_2245_">
	<g id="XMLID_483_">
		<path id="XMLID_487_" d="M377,329.3c3,10.8,3.9,21.8,2.9,32.9c-0.2,2.5,3.7,2.5,4,0c1.1-11.5,0.1-22.8-3-33.9
			C380.1,325.8,376.3,326.8,377,329.3L377,329.3z"/>
	</g>
</g>
<g id="XMLID_2238_">
	<g id="XMLID_476_">
		<path id="XMLID_481_" d="M265.1,242.6c-1.8,1-1.6,4.8-1.5,6.5c0.1,2.2,0.6,5.1,2.5,6.5c4.6,3.3,6-8.2,6.4-10.5
			c0.3-1.6-2.1-2.2-2.4-0.7c-0.2,1-1.8,9.5-2.7,9.1c-1.2-0.5-1.3-3.4-1.4-4.4c0-0.7,0-1.5,0.1-2.2c0-0.5,0.1-1,0.2-1.6
			c0.2-0.8,0.2-1,0-0.6C267.7,244,266.5,241.9,265.1,242.6L265.1,242.6z"/>
	</g>
</g>
<g id="XMLID_2231_">
	<g id="XMLID_469_">
		<path id="XMLID_474_" d="M291.7,247.5c-1.1,3-2.4,10.8,2.8,10.8c5,0.1,6.5-7.9,6.2-11.6c-0.1-1.6-2.6-1.6-2.5,0
			c0.1,1.6,0,3.1-0.5,4.7c-0.4,1.2-1.1,3.5-2.4,4.1c-3.5,1.8-1.8-6-1.3-7.3C294.6,246.7,292.2,246.1,291.7,247.5L291.7,247.5z"/>
	</g>
</g>
<g id="XMLID_2224_">
	<g id="XMLID_463_">
		<path id="XMLID_467_" d="M270.9,269.4c2.1,0.2,2.9,1.1,2.4,2.9c0,1,1.4,1.7,2.1,0.9c1.4-1.6,2.6-1.7,3.1,0.5
			c0.2,0.8,1.5,1.3,2.1,0.5c1.8-2.2,3-1.4,3.8,1.2c0.4,1.2,2,1.1,2.4,0c0.2-2.2,1.4-3.1,3.6-2.7c0.7,0.9,1.9,0.8,2.3-0.3
			c0.3-1.9,1.3-3,3.2-3.4c1.5,0.4,2.2-2,0.7-2.4c-3.6-1-5.1,2.2-6.2,5.1c0.8-0.1,1.5-0.2,2.3-0.3c-3.6-4.8-6.6-1-8.1,3.3
			c0.8,0,1.6,0,2.4,0c-1.6-5.3-4.2-6.9-7.9-2.3c0.7,0.2,1.4,0.4,2.1,0.5c-1.4-5.3-3.7-5.6-7.3-1.6c0.7,0.3,1.4,0.6,2.1,0.9
			c0.1-5.2-1.6-9.3-6.6-4.7C268,268.7,269.7,270.5,270.9,269.4L270.9,269.4z"/>
	</g>
</g>
<g id="XMLID_2217_">
	<g id="XMLID_457_">
		<path id="XMLID_461_" d="M271.4,249.1c2.4,2.9,5.9,3.4,9,1.2c-0.6-0.1-1.1-0.3-1.7-0.4c0.7,1.2,1.3,2.7,2.7,3
			c0.8,0.2,0.7-0.1,1.3-0.1c0.9,0,1.6,0,2.5,0.2c1.4,0.4,1.4,0.1,2.8,0.1c1.7,0,2.6,0.8,4.1-0.1c1.4-0.8,0.1-3-1.3-2.1
			c-0.4,0.2-1.8-0.5-2.3-0.5c-1.1-0.1-1.4,0.3-2.4-0.1c-1.1-0.4-1.2-0.8-2.4-0.6c-1.7,0.3-1.9,0.7-2.9-1.1c-0.3-0.5-1.2-0.8-1.7-0.4
			c-1.5,1.1-4.8,0.7-6-0.8C272.1,246.1,270.4,247.8,271.4,249.1L271.4,249.1z"/>
	</g>
</g>
<g id="XMLID_2203_">
	<g id="XMLID_451_">
		<path id="XMLID_455_" d="M289,463.5c1.7,6.1,4.5,12.2,9,16.7c4.8,4.8,11.4,5.5,17.7,7c12.3,2.8,24,4,35.4-2.7
			c2.2-1.3,0.2-4.7-2-3.4c-9.8,5.8-19.9,5.1-30.6,2.7c-5.3-1.2-12.3-1.8-16.6-5.4c-4.7-3.9-7.4-10.3-9-16
			C292.1,460,288.3,461,289,463.5L289,463.5z"/>
	</g>
</g>
<g id="XMLID_942_">
	<g id="XMLID_445_">
		<path id="XMLID_449_" d="M297,398.6c2.6,0,2.6-4,0-4C294.5,394.6,294.5,398.6,297,398.6L297,398.6z"/>
	</g>
</g>
<g id="XMLID_943_">
	<g id="XMLID_439_">
		<path id="XMLID_443_" d="M295,396.6c0.4,6.2,2.1,12.7,1.5,18.9c-0.2,2.5,3.7,2.5,4,0c0.6-6.2-1.2-12.7-1.5-18.9
			C298.9,394.1,294.9,394,295,396.6L295,396.6z"/>
	</g>
</g>
<g id="XMLID_1289_">
	<g id="XMLID_433_">
		<path id="XMLID_437_" d="M294,448.6c0.3-4.6,1.9-9.3,3.1-13.7c1.8-6.5,3-13,3.5-19.7c0.2-2.5-3.8-2.5-4,0
			c-0.5,7.1-2,13.8-3.9,20.6c-1.1,4.2-2.4,8.5-2.7,12.9C289.9,451.1,293.8,451.1,294,448.6L294,448.6z"/>
	</g>
</g>
<g id="XMLID_1291_">
	<g id="XMLID_427_">
		<path id="XMLID_431_" d="M292.3,458.7c0-1.5,0-3,0.2-4.4c0.2-1.1-0.3-2.1-1.4-2.4c-0.9-0.3-2.3,0.3-2.4,1.4
			c-0.3,1.8-0.4,3.6-0.4,5.5C288.3,461.3,292.3,461.3,292.3,458.7L292.3,458.7z"/>
	</g>
</g>
<g id="XMLID_1776_">
	<g id="XMLID_421_">
		<path id="XMLID_425_" d="M351,484.5c1-0.5,2.4-0.7,3.5-1.1c1-0.3,1.9-0.6,2.9-1c2.4-0.9,1.3-4.7-1.1-3.8c-2.4,0.9-5.1,1.3-7.4,2.5
			C346.7,482.2,348.7,485.7,351,484.5L351,484.5z"/>
	</g>
</g>
<g id="XMLID_3444_">
	<g id="XMLID_409_">
		<path id="XMLID_413_" d="M328.3,254.3c10.3-6.1,20.7-11.1,32.2-14.4c2.4-0.7,1.4-4.5-1.1-3.8c-11.8,3.5-22.6,8.6-33.2,14.8
			C324.1,252.2,326.1,255.6,328.3,254.3L328.3,254.3z"/>
	</g>
</g>
<g id="XMLID_3437_">
	<g id="XMLID_403_">
		<path id="XMLID_407_" d="M364.2,237.1c2.6,0,2.6-4,0-4C361.6,233.1,361.6,237.1,364.2,237.1L364.2,237.1z"/>
	</g>
</g>
<g id="XMLID_3430_">
	<g id="XMLID_397_">
		<path id="XMLID_401_" d="M370.1,230.1c2.3-5.2,6.3-9.4,9.6-14.1c1.5-2.1-2-4.1-3.4-2c-3.3,4.6-7.3,8.8-9.6,14.1
			C365.7,230.5,369.1,232.5,370.1,230.1L370.1,230.1z"/>
	</g>
</g>
<g id="XMLID_3423_">
	<g id="XMLID_391_">
		<path id="XMLID_395_" d="M379.5,216.4c1.7-1.2,3.6-2.3,5.4-3.3c2.3-1.2,0.3-4.6-2-3.4c-1.9,1-3.7,2.1-5.4,3.3
			c-0.9,0.6-1.3,1.7-0.7,2.7C377.3,216.5,378.6,217,379.5,216.4L379.5,216.4z"/>
	</g>
</g>
<g id="XMLID_3416_">
	<g id="XMLID_385_">
		<path id="XMLID_389_" d="M385.8,212.1c1.7-7.9,5-15.2,7.6-22.8c0.8-2.4-3-3.5-3.8-1.1c-2.6,7.6-5.9,14.9-7.6,22.8
			C381.4,213.5,385.3,214.6,385.8,212.1L385.8,212.1z"/>
	</g>
</g>
<g id="XMLID_3409_">
	<g id="XMLID_379_">
		<path id="XMLID_383_" d="M392.9,190.2c8.2-8.2,16.2-16.6,24.4-24.8c1.8-1.8-1-4.6-2.8-2.8c-8.2,8.2-16.2,16.6-24.4,24.8
			C388.3,189.2,391.1,192,392.9,190.2L392.9,190.2z"/>
	</g>
</g>
<g id="XMLID_3402_">
	<g id="XMLID_373_">
		<path id="XMLID_377_" d="M419.7,162.7c2.6,0,2.6-4,0-4C417.1,158.8,417.1,162.7,419.7,162.7L419.7,162.7z"/>
	</g>
</g>
<g id="XMLID_3395_">
	<g id="XMLID_367_">
		<path id="XMLID_371_" d="M429.3,164.4c-2.2,8.5-5.6,16.6-9.1,24.7c-1,2.3,2.4,4.3,3.4,2c3.6-8.4,7.2-16.8,9.5-25.7
			C433.7,162.9,429.9,161.9,429.3,164.4L429.3,164.4z"/>
	</g>
</g>
<g id="XMLID_3388_">
	<g id="XMLID_361_">
		<path id="XMLID_365_" d="M419.9,190.1c-0.1,3.6,0.5,7.2,0.6,10.7c0.1,2.5,4,2.6,4,0c-0.1-3.6-0.7-7.2-0.6-10.7
			C423.9,187.6,419.9,187.6,419.9,190.1L419.9,190.1z"/>
	</g>
</g>
<g id="XMLID_3381_">
	<g id="XMLID_355_">
		<path id="XMLID_359_" d="M420.8,199.9c-3.6,7.6-7.9,14.8-12.8,21.6c-1.5,2.1,1.9,4,3.4,2c5-6.8,9.2-14,12.8-21.6
			C425.3,199.6,421.9,197.5,420.8,199.9L420.8,199.9z"/>
	</g>
</g>
<g id="XMLID_3374_">
	<g id="XMLID_349_">
		<path id="XMLID_353_" d="M399.9,232.7c2.5-3.8,7-6.1,10.8-8.5c2.2-1.3,0.2-4.8-2-3.4c-4.4,2.7-9.3,5.5-12.2,9.9
			C395,232.8,398.5,234.8,399.9,232.7L399.9,232.7z"/>
	</g>
</g>
<g id="XMLID_3367_">
	<g id="XMLID_343_">
		<path id="XMLID_347_" d="M396.2,231.1c-0.8,3-2.6,5.7-3.3,8.8c-1.1,4.6-1.9,9.3-2.7,13.9c-0.5,2.5,3.3,3.6,3.8,1.1
			c0.9-4.6,1.6-9.3,2.7-13.9c0.8-3.1,2.5-5.7,3.3-8.8C400.7,229.7,396.9,228.7,396.2,231.1L396.2,231.1z"/>
	</g>
</g>
<g id="XMLID_3360_">
	<g id="XMLID_337_">
		<path id="XMLID_341_" d="M389.6,255.2c-1.8,5.3-7.8,9.9-11.4,14.2c-3.3,3.9-6.6,8-9.3,12.4c-1.3,2.2,2.1,4.2,3.4,2
			c3.2-5.2,7.3-10,11.3-14.6c3.6-4.1,8-7.7,9.8-12.9C394.2,253.8,390.4,252.8,389.6,255.2L389.6,255.2z"/>
	</g>
</g>
<g id="XMLID_3353_">
	<g id="XMLID_331_">
		<path id="XMLID_335_" d="M368.8,282.8c-0.1,3.3,0.9,6.4,1.6,9.6c0.9,3.9,1.5,7.9,1.8,12c0.2,2.5,4.2,2.5,4,0
			c-0.3-3.3-0.7-6.6-1.4-9.9c-0.7-3.8-2.2-7.7-2.1-11.6C372.8,280.2,368.8,280.2,368.8,282.8L368.8,282.8z"/>
	</g>
</g>
<g id="XMLID_3346_">
	<g id="XMLID_325_">
		<path id="XMLID_329_" d="M372.3,304.9c1.9,5.1,3,10.6,5.8,15.3c1.3,2.2,4.7,0.2,3.4-2c-2.6-4.4-3.7-9.6-5.4-14.3
			C375.2,301.5,371.4,302.5,372.3,304.9L372.3,304.9z"/>
	</g>
</g>
<g id="XMLID_3339_">
	<g id="XMLID_319_">
		<path id="XMLID_323_" d="M382.2,320.1c2.6-4.1,6.7-6.6,10.9-8.8c2.2-1.2,0.2-4.7-2-3.4c-4.8,2.6-9.3,5.6-12.3,10.3
			C377.4,320.3,380.9,322.3,382.2,320.1L382.2,320.1z"/>
	</g>
</g>
<g id="XMLID_3332_">
	<g id="XMLID_313_">
		<path id="XMLID_317_" d="M409.1,304.8c5.5,1,10.9,2.7,16.4,3.7c2.5,0.4,3.6-3.4,1.1-3.8c-5.5-1-10.9-2.7-16.4-3.7
			C407.7,300.5,406.6,304.3,409.1,304.8L409.1,304.8z"/>
	</g>
</g>
<g id="XMLID_3325_">
	<g id="XMLID_307_">
		<path id="XMLID_311_" d="M393.1,311.3c2.6-1.7,5.3-3.2,8.2-4.4c2.3-0.9,1.3-4.8-1.1-3.8c-3.3,1.3-6.2,2.9-9.2,4.8
			C389,309.2,390.9,312.7,393.1,311.3L393.1,311.3z"/>
	</g>
</g>
<g id="XMLID_3318_">
	<g id="XMLID_301_">
		<path id="XMLID_305_" d="M408.6,362.2c5.1,0.7,10.2,1.5,15.4,2.2c2.5,0.4,3.6-3.5,1.1-3.8c-5.1-0.7-10.2-1.5-15.4-2.2
			C407.2,358.1,406.1,361.9,408.6,362.2L408.6,362.2z"/>
	</g>
</g>
<g id="XMLID_3311_">
	<g id="XMLID_295_">
		<path id="XMLID_299_" d="M408.7,358.4c-3.7,1.4-6.3,5-9.8,6.9c-2.2,1.2-0.2,4.6,2,3.4c1.6-0.9,3-2.2,4.5-3.3
			c0.9-0.7,1.8-1.4,2.7-2c0.3-0.3,0.7-0.5,1.1-0.7c0.2-0.1,1.1-0.6,0.6-0.4C412.1,361.4,411.1,357.5,408.7,358.4L408.7,358.4z"/>
	</g>
</g>
<g id="XMLID_3304_">
	<g id="XMLID_289_">
		<path id="XMLID_293_" d="M346.1,433.9c-2.6,8.6-4.7,17.3-6.4,26.1c-0.5,2.5,3.4,3.6,3.8,1.1c1.6-8.8,3.7-17.5,6.4-26.1
			C350.6,432.5,346.8,431.4,346.1,433.9L346.1,433.9z"/>
	</g>
</g>
<g id="XMLID_3297_">
	<g id="XMLID_283_">
		<path id="XMLID_287_" d="M343.2,461.9c6.5-2.5,22.6-10.2,27.5-1.9c1.3,2.2,4.7,0.2,3.4-2c-6.4-10.8-23.4-3.3-32,0.1
			C339.8,459,340.9,462.9,343.2,461.9L343.2,461.9z"/>
	</g>
</g>
<g id="XMLID_3290_">
	<g id="XMLID_277_">
		<path id="XMLID_281_" d="M374.8,460.9c2.6-3,8.8-6.1,12.5-7.3c2.5-0.7,6-1,5.4,2.8c-0.3,2-2.1,4-2.7,6c-0.7,2.4,3.1,3.5,3.8,1.1
			c1-3.2,3.7-6.1,2.9-9.7c-0.5-2.6-2.7-4.2-5.3-4.6c-3.2-0.5-6.4,0.8-9.2,2.2c-3.4,1.7-7.8,3.7-10.3,6.6
			C370.3,460,373.1,462.8,374.8,460.9L374.8,460.9z"/>
	</g>
</g>
<g id="XMLID_3283_">
	<g id="XMLID_271_">
		<path id="XMLID_275_" d="M391.5,463.1c0.7,4.4,1.9,8.6,3.6,12.6c1,2.3,4.8,1.3,3.8-1.1c-1.7-4.1-2.9-8.3-3.6-12.6
			C394.9,459.6,391.1,460.6,391.5,463.1L391.5,463.1z"/>
	</g>
</g>
<g id="XMLID_3276_">
	<g id="XMLID_265_">
		<path id="XMLID_269_" d="M377.8,468.3c-0.1,2.2-0.1,4.4,0,6.5c0,1.7-0.1,3.4,0.9,4.9c1.4,2.1,4.8,0.1,3.4-2
			c-0.7-1.1-0.3-3.2-0.4-4.4c0-1.7,0-3.3,0.1-5C381.9,465.8,377.9,465.8,377.8,468.3L377.8,468.3z"/>
	</g>
</g>
<g id="XMLID_3269_">
	<g id="XMLID_259_">
		<path id="XMLID_263_" d="M272.7,355.9c2.8,6.6,6.3,12.8,10.1,18.8c2.8,4.4,5.2,9.2,10.3,11.2c2.4,0.9,3.4-2.9,1.1-3.8
			c-4.9-1.8-8.2-9.6-10.8-13.9c-2.7-4.6-5.2-9.3-7.3-14.3C275.2,351.6,271.7,353.6,272.7,355.9L272.7,355.9z"/>
	</g>
</g>
<g id="XMLID_3262_">
	<g id="XMLID_253_">
		<path id="XMLID_257_" d="M248.6,344.3c4.1,5.6,10,8.9,16.9,9.5c2.5,0.2,2.5-3.7,0-4c-5.4-0.5-10.3-3.2-13.5-7.6
			C250.5,340.3,247.1,342.2,248.6,344.3L248.6,344.3z"/>
	</g>
</g>
<g id="XMLID_3255_">
	<g id="XMLID_247_">
		<path id="XMLID_251_" d="M142.2,256.8c0,4.9,0,9.9,1.2,14.7c1.3,5.4,3.1,10.1,3,15.8c-0.1,2.6,3.9,2.6,4,0
			c0.1-4.7-0.7-8.9-2.1-13.3c-1.8-5.7-2.1-11.2-2.1-17.1C146.2,254.2,142.2,254.2,142.2,256.8L142.2,256.8z"/>
	</g>
</g>
<g id="XMLID_3248_">
	<g id="XMLID_241_">
		<path id="XMLID_245_" d="M146.4,287.3c-0.8,9.7,7.3,19.5,13.6,25.8c1.8,1.8,4.6-1,2.8-2.8c-5.6-5.6-13.2-14.3-12.5-23
			C150.6,284.7,146.6,284.7,146.4,287.3L146.4,287.3z"/>
	</g>
</g>
<g id="XMLID_3241_">
	<g id="XMLID_235_">
		<path id="XMLID_239_" d="M167.7,320.9c4.7,5.3,10.1,9.9,16.1,13.6c2.2,1.3,4.2-2.1,2-3.4c-5.8-3.5-10.9-7.9-15.3-13
			C168.9,316.2,166.1,319,167.7,320.9L167.7,320.9z"/>
	</g>
</g>
<g id="XMLID_3234_">
	<g id="XMLID_229_">
		<path id="XMLID_233_" d="M245.8,345.3c2.6,0,2.6-4,0-4C243.2,341.4,243.2,345.3,245.8,345.3L245.8,345.3z"/>
	</g>
</g>
<g id="XMLID_3227_">
	<g id="XMLID_223_">
		<path id="XMLID_227_" d="M151.5,252.8c3.1,8,6.9,12.3,14.8,15.7c5.2,2.2,9.6,4.5,12.6,9.5c3.1,5.2,3.7,11.3,3.7,17.2
			c0,2.6,4,2.6,4,0c0-9.1-1.8-18.8-9-25.1c-3.1-2.7-6.9-4.1-10.6-5.7c-6.2-2.7-9.2-6.4-11.6-12.7
			C154.4,249.3,150.6,250.4,151.5,252.8L151.5,252.8z"/>
	</g>
</g>
<g id="XMLID_3220_">
	<g id="XMLID_217_">
		<path id="XMLID_221_" d="M184.7,293.7c2.1,1.6,3.9,3.7,6.2,4.9c2.3,1.2,4.3-2.2,2-3.4c-2.3-1.2-4.1-3.3-6.2-4.9
			c-0.8-0.7-2.2-0.1-2.7,0.7C183.4,292,183.8,293.1,184.7,293.7L184.7,293.7z"/>
	</g>
</g>
<g id="XMLID_3213_">
	<g id="XMLID_211_">
		<path id="XMLID_215_" d="M202.5,299.8c5.7-0.7,11.1-1.9,17-1.9c8.7-0.1,17.4,0.6,26,1.9c2.5,0.4,3.6-3.4,1.1-3.8
			c-8.3-1.3-16.7-2-25.1-2.1c-6.5,0-12.5,1.1-18.9,1.9C200,296.2,199.9,300.1,202.5,299.8L202.5,299.8z"/>
	</g>
</g>
<g id="XMLID_3206_">
	<g id="XMLID_187_">
		<path id="XMLID_191_" d="M249.6,297.4c2.7-1.6,5.5-2.9,8.6-3.8c2.4-0.7,4.9-1,7.2-2.1c2.3-1.1,0.3-4.6-2-3.4
			c-2.6,1.3-5.6,1.4-8.3,2.3c-2.6,0.9-5.1,2.1-7.4,3.5C245.4,295.3,247.4,298.7,249.6,297.4L249.6,297.4z"/>
	</g>
</g>
<g id="XMLID_3199_">
	<g id="XMLID_205_">
		<path id="XMLID_209_" d="M263.1,246.3c10.4-3.8,20.9,4.6,31.6,2.4c1.3-0.3,4.2-1.4,5.3-1.1c2.2,0.7,2.3,3.6,2.3,5.3
			c0,3.6-0.9,7.2-2.7,10.4c-2.6,4.7-12.4,15.3-18.3,11.7c-2.2-1.4-4.2,2.1-2,3.4c6.9,4.3,14-2.3,18.8-7c6-5.8,9.1-13.8,7.8-22.1
			c-0.4-2.9-1.2-5-4.3-5.6c-2.1-0.4-4.3,0.4-6.3,0.8c-3,0.7-5.7,0.9-8.9,0.4c-8.2-1.3-16-5.5-24.4-2.4
			C259.7,243.3,260.7,247.2,263.1,246.3L263.1,246.3z"/>
	</g>
</g>
<g id="XMLID_3192_">
	<g id="XMLID_199_">
		<path id="XMLID_203_" d="M258.9,246.1c-0.9,7.1,1.8,13.5,5.3,19.6c3,5.2,5.9,10.5,11.8,12.6c2.4,0.9,3.4-3,1.1-3.8
			c-5.1-1.8-7.8-7.7-10.3-12.2c-2.8-5.1-4.6-10.3-3.9-16.1C263.2,243.6,259.2,243.6,258.9,246.1L258.9,246.1z"/>
	</g>
</g>
<g id="XMLID_3185_">
	<g id="XMLID_193_">
		<path id="XMLID_197_" d="M270.5,282c1-3.1,0.9-6.8,0.6-10c-0.2-2.5-4.2-2.5-4,0c0.2,2.9,0.4,6.2-0.5,9
			C265.9,283.4,269.7,284.5,270.5,282L270.5,282z"/>
	</g>
</g>
<ellipse id="XMLID_3184_" transform="matrix(0.9556 0.2946 -0.2946 0.9556 78.2821 -77.6287)" cx="296.8" cy="221.1" rx="3.1" ry="5.8"/>
<ellipse id="XMLID_3183_" transform="matrix(0.9556 0.2946 -0.2946 0.9556 76.4307 -73.1825)" cx="281.2" cy="217.1" rx="2.6" ry="5"/>
<g id="XMLID_3176_">
	<g id="XMLID_181_">
		<path id="XMLID_185_" d="M282.2,204.5c0.8,2.2,2.8,4,4.5,5.6c1.2,1.1,2.9-0.7,1.8-1.8c-0.7-0.7-1.4-1.4-2.1-2.1
			c-0.6-0.7-1.4-1.5-1.8-2.4C284,202.3,281.6,203,282.2,204.5L282.2,204.5z"/>
	</g>
</g>
<g id="XMLID_3169_">
	<g id="XMLID_175_">
		<path id="XMLID_179_" d="M296,212.8c2.2,0.7,4.9,0.2,7.2-0.1c1.6-0.2,0.9-2.6-0.7-2.4c-1.8,0.3-4.1,0.6-5.9,0.1
			C295.2,210,294.5,212.3,296,212.8L296,212.8z"/>
	</g>
</g>
<g id="XMLID_3162_">
	<g id="XMLID_169_">
		<path id="XMLID_173_" d="M271.8,231.4c2.7,0.5,4,1.8,5.5,3.9c0.6,0.8,0.5,1.1,1.4,1.5c1.2,0.5,3,0.1,4.3-0.1
			c2.8-0.3,5.3-0.9,8,0.3c1.4,0.6,2.7-1.5,1.3-2.1c-1.8-0.8-3.5-1.2-5.5-1.1c-1.9,0.1-4.9,1.3-6.7,0.7c-0.9-0.3-2.2-2.7-3.2-3.5
			c-1.3-1.1-2.8-1.6-4.4-1.9C271,228.7,270.3,231.1,271.8,231.4L271.8,231.4z"/>
	</g>
</g>
<g id="XMLID_3155_">
	<g id="XMLID_163_">
		<path id="XMLID_167_" d="M269.4,227.4c2.8-2.3,8.8-1.4,9.8,2.4c0.4,1.5,2.8,0.9,2.4-0.7c-1.6-5.7-9.7-7-14-3.5
			C266.5,226.7,268.2,228.4,269.4,227.4L269.4,227.4z"/>
	</g>
</g>
<g id="XMLID_3148_">
	<g id="XMLID_157_">
		<path id="XMLID_161_" d="M285.6,231.6c1.2-0.5,3.1-0.3,4.4-0.3c1.7,0,3.7,0.2,4.2,2.2c0.4,1.6,2.8,0.9,2.4-0.7
			c-0.5-2.3-2.5-3.6-4.7-3.9c-2.3-0.3-5.4-0.4-7.5,0.5C282.9,230.1,284.1,232.2,285.6,231.6L285.6,231.6z"/>
	</g>
</g>
<g id="XMLID_3141_">
	<g id="XMLID_151_">
		<path id="XMLID_155_" d="M319.9,218.5c4.8,0,1.4,5.1,0.5,7.1c-0.8,1.9-0.6,3.9-0.4,5.8c0.2,1.6,2.7,1.6,2.5,0
			c-0.3-2.7-0.1-4.3,1.2-6.7c0.8-1.4,1.2-2.8,1-4.4c-0.3-2.6-2.4-4.3-4.9-4.3C318.3,216,318.3,218.5,319.9,218.5L319.9,218.5z"/>
	</g>
</g>
<g id="XMLID_3134_">
	<g id="XMLID_145_">
		<path id="XMLID_149_" d="M319.3,233.7c-0.3,0.8-1.9,2.1-2.8,1.4c-1.2-1-3,0.7-1.8,1.8c2.4,2,6,0.3,6.9-2.5
			C322.2,232.9,319.8,232.2,319.3,233.7L319.3,233.7z"/>
	</g>
</g>
<g id="XMLID_3127_">
	<g id="XMLID_139_">
		<path id="XMLID_143_" d="M262.6,246.6c0-4.4-1.4-8.8-1.2-13.2c0.3-7.6,6-9.6,10.9-14.2c1.9-1.7-0.9-4.5-2.8-2.8
			c-4.7,4.3-10.4,6.5-11.7,13.4c-1,5.7,0.8,11,0.8,16.7C258.6,249.2,262.6,249.2,262.6,246.6L262.6,246.6z"/>
	</g>
</g>
<g id="XMLID_3120_">
	<g id="XMLID_133_">
		<path id="XMLID_137_" d="M268.4,222.1c4.2-8.8,9.2-18.5,19.2-21.1c4.5-1.2,9.2-1.8,13.8-2.2c1.8-0.2,3.6-0.3,5.4-0.3
			c0.4,0,1.8,0.2,2.1,0c2.1-1.8,0.1-2.8,0-1.3c-0.1,2.4,0.3,3.5,2.7,4.6c2.2,1,4.7,0.8,6.8,2.2c2.8,1.8,3.8,5.2,4.6,8.2
			c1.8,6.5,2.8,13.4,3.4,20.1c0.6,7,1.8,15.4-3.6,20.9c-1.8,1.8,1,4.6,2.8,2.8c4.8-5,5.4-11.4,5.1-18.1c-0.3-7.7-1.4-15.3-3-22.8
			c-1.1-4.9-2.4-11.4-6.8-14.5c-1.5-1-7.7-1.4-8.3-2.3c-0.3-0.4,0.6-1.9-0.1-2.7c-1.7-2.4-8.3-1-10.7-0.8c-5.2,0.4-10.4,1-15.4,2.3
			c-11.2,2.9-16.9,13-21.6,22.9C263.9,222.4,267.3,224.4,268.4,222.1L268.4,222.1z"/>
	</g>
</g>
<g id="XMLID_3113_">
	<g id="XMLID_127_">
		<path id="XMLID_131_" d="M311.5,314.2c15.8-4,32.2-0.5,48.1-3.4c2.5-0.4,1.4-4.3-1.1-3.8c-15.9,2.8-32.3-0.7-48.1,3.4
			C308,311,309.1,314.8,311.5,314.2L311.5,314.2z"/>
	</g>
</g>
<g id="XMLID_3106_">
	<g id="XMLID_121_">
		<path id="XMLID_125_" d="M302.9,315.5c-4,2.7-4.9,6.6-6.5,10.9c-2.3,6.4-7.2,12.2-10.9,17.8c-1.4,2.1,2,4.1,3.4,2
			c3-4.7,6.3-9.2,9.1-14c2.4-4.2,2.6-10.5,6.9-13.3C307,317.5,305.1,314.1,302.9,315.5L302.9,315.5z"/>
	</g>
</g>
<g id="XMLID_3099_">
	<g id="XMLID_115_">
		<path id="XMLID_119_" d="M159.7,312.6c2,3.2,4.8,5.7,7.8,8c2,1.6,4.8-1.2,2.8-2.8c-2.7-2.1-5.3-4.3-7.2-7.2
			C161.8,308.5,158.4,310.5,159.7,312.6L159.7,312.6z"/>
	</g>
</g>
<g id="XMLID_3092_">
	<g id="XMLID_109_">
		<path id="XMLID_113_" d="M265,353.7c2.9,1.2,5.9,2.1,8.9,2.7c2.5,0.5,3.6-3.3,1.1-3.8c-3.1-0.6-6-1.6-8.9-2.7
			C263.7,349,262.7,352.8,265,353.7L265,353.7z"/>
	</g>
</g>
<g id="XMLID_3085_">
	<g id="XMLID_103_">
		<path id="XMLID_107_" d="M292.4,385c0.1-0.3,0.1-0.2,0,0.4c0,0.4,0,0.7,0.1,1.1c0.2,1,0.9,1.9,1.2,2.9c0.8,2.3,1.1,4.8,1.4,7.3
			c0.3,2.5,4.2,2.5,4,0c-0.3-2.7-0.5-5.4-1.4-7.9c-0.4-1.1-1.1-2.2-1.3-3.3c-0.2-0.9,0-1.6-0.5-2.4C294.4,380.9,291,382.9,292.4,385
			L292.4,385z"/>
	</g>
</g>
<g id="XMLID_3077_">
	<g id="XMLID_97_">
		<path id="XMLID_101_" d="M435.9,130.2c-3.3-5-8.2-9.7-13.3-12.8c-2.7-1.6-5.2,2.6-2.5,4.3c4.4,2.6,8.7,6.7,11.6,11
			C433.4,135.4,437.7,132.9,435.9,130.2L435.9,130.2z"/>
	</g>
</g>
<g id="XMLID_3070_">
	<g id="XMLID_90_">
		<path id="XMLID_94_" d="M432.8,163.7c2.6,0,2.6-4,0-4C430.3,159.7,430.3,163.7,432.8,163.7L432.8,163.7z"/>
	</g>
</g>
<g id="XMLID_3063_">
	<g id="XMLID_84_">
		<path id="XMLID_88_" d="M426.9,137.9c-0.3-4.5,2.4-7.7,5.6-10.5c1.9-1.7-0.9-4.5-2.8-2.8c-4,3.4-7.2,7.9-6.8,13.3
			C423.2,140.4,427.1,140.4,426.9,137.9L426.9,137.9z"/>
	</g>
</g>
<g id="XMLID_3056_">
	<g id="XMLID_78_">
		<path id="XMLID_82_" d="M435.8,126.9c4.2,0.3,6.8,4,3.8,7.5c-1,1.1-2.1,2-3.3,2.9c-0.5,0.4-1.1,0.7-1.7,1
			c-0.8,0.8-1.3,0.6-1.6-0.6c1.7-1.9-1.1-4.7-2.8-2.8c-2,2.3-2.8,6.7,0.6,8.2c3.3,1.4,7.9-2.4,10.2-4.4c2.7-2.5,5.3-5.8,3.7-9.6
			c-1.5-3.7-5.1-5.8-8.9-6C433.3,122.8,433.3,126.7,435.8,126.9L435.8,126.9z"/>
	</g>
</g>
<g id="XMLID_3048_">
	<g id="XMLID_72_">
		<path id="XMLID_76_" d="M441.5,129.3c2.5,1.1,3.4,4.6,3.1,7c-0.5,3.8-4.8,6.4-8.3,6.8c-2.5,0.3-2.5,4.3,0,4
			c5.1-0.6,11.2-3.9,12.2-9.4c0.7-4-0.8-9.9-5-11.7C441.1,124.8,439.1,128.2,441.5,129.3L441.5,129.3z"/>
	</g>
</g>
<g id="XMLID_3041_">
	<g id="XMLID_66_">
		<path id="XMLID_70_" d="M446.4,134.5c1.4,1.2,2.5,4,2.4,5.8c-0.2,5.8-6,8.1-11.1,6.9c-2.5-0.6-3.5,3.2-1.1,3.8
			c6.1,1.4,13.8-0.8,15.6-7.4c1.1-3.9,0.2-9.2-3.1-11.9C447.3,130.1,444.5,132.9,446.4,134.5L446.4,134.5z"/>
	</g>
</g>
<g id="XMLID_3034_">
	<g id="XMLID_60_">
		<path id="XMLID_64_" d="M423.8,157.4c1.9-4.5,0.4-9.9,1.2-14.7c0.4-2.5-3.4-3.6-3.8-1.1c-0.8,4.7,0.6,10.3-1.2,14.7
			C419,158.7,422.8,159.7,423.8,157.4L423.8,157.4z"/>
	</g>
</g>
<g id="XMLID_3027_">
	<g id="XMLID_48_">
		<path id="XMLID_52_" d="M436.2,159.9c0.5-0.9,1.4-1.6,2.1-2.4c0.9-0.9,1.8-1.7,2.7-2.6c1.8-1.8-1-4.6-2.8-2.8
			c-1.8,1.8-4.2,3.5-5.4,5.8C431.5,160.2,434.9,162.2,436.2,159.9L436.2,159.9z"/>
	</g>
</g>
<g id="XMLID_95_">
	<path id="XMLID_3026_" class="st5" d="M279.6,418.3c-0.1,2.7-1,4.1-2.7,4.9c-4.3,2.7-8.6,5.3-12.9,7.9c-2.2,1.3-4.3,1.1-6.3-0.5
		c-3.9-3.3-8-6.5-11.9-9.9c-1.9-1.5-2.3-3.5-1.4-5.8c1.9-4.7,3.8-9.4,5.6-14.1c1-2.5,2.8-3.7,5.6-3.4c4.8,0.4,9.6,0.6,14.4,0.9
		c3,0.1,5.1,1.5,5.7,4.6C277.1,408.4,278.5,413.7,279.6,418.3z"/>
	<path id="XMLID_923_" class="st5" d="M205.9,129.1c-0.2,2.7-1.1,4-2.8,4.9c-4.4,2.5-8.8,5-13.2,7.4c-2.2,1.2-4.3,1-6.3-0.7
		c-3.8-3.4-7.8-6.7-11.6-10.3c-1.8-1.6-2.2-3.6-1.2-5.9c2-4.6,4.1-9.2,6-13.9c1.1-2.5,2.9-3.6,5.7-3.2c4.8,0.5,9.6,0.9,14.4,1.3
		c3,0.2,5,1.7,5.5,4.7C203.7,119.1,204.9,124.5,205.9,129.1z"/>
	<path id="XMLID_3025_" class="st5" d="M221.2,430.8c-0.1,1.3-0.5,2-1.3,2.5c-2.2,1.3-4.3,2.7-6.5,3.9c-1.1,0.6-2.2,0.6-3.2-0.3
		c-2-1.6-4-3.2-6-4.9c-0.9-0.8-1.1-1.8-0.7-2.9c0.9-2.3,1.9-4.7,2.8-7c0.5-1.3,1.4-1.8,2.8-1.7c2.4,0.2,4.8,0.3,7.2,0.4
		c1.5,0.1,2.5,0.8,2.8,2.3C220,425.8,220.7,428.5,221.2,430.8z"/>
	<path id="XMLID_3024_" class="st5" d="M571.1,309.5c4.2,1.5,5.9,3.6,6.5,6.6c2.1,8.1,4.3,16.2,6.2,24.3c1,4-0.3,7.4-3.9,9.8
		c-7.1,4.6-14.1,9.5-21.5,14.1c-3.3,2.3-6.7,1.9-9.9-0.6c-6.5-5.3-13-10.6-19.6-15.7c-3.5-2.8-4.5-6.2-2.7-10.5
		c2.9-7.5,5.7-15,8.4-22.5c1.7-4.8,4.9-7.3,10-6.8C554.2,308.7,563.3,309.1,571.1,309.5z"/>
	<path id="XMLID_3023_" class="st5" d="M567.7,525.1c3.5,2.7,4.5,5.2,4.2,8.3c-0.5,8.4-1,16.8-1.6,25c-0.3,4.1-2.5,6.9-6.7,8.1
		c-8.2,2.2-16.4,4.7-24.8,6.8c-3.9,1.1-7-0.3-9.2-3.6c-4.6-7-9.1-14.1-13.8-21c-2.5-3.8-2.3-7.3,0.7-10.8c5.1-6.2,10-12.5,14.9-18.8
		c3.1-4,6.9-5.4,11.6-3.4C551.9,519.2,560.5,522.3,567.7,525.1z"/>
	<path id="XMLID_3022_" class="st6" d="M165.3,347.5c-0.1,1.5-1.1,2.4-1.8,3.5c-4.6,6.8-3.3,6-10.8,3.8c-3.9-1.2-3.9-1.3-3.9-5.3
		c0-1.4,0-2.7-0.3-4.1c-0.4-2,0.2-3.6,2.5-4.3c2-0.6,4-1.3,5.8-2.1c1.3-0.5,2.5-0.3,3.3,0.6c1.7,2.1,3.3,4.4,4.9,6.6
		C165.1,346.6,165.2,347.2,165.3,347.5z"/>
	<path id="XMLID_924_" class="st6" d="M163.3,91.7c-0.1,1.5-1.1,2.4-1.8,3.5c-4.6,6.8-3.3,6-10.8,3.8c-3.9-1.2-3.9-1.3-3.9-5.3
		c0-1.4,0-2.7-0.3-4.1c-0.4-2,0.2-3.6,2.5-4.3c2-0.6,4-1.3,5.8-2.1c1.3-0.5,2.5-0.3,3.3,0.6c1.7,2.1,3.3,4.4,4.9,6.6
		C163.1,90.8,163.2,91.4,163.3,91.7z"/>
	<path id="XMLID_3021_" class="st6" d="M566.1,237.9c-0.1,2-1.5,3.2-2.4,4.7c-6.1,9.2-4.4,8.1-14.5,5.1c-5.2-1.6-5.2-1.7-5.2-7.1
		c0-1.9,0-3.6-0.4-5.5c-0.5-2.7,0.3-4.8,3.3-5.7c2.7-0.8,5.3-1.7,7.9-2.8c1.7-0.7,3.3-0.4,4.4,0.8c2.3,2.8,4.4,5.9,6.5,8.9
		C565.8,236.7,566,237.5,566.1,237.9z"/>
	<path id="XMLID_3019_" class="st6" d="M523.4,289.7c-0.1,1.6-1.2,2.6-2,3.8c-5,7.5-3.6,6.7-11.9,4.2c-4.3-1.3-4.3-1.4-4.3-5.8
		c0-1.5,0-3-0.3-4.5c-0.4-2.2,0.2-3.9,2.7-4.7c2.2-0.7,4.4-1.4,6.5-2.3c1.4-0.5,2.7-0.3,3.6,0.7c1.9,2.3,3.6,4.8,5.4,7.3
		C523.1,288.8,523.2,289.4,523.4,289.7z"/>
	<path id="XMLID_3018_" class="st6" d="M640.3,460.4c-0.1,2-1.5,3.2-2.4,4.7c-6.1,9.2-4.4,8.1-14.5,5.1c-5.2-1.6-5.2-1.7-5.2-7.1
		c0-1.9,0-3.6-0.4-5.5c-0.5-2.7,0.3-4.8,3.3-5.7c2.7-0.8,5.3-1.7,7.9-2.8c1.7-0.7,3.3-0.4,4.4,0.8c2.3,2.8,4.4,5.9,6.5,8.9
		C640.1,459.2,640.2,460,640.3,460.4z"/>
</g>
<g id="XMLID_3011_">
	<g id="XMLID_54_">
		<path id="XMLID_58_" d="M266.2,287.6c2.6,0,2.6-4,0-4C263.7,283.6,263.7,287.6,266.2,287.6L266.2,287.6z"/>
	</g>
</g>
<g id="XMLID_3004_">
	<g id="XMLID_42_">
		<path id="XMLID_46_" d="M196.3,300c2.6,0,2.6-4,0-4C193.8,296,193.8,300,196.3,300L196.3,300z"/>
	</g>
</g>
<g id="XMLID_2997_">
	<g id="XMLID_36_">
		<path id="XMLID_40_" d="M212.3,344c9.7,0,19.4,1.3,29.1,1.3c2.6,0,2.6-4,0-4c-9.7,0-19.4-1.3-29.1-1.3
			C209.8,340,209.8,344,212.3,344L212.3,344z"/>
	</g>
</g>
<g id="XMLID_2990_">
	<g id="XMLID_30_">
		<path id="XMLID_34_" d="M196.9,338.7c4.7,2.2,9.9,3.8,14.9,5.2c2.5,0.7,3.5-3.1,1.1-3.8c-4.7-1.3-9.6-2.7-14-4.8
			C196.6,334.2,194.6,337.6,196.9,338.7L196.9,338.7z"/>
	</g>
</g>
<g id="XMLID_2983_">
	<g id="XMLID_24_">
		<path id="XMLID_28_" d="M188.8,335.8c1.3,0.5,2.6,1,4,1.5c1,0.4,2.2-0.4,2.4-1.4c0.3-1.1-0.4-2.1-1.4-2.4c-1.3-0.5-2.6-1-4-1.5
			c-1-0.4-2.2,0.4-2.4,1.4C187.1,334.5,187.8,335.5,188.8,335.8L188.8,335.8z"/>
	</g>
</g>
<g id="XMLID_2976_">
	<g id="XMLID_18_">
		<path id="XMLID_22_" d="M349,427.4c0,0.1-0.1,0.2-0.1,0.3c-0.1,0.2-0.1,0.2,0,0c-0.1,0.2-0.2,0.3-0.3,0.4
			c-0.3,0.4-0.5,0.9-0.6,1.3c-0.3,1,0.3,2.2,1.4,2.4c1.1,0.2,2.1-0.3,2.4-1.4c0-0.1,0.1-0.2,0.1-0.3c-0.1,0.2-0.1,0.2,0,0.1
			c0.1-0.1,0.2-0.3,0.3-0.4c0.2-0.4,0.4-0.9,0.6-1.4c0.3-1-0.4-2.2-1.4-2.4C350.3,425.8,349.3,426.4,349,427.4L349,427.4z"/>
	</g>
</g>
<g id="XMLID_2790_">
	<g id="XMLID_12_">
		<path id="XMLID_16_" d="M404.8,304.7c2.6,0,2.6-4,0-4C402.3,300.8,402.3,304.7,404.8,304.7L404.8,304.7z"/>
	</g>
</g>
<path id="XMLID_922_" class="st0" d="M166.6,154.1l12.5,73c1.6,9.9-3.1,19.8-12,24.5L101.5,286c-8.9,4.7-19.8,3.1-26.6-3.6
	l-52.6-51.6c-7.3-7.3-9.4-17.7-4.7-26.6l32.8-66.2c4.7-8.9,14.1-14.1,24-12.5l73,10.4C156.7,136.9,164.5,144.7,166.6,154.1z"/>
<g id="XMLID_477_">
	<path id="XMLID_490_" class="st1" d="M62,212.3H40.6l-2.6-5.7l21.4-29.1h10v28.6h6.4v6.1h-6.4v8.2H62V212.3z M62,206.1v-21.7
		l-15.9,21.7H62z"/>
	<path id="XMLID_941_" class="st1" d="M84.4,217c-2.7-2.8-4.1-6.8-4.1-12.1v-12.5c0-5,1.4-8.9,4.1-11.6c2.7-2.7,6.6-4.1,11.7-4.1
		c5.1,0,9,1.4,11.7,4.1c2.7,2.7,4.1,6.6,4.1,11.6V205c0,5.2-1.4,9.3-4.1,12.1c-2.7,2.8-6.6,4.2-11.7,4.2
		C91,221.3,87.1,219.9,84.4,217z M101.8,212.5c1.3-1.7,2-4.3,2-7.5v-12.5c0-3.1-0.7-5.4-2-7.1c-1.3-1.6-3.2-2.5-5.7-2.5
		c-2.5,0-4.4,0.8-5.7,2.5c-1.3,1.6-2,4-2,7.1V205c0,3.3,0.7,5.8,2,7.5c1.3,1.7,3.2,2.6,5.7,2.6C98.6,215.1,100.5,214.2,101.8,212.5z
		"/>
	<path id="XMLID_1298_" class="st1" d="M140.4,212.3h-21.4l-2.6-5.7l21.4-29.1h10v28.6h6.4v6.1h-6.4v8.2h-7.4V212.3z M140.4,206.1
		v-21.7l-15.9,21.7H140.4z"/>
</g>
</svg>
