<svg xmlns="http://www.w3.org/2000/svg" xmlns:xlink="http://www.w3.org/1999/xlink" width="172" height="55" viewBox="0 0 172 55">
  <defs>
    <clipPath id="clip-Artboard_1">
      <rect width="172" height="55"/>
    </clipPath>
  </defs>
  <g id="Artboard_1" data-name="Artboard – 1" clip-path="url(#clip-Artboard_1)">
    <rect width="172" height="55" fill="#fff"/>
    <g id="Group_363" data-name="Group 363" transform="translate(-191 -943.996)">
      <g id="Group_358" data-name="Group 358" transform="translate(192 944.946)">
        <path id="Path_2049" data-name="Path 2049" d="M26.14,1.139,1.889,18.742A3.679,3.679,0,0,0,.535,22.928L9.768,51.364a3.854,3.854,0,0,0,3.57,2.585H43.252a3.693,3.693,0,0,0,3.57-2.585l9.233-28.437A3.737,3.737,0,0,0,54.7,18.742L30.449,1.139A3.51,3.51,0,0,0,26.14,1.139Z" transform="translate(-0.348 -0.4)" fill="#7a6a5f"/>
      </g>
      <path id="Path_2049-2" data-name="Path 2049" d="M26.637,36.628,14.573,48.323a1.217,1.217,0,0,1-1.97-1.354L19.989,31.95a1.3,1.3,0,0,0-.492-1.6L4.725,22.471a1.25,1.25,0,0,1,.739-2.339l16.619,2.339a1.22,1.22,0,0,0,1.354-.985l2.831-16.5a1.181,1.181,0,0,1,2.339,0l2.831,16.5a1.22,1.22,0,0,0,1.354.985l16.742-2.339a1.244,1.244,0,0,1,.739,2.339L35.5,30.35a1.112,1.112,0,0,0-.492,1.6l7.386,15.018a1.209,1.209,0,0,1-1.97,1.354L28.36,36.628A1.19,1.19,0,0,0,26.637,36.628Z" transform="translate(192.509 945.372)" fill="#fff"/>
      <g id="Group_359" data-name="Group 359" transform="translate(252.63 958.241)">
        <g id="Group_359-2" data-name="Group 359" transform="translate(104.514 0)">
          <path id="Path_2051" data-name="Path 2051" d="M135.485,15.139a1.437,1.437,0,0,1-.739-.739,1.829,1.829,0,0,1-.246-1.108,2.458,2.458,0,0,1,.246-1.108,2.09,2.09,0,0,1,.739-.739,3.594,3.594,0,0,1,1.108-.246,2.94,2.94,0,0,1,1.108.246,1.437,1.437,0,0,1,.739.739,1.829,1.829,0,0,1,.246,1.108,2.458,2.458,0,0,1-.246,1.108,2.09,2.09,0,0,1-.739.739,3.594,3.594,0,0,1-1.108.246A2.94,2.94,0,0,1,135.485,15.139Zm2.093-.246a1.483,1.483,0,0,0,.616-.616,2.093,2.093,0,0,0,0-1.97,1.483,1.483,0,0,0-.616-.616,2.093,2.093,0,0,0-1.97,0,1.484,1.484,0,0,0-.616.616,2.093,2.093,0,0,0,0,1.97,1.484,1.484,0,0,0,.616.616,2.093,2.093,0,0,0,1.97,0Zm-1.97-.492a1.118,1.118,0,0,1-.369-.862V12.8a1.118,1.118,0,0,1,.369-.862c.246-.246.492-.246.985-.246a1.2,1.2,0,0,1,1.108.492l-.492.492-.246-.246c-.123,0-.246-.123-.369-.123a.435.435,0,0,0-.492.492v.739a.524.524,0,0,0,.862.369c.123,0,.123-.123.246-.246l.492.492a1.7,1.7,0,0,1-.492.369c-.123.123-.369.123-.739.123A1.779,1.779,0,0,1,135.608,14.4Z" transform="translate(-134.5 -11.2)" fill="#7a6a5f"/>
        </g>
        <g id="Group_360" data-name="Group 360" transform="translate(0 0)">
          <path id="Path_2052" data-name="Path 2052" d="M49.6,12.2h6.155a5.543,5.543,0,0,1,4.062,1.231,4.649,4.649,0,0,1,1.354,3.693,4.831,4.831,0,0,1-1.354,3.693,6.144,6.144,0,0,1-4.062,1.231H52.678v5.54H49.6Zm6.155,7.263a2.34,2.34,0,0,0,1.6-.616A2.548,2.548,0,0,0,57.971,17a2.548,2.548,0,0,0-.616-1.847,2.34,2.34,0,0,0-1.6-.616h-3.2v4.924Z" transform="translate(-49.6 -10.969)" fill="#7a6a5f"/>
          <path id="Path_2053" data-name="Path 2053" d="M65.309,24.471a2.907,2.907,0,0,0,1.108-.739L68.14,25.21a5.174,5.174,0,0,1-4.062,1.6,5.378,5.378,0,0,1-3.57-.985A3.745,3.745,0,0,1,59.4,22.748V19.67a2.946,2.946,0,0,1,1.231-2.585,5.34,5.34,0,0,1,3.324-.985,5.1,5.1,0,0,1,3.324.985,3.649,3.649,0,0,1,1.231,2.954,5.073,5.073,0,0,1-.123,1.477,1.261,1.261,0,0,1-.616.739,3.8,3.8,0,0,1-1.354.246H62.354v.246c0,1.231.616,1.847,1.97,1.847A3.059,3.059,0,0,0,65.309,24.471Zm-2.831-5.786a2.187,2.187,0,0,0-.492,1.231v.739h2.462c.369,0,.616,0,.739-.123a.94.94,0,0,0,.246-.616,1.427,1.427,0,0,0-.492-1.231,1.969,1.969,0,0,0-1.354-.492A1.5,1.5,0,0,0,62.478,18.685Z" transform="translate(-47.336 -10.068)" fill="#7a6a5f"/>
          <path id="Path_2054" data-name="Path 2054" d="M76.379,16.985a3.468,3.468,0,0,1,.862,2.585v7.017H74.409V19.939a2.08,2.08,0,0,0-.369-1.231,1.56,1.56,0,0,0-1.108-.492c-.985,0-1.6.616-2.093,1.723v6.648H68.008V19.57a2.319,2.319,0,0,0-.246-.985,2.749,2.749,0,0,0-.862-.862l1.847-1.6a4.3,4.3,0,0,1,1.108.739,3.741,3.741,0,0,1,.616.862A3.912,3.912,0,0,1,71.7,16.492,3.123,3.123,0,0,1,73.671,16,3.265,3.265,0,0,1,76.379,16.985Z" transform="translate(-45.603 -10.091)" fill="#7a6a5f"/>
          <path id="Path_2055" data-name="Path 2055" d="M79.239,19.363v4.185a2.648,2.648,0,0,0,.246,1.231,1.212,1.212,0,0,0,.985.369h1.723v2.216H80.47A6.916,6.916,0,0,1,78.008,27a2.032,2.032,0,0,1-1.231-1.231,5.535,5.535,0,0,1-.369-2.216v-8a2.319,2.319,0,0,0-.246-.985A2.749,2.749,0,0,0,75.3,13.7l1.847-1.6a4.445,4.445,0,0,1,1.6,1.354,4.345,4.345,0,0,1,.492,2.093V17.27h2.954v2.216l-2.954-.123Z" transform="translate(-43.663 -10.992)" fill="#7a6a5f"/>
          <path id="Path_2056" data-name="Path 2056" d="M91.079,24.348a2.749,2.749,0,0,0,.862.862l-1.847,1.6a3.661,3.661,0,0,1-1.723-1.6,3.01,3.01,0,0,1-1.354,1.108,4.761,4.761,0,0,1-2.093.492,3.907,3.907,0,0,1-2.462-.739,2.634,2.634,0,0,1-.862-2.216,2.423,2.423,0,0,1,.739-1.97,4.343,4.343,0,0,1,1.6-.985c.616-.123,1.231-.246,1.97-.369l.985-.123a1.435,1.435,0,0,0,.862-.246A.64.64,0,0,0,88,19.67a1.5,1.5,0,0,0-.369-1.108,2.081,2.081,0,0,0-1.477-.492,3.642,3.642,0,0,0-1.231.246,3.394,3.394,0,0,0-1.108.862l-1.97-1.354a4,4,0,0,1,1.6-1.231,6.869,6.869,0,0,1,2.585-.492c3.078,0,4.678,1.231,4.678,3.816v3.57C90.833,23.732,90.956,24.1,91.079,24.348Zm-3.693-.123A1.977,1.977,0,0,0,88,22.871v-.862a6.688,6.688,0,0,1-1.354.246l-.616.123a2.08,2.08,0,0,0-1.231.369c-.369.123-.492.492-.492.985a1.118,1.118,0,0,0,.369.862,1.326,1.326,0,0,0,.985.246A3.167,3.167,0,0,0,87.386,24.225Z" transform="translate(-42.207 -10.068)" fill="#7a6a5f"/>
          <path id="Path_2057" data-name="Path 2057" d="M92.516,26.587a3.851,3.851,0,0,1-1.231-.616,10.065,10.065,0,0,1-.985-1.108l1.723-1.477a3.988,3.988,0,0,0,1.108.985,3.8,3.8,0,0,0,1.354.246,3.294,3.294,0,0,0,1.354-.246.744.744,0,0,0,.369-.739.675.675,0,0,0-.492-.739,10.48,10.48,0,0,0-2.093-.492c-1.97-.369-3.078-1.477-3.078-3.324a2.485,2.485,0,0,1,1.108-2.216A5.252,5.252,0,0,1,94.609,16a4.882,4.882,0,0,1,2.462.492,3.132,3.132,0,0,1,1.477,1.354l-1.6,1.477c-.369-.369-.739-.616-.985-.862a1.655,1.655,0,0,0-1.108-.246c-.985,0-1.354.369-1.354.985a.89.89,0,0,0,.492.739c.369.123.739.246,1.231.369a15.015,15.015,0,0,1,2.093.616,3.491,3.491,0,0,1,1.354.985,2.967,2.967,0,0,1,.492,1.847,2.7,2.7,0,0,1-1.108,2.339,6.044,6.044,0,0,1-3.324.739A10.044,10.044,0,0,1,92.516,26.587Z" transform="translate(-40.197 -10.091)" fill="#7a6a5f"/>
          <path id="Path_2058" data-name="Path 2058" d="M99.431,25.7A3.649,3.649,0,0,1,98.2,22.748V20.039a3.493,3.493,0,0,1,1.231-2.954,5.73,5.73,0,0,1,3.447-.985,4.858,4.858,0,0,1,4.062,1.723l-1.97,1.6c-.369-.369-.616-.739-.985-.862a2.458,2.458,0,0,0-1.108-.246,1.534,1.534,0,0,0-1.354.492,1.681,1.681,0,0,0-.492,1.354v2.708a1.534,1.534,0,0,0,.492,1.354,1.681,1.681,0,0,0,1.354.492,2.458,2.458,0,0,0,1.108-.246,5.381,5.381,0,0,0,.985-.862l1.97,1.6a4.287,4.287,0,0,1-1.6,1.354,6.916,6.916,0,0,1-2.462.369A5.792,5.792,0,0,1,99.431,25.7Z" transform="translate(-38.372 -10.068)" fill="#7a6a5f"/>
          <path id="Path_2059" data-name="Path 2059" d="M114.579,18.071a3.468,3.468,0,0,1,.862,2.585v7.017h-2.831V21.025a2.08,2.08,0,0,0-.369-1.231,1.56,1.56,0,0,0-1.108-.492c-.985,0-1.6.616-2.093,1.723v6.648h-2.831V14.747a2.319,2.319,0,0,0-.246-.985,2.749,2.749,0,0,0-.862-.862l1.847-1.6a4.445,4.445,0,0,1,1.6,1.354,4.345,4.345,0,0,1,.492,2.093v3.816a3.347,3.347,0,0,1,2.954-1.231A2.671,2.671,0,0,1,114.579,18.071Z" transform="translate(-36.778 -11.177)" fill="#7a6a5f"/>
          <path id="Path_2060" data-name="Path 2060" d="M115.531,25.7a3.649,3.649,0,0,1-1.231-2.954V20.039a3.493,3.493,0,0,1,1.231-2.954,5.73,5.73,0,0,1,3.447-.985,5.474,5.474,0,0,1,3.447.985,3.875,3.875,0,0,1,1.231,2.954v2.708a3.493,3.493,0,0,1-1.231,2.954,5.006,5.006,0,0,1-3.447.985A4.459,4.459,0,0,1,115.531,25.7Zm4.924-1.6a1.681,1.681,0,0,0,.492-1.354V20.039a1.534,1.534,0,0,0-.492-1.354,1.681,1.681,0,0,0-1.354-.492,1.534,1.534,0,0,0-1.354.492,1.681,1.681,0,0,0-.492,1.354v2.708a1.534,1.534,0,0,0,.492,1.354,2.108,2.108,0,0,0,2.708,0Z" transform="translate(-34.653 -10.068)" fill="#7a6a5f"/>
          <path id="Path_2061" data-name="Path 2061" d="M123.931,25.7a3.649,3.649,0,0,1-1.231-2.954V20.039a3.493,3.493,0,0,1,1.231-2.954,5.006,5.006,0,0,1,3.447-.985,5.474,5.474,0,0,1,3.447.985,3.649,3.649,0,0,1,1.231,2.954v2.708a3.493,3.493,0,0,1-1.231,2.954,5.006,5.006,0,0,1-3.447.985A4.459,4.459,0,0,1,123.931,25.7Zm4.924-1.6a1.681,1.681,0,0,0,.492-1.354V20.039a1.534,1.534,0,0,0-.492-1.354,1.681,1.681,0,0,0-1.354-.492,1.534,1.534,0,0,0-1.354.492,1.681,1.681,0,0,0-.492,1.354v2.708a1.534,1.534,0,0,0,.492,1.354,2.108,2.108,0,0,0,2.708,0Z" transform="translate(-32.712 -10.068)" fill="#7a6a5f"/>
          <path id="Path_2062" data-name="Path 2062" d="M131.9,26.588a4.345,4.345,0,0,1-.492-2.093V14.647a2.319,2.319,0,0,0-.246-.985,2.749,2.749,0,0,0-.862-.862l1.847-1.6a4.445,4.445,0,0,1,1.6,1.354,4.345,4.345,0,0,1,.492,2.093V24.5a2.319,2.319,0,0,0,.246.985,2.749,2.749,0,0,0,.862.862l-1.847,1.6A4.445,4.445,0,0,1,131.9,26.588Z" transform="translate(-30.956 -11.2)" fill="#7a6a5f"/>
        </g>
        <g id="Group_361" data-name="Group 361" transform="translate(0 18.096)">
          <path id="Path_2063" data-name="Path 2063" d="M50.092,31.885a1.427,1.427,0,0,1-.492-1.231V29.423a1.427,1.427,0,0,1,.492-1.231,2.24,2.24,0,0,1,1.354-.492,1.681,1.681,0,0,1,1.354.492,1.427,1.427,0,0,1,.492,1.231v1.231a1.427,1.427,0,0,1-.492,1.231,2.108,2.108,0,0,1-2.708,0Zm2.216-.369a1.118,1.118,0,0,0,.369-.862V29.423a1.118,1.118,0,0,0-.369-.862,1.039,1.039,0,0,0-.862-.246,1.435,1.435,0,0,0-.862.246,1.118,1.118,0,0,0-.369.862v1.231a1.118,1.118,0,0,0,.369.862,1.039,1.039,0,0,0,.862.246A.761.761,0,0,0,52.308,31.516Z" transform="translate(-49.6 -25.484)" fill="#7a6a5f"/>
          <path id="Path_2064" data-name="Path 2064" d="M56.354,30.209a1.838,1.838,0,0,1,.369.862l.369,1.477h-.616l-.369-1.477c-.123-.246-.123-.492-.369-.616a.94.94,0,0,0-.616-.246l-.862.862v1.354h-.616V26.516c0-.123-.123-.123-.246-.246l.369-.369.369.369a.74.74,0,0,1,.123.492v3.57l2.093-2.093h.739l-1.477,1.477A2.575,2.575,0,0,0,56.354,30.209Z" transform="translate(-48.722 -25.9)" fill="#7a6a5f"/>
          <path id="Path_2065" data-name="Path 2065" d="M57.762,28.739v2.585c0,.492.246.862.739.862h.492v.492H58.5a1.271,1.271,0,0,1-1.354-1.354V27.016l-.246-.246.369-.369.369.369a.74.74,0,0,1,.123.492v.985h1.231v.492Z" transform="translate(-47.914 -25.784)" fill="#7a6a5f"/>
          <path id="Path_2066" data-name="Path 2066" d="M62.97,31.739c0,.123.123.123.246.246l-.369.369c-.123-.123-.246-.123-.369-.246a.452.452,0,0,1-.123-.369,1.229,1.229,0,0,1-.616.492,2.282,2.282,0,0,1-.862.246,1.5,1.5,0,0,1-1.108-.369,1.212,1.212,0,0,1-.369-.985,1.118,1.118,0,0,1,.369-.862A1.634,1.634,0,0,1,61,29.893l.739-.123c.246,0,.369,0,.492-.123.123,0,.123-.123.246-.123v-.246c0-.616-.492-.862-1.231-.862a1.561,1.561,0,0,0-.739.123,1.7,1.7,0,0,0-.492.369l-.369-.369a1.693,1.693,0,0,1,1.6-.739,2.211,2.211,0,0,1,1.354.369,1.56,1.56,0,0,1,.492,1.108V31.37C62.847,31.493,62.847,31.616,62.97,31.739Zm-1.108-.246a1.118,1.118,0,0,0,.369-.862v-.739c-.123,0-.123.123-.246.123a.452.452,0,0,0-.369.123L61,30.262a1.041,1.041,0,0,0-.739.246.94.94,0,0,0-.246.616c0,.492.369.739.985.739A1.33,1.33,0,0,0,61.862,31.493Z" transform="translate(-47.336 -25.461)" fill="#7a6a5f"/>
          <path id="Path_2067" data-name="Path 2067" d="M63.962,28.739v2.585c0,.492.246.862.739.862h.492v.492H64.7a1.271,1.271,0,0,1-1.354-1.354V27.016l-.246-.246.369-.369.369.369a.74.74,0,0,1,.123.492v.985h1.231v.492Z" transform="translate(-46.481 -25.784)" fill="#7a6a5f"/>
          <path id="Path_2068" data-name="Path 2068" d="M69.07,32.086c0,.123.123.123.246.246l-.369.369c-.123-.123-.246-.123-.369-.246a.452.452,0,0,1-.123-.369,1.229,1.229,0,0,1-.616.492,2.282,2.282,0,0,1-.862.246,1.5,1.5,0,0,1-1.108-.369,1.212,1.212,0,0,1-.369-.985,1.118,1.118,0,0,1,.369-.862,1.634,1.634,0,0,1,1.231-.369l.739-.123c.246,0,.369,0,.492-.123.123,0,.123-.123.246-.123v-.246c0-.616-.492-.862-1.231-.862a1.561,1.561,0,0,0-.739.123,1.7,1.7,0,0,0-.492.369l-.369-.369a1.693,1.693,0,0,1,1.6-.739,2.211,2.211,0,0,1,1.354.369,1.56,1.56,0,0,1,.492,1.108v2.093A.452.452,0,0,0,69.07,32.086Zm-.985-.246a1.118,1.118,0,0,0,.369-.862v-.739c-.123,0-.123.123-.246.123a.452.452,0,0,0-.369.123l-.616.123a1.041,1.041,0,0,0-.739.246.94.94,0,0,0-.246.616c0,.492.369.739.985.739A1.33,1.33,0,0,0,68.085,31.84Zm-.246-5.54h.739l-.862,1.354h-.492Z" transform="translate(-45.927 -25.808)" fill="#7a6a5f"/>
          <path id="Path_2069" data-name="Path 2069" d="M69.939,32.109a1.641,1.641,0,0,1-.739-.616l.369-.369a2.161,2.161,0,0,0,.616.492.922.922,0,0,0,.616.123,1.779,1.779,0,0,0,.862-.246A.491.491,0,0,0,71.908,31a.452.452,0,0,0-.123-.369.539.539,0,0,0-.369-.123c-.123-.123-.492-.123-.862-.246-.862-.123-1.231-.616-1.231-1.231a.958.958,0,0,1,.369-.862A1.5,1.5,0,0,1,70.8,27.8a1.825,1.825,0,0,1,.862.123,1.229,1.229,0,0,1,.616.492l-.369.369c-.123-.123-.246-.369-.492-.369a.923.923,0,0,0-.616-.123,1.75,1.75,0,0,0-.739.246.616.616,0,0,0,0,.985,1.041,1.041,0,0,0,.739.246,3.805,3.805,0,0,0,.985.246,1.7,1.7,0,0,1,.492.369A.922.922,0,0,1,72.4,31a.958.958,0,0,1-.369.862,1.838,1.838,0,0,1-1.231.369A1.011,1.011,0,0,1,69.939,32.109Z" transform="translate(-45.072 -25.461)" fill="#7a6a5f"/>
          <path id="Path_2070" data-name="Path 2070" d="M72.823,27.116a.381.381,0,0,1-.123-.246c0-.123,0-.246.123-.246a.381.381,0,0,1,.246-.123c.123,0,.246,0,.246.123.123.123.123.123.123.246s0,.246-.123.246c-.123.123-.123.123-.246.123S72.823,27.239,72.823,27.116Zm0,5.17a.74.74,0,0,1-.123-.492V28.347h.616V32.04l.246.246-.369.369Z" transform="translate(-44.263 -25.761)" fill="#7a6a5f"/>
          <path id="Path_2071" data-name="Path 2071" d="M79.154,30.209a1.838,1.838,0,0,1,.369.862l.369,1.477h-.616l-.369-1.477c-.123-.246-.123-.492-.369-.616a.94.94,0,0,0-.616-.246l-.862.862v1.354h-.616V26.516c0-.123-.123-.123-.246-.246l.369-.369.369.369a.74.74,0,0,1,.123.492v3.57l2.093-2.093h.739l-1.477,1.6Z" transform="translate(-43.455 -25.9)" fill="#7a6a5f"/>
          <path id="Path_2072" data-name="Path 2072" d="M80.292,32.093a1.427,1.427,0,0,1-.492-1.231V29.631a1.427,1.427,0,0,1,.492-1.231,2.24,2.24,0,0,1,1.354-.492A1.681,1.681,0,0,1,83,28.4a1.427,1.427,0,0,1,.492,1.231v1.231A1.427,1.427,0,0,1,83,32.093a2.108,2.108,0,0,1-2.708,0Zm2.216-.369a1.118,1.118,0,0,0,.369-.862V29.631a1.118,1.118,0,0,0-.369-.862,1.039,1.039,0,0,0-.862-.246,1.435,1.435,0,0,0-.862.246,1.118,1.118,0,0,0-.369.862v1.231a1.118,1.118,0,0,0,.369.862,1.039,1.039,0,0,0,.862.246A.761.761,0,0,0,82.508,31.724Zm-1.847-4.309c-.123-.123-.123-.123-.123-.246s0-.246.123-.246c.123-.123.123-.123.246-.123s.246,0,.246.123a.121.121,0,0,1,.123.123c0,.123,0,.246-.123.246-.123.123-.123.123-.246.123Zm1.477,0c-.123-.123-.123-.123-.123-.246s0-.246.123-.246c.123-.123.123-.123.246-.123s.246,0,.246.123c.123.123.123.123.123.246s0,.246-.123.246c-.123.123-.123.123-.246.123A.381.381,0,0,0,82.139,27.416Z" transform="translate(-42.623 -25.692)" fill="#7a6a5f"/>
          <path id="Path_2073" data-name="Path 2073" d="M86.847,31.716v.492H84.139c-.492,0-.739-.246-.739-.616v-.246l2.708-2.954H83.523V27.9h3.324v.492L84.016,31.47c0,.123.123.246.369.246Z" transform="translate(-41.791 -25.438)" fill="#7a6a5f"/>
          <path id="Path_2074" data-name="Path 2074" d="M90.224,28.192a3.264,3.264,0,0,1,.616.739,2.9,2.9,0,0,1,.246.985v.246a2.319,2.319,0,0,1-.246.985,1.261,1.261,0,0,1-.616.739,1.326,1.326,0,0,1-.985.246,1.755,1.755,0,0,1-1.477-.739v2.831h-.616V28.439l-.246-.246.369-.369c.123.123.246.246.369.246a.452.452,0,0,1,.123.369,1.755,1.755,0,0,1,1.477-.739A2.474,2.474,0,0,1,90.224,28.192Zm.246,1.723a1.482,1.482,0,0,0-1.354-1.6,1.779,1.779,0,0,0-.862.246,1.13,1.13,0,0,0-.492.739v1.477a1.13,1.13,0,0,0,.492.739,1.779,1.779,0,0,0,.862.246,1.12,1.12,0,0,0,.985-.492,1.718,1.718,0,0,0,.369-1.108Z" transform="translate(-40.983 -25.484)" fill="#7a6a5f"/>
          <path id="Path_2075" data-name="Path 2075" d="M91.592,31.885a1.427,1.427,0,0,1-.492-1.231V29.423a1.427,1.427,0,0,1,.492-1.231,2.24,2.24,0,0,1,1.354-.492,1.681,1.681,0,0,1,1.354.492,1.427,1.427,0,0,1,.492,1.231v1.231a1.427,1.427,0,0,1-.492,1.231,2.108,2.108,0,0,1-2.708,0Zm2.216-.369a1.118,1.118,0,0,0,.369-.862V29.423a1.118,1.118,0,0,0-.369-.862,1.039,1.039,0,0,0-.862-.246,1.435,1.435,0,0,0-.862.246,1.118,1.118,0,0,0-.369.862v1.231a1.118,1.118,0,0,0,.369.862,1.039,1.039,0,0,0,.862.246A.706.706,0,0,0,93.808,31.516Z" transform="translate(-40.013 -25.484)" fill="#7a6a5f"/>
          <path id="Path_2076" data-name="Path 2076" d="M98.224,28.155a1.5,1.5,0,0,1,.369,1.108v2.954h-.616V29.386a1.041,1.041,0,0,0-.246-.739c-.123-.246-.369-.246-.616-.246a1.118,1.118,0,0,0-.862.369,2.474,2.474,0,0,0-.492.985v2.462h-.616V28.525l-.246-.246.369-.369q.369.185.369.369c0,.123.123.369.123.492v.123a1.261,1.261,0,0,1,.616-.739,2.282,2.282,0,0,1,.862-.246C97.731,27.786,98.1,27.909,98.224,28.155Z" transform="translate(-39.135 -25.447)" fill="#7a6a5f"/>
          <path id="Path_2077" data-name="Path 2077" d="M99.662,28.739v2.585c0,.492.246.862.739.862h.492v.492H100.4a1.212,1.212,0,0,1-.985-.369,1.4,1.4,0,0,1-.369-.985V27.016l-.246-.246.369-.369.369.369a.74.74,0,0,1,.123.492v.985h1.231v.492Z" transform="translate(-38.234 -25.784)" fill="#7a6a5f"/>
        </g>
      </g>
    </g>
  </g>
</svg>
