<?xml version="1.0" encoding="utf-8"?>
<!-- Generator: Adobe Illustrator 21.1.0, SVG Export Plug-In . SVG Version: 6.00 Build 0)  -->
<svg version="1.1" id="Layer_1" xmlns="http://www.w3.org/2000/svg" xmlns:xlink="http://www.w3.org/1999/xlink" x="0px" y="0px"
	 width="380px" height="380px" viewBox="0 0 380 380" style="enable-background:new 0 0 380 380;" xml:space="preserve">
<style type="text/css">
	.st0{fill:#00674C;}
	.st1{fill:#6EC72D;}
</style>
<g>
	<path class="st0" d="M120,335.2c4.6,0.6,9.7-1,13.1-3.8c3.9-3.3,7.4-10.2,7.4-17.6c0-8.2-5.3-9.2-7.3-9.2c-2.8,0-5,1.5-7.1,2.8
		L120,335.2z M127.9,297.6c2.5-1.8,6.8-4.7,13.1-4.7c9.8,0,16.4,7.3,16.4,19.8c0,7.1-2.4,15.4-7.5,21.6
		c-9.7,11.8-21.9,11.8-32.3,11.8l-5.6,23.4l-0.7,0.5c-2.3,0-4.4-0.1-6.7-0.1c-3.3,0-6.3,0.2-9.9,0.3l-0.5-0.7c0,0,3.5-10.4,7.7-28.2
		c4.5-18.7,8.7-40.7,9.1-45.1l0.7-0.7l16.8-2.7l0.6,0.7L127.9,297.6z M92.5,345l-0.8,0.8c-3.1,0.6-6.8,1.1-8.8,1.1
		c-7.4,0-18.3-1.1-13.7-19.8c3.1-12.6,5.3-22,5.3-22l-6.9,0.2l-0.6-0.8l2.8-9.9l0.7-0.5h6.5l2.8-12.6l0.7-0.7
		c7.3-1.7,9.3-2.2,16.1-4.1l0.6,0.6L93,294.2l10-0.2l0.4,0.7c-1.4,4.1-1.8,5.2-3,9.8l-0.8,0.7l-9-0.2c0,0-1.8,7.6-4.4,18.2
		c-2.8,11.4-1.3,10.9,1.5,12c2.4,0.9,5.5-0.3,7.2-0.8l0.6,0.5L92.5,345L92.5,345z M37.7,303.2c-4.6,0-9.8,2.3-12.8,16.6
		c-3.3,15.9,3.3,16.9,6.6,16.9c2.9,0,9.2-1.6,12.3-16.8C46,309.3,44.2,303.2,37.7,303.2 M60.6,319.9C56.4,344,41.5,347,28.8,347
		c-12.5,0-24-8.6-20.7-27.2c2.5-14.5,11.2-28,32.2-27C54.9,293.6,63.5,303.6,60.6,319.9"/>
	<path class="st1" d="M350,316l15.2,28.9l-0.6,0.8l-10.9,0.3l-0.8-0.6c-2.5-6.9-13.6-28.5-13.6-28.5c-2.8,12.4-3.4,15.4-5.9,28.3
		l-0.7,0.6l-9.9,0.2l-0.4-0.6c0,0,5.2-21.7,9.7-41.8c2.1-9.4,5.4-24.3,6.7-33.3l0.7-0.6l10.7-1.8l0.6,0.7
		c-2,6.8-11.3,46.9-11.3,46.9c7-6.2,18.7-18.4,20.3-20.1l1.1-0.6h11.3l0.3,0.9c-2.8,2.2-7.9,6.9-9.8,8.5L350,316L350,316z
		 M312.5,345.2l-0.8,0.6l-10,0.3l-0.4-0.7c1.4-6.6,7.5-28.7,7.5-35.6c0.1-5.9-3.6-7.8-8.2-7.8c-6.1,0-10.1,3-13,5.2
		c-3.6,16.5-4.8,21.6-7.9,38l-0.7,0.6l-10,0.3l-0.5-0.7c0,0,3-12,5.7-24.5c2.1-9.8,3.8-17.8,4.6-24.5l0.7-0.7
		c4.6-0.6,5.7-0.8,10.4-1.8l0.5,0.7l-1.4,5c3.8-2.5,8.7-6,16.8-6c3.2,0,13.8,0.9,13.8,12.7C319.7,313.5,313.5,338.3,312.5,345.2
		 M256.8,302.2c-1.5,0-2.9-0.1-4.4-0.1c-3.2,0-9.6,0.2-15.4,4.1c-10.3,7-10.5,19.7-10.5,20.2c0,4.7,2.5,12.2,11.5,12.2
		c2.6,0,7-0.6,11.8-4.8L256.8,302.2L256.8,302.2z M264,314.7c-3.4,15.1-4.1,18.8-6.1,30.5l-0.7,0.7l-9.2,0.2l-0.5-0.7l0.7-3.9
		c-1.7,1.4-6,5-14.3,5c-10,0-18.1-7.1-18.1-19.3c0-7.7,3.7-16.2,7.8-21.1c9.1-10.7,21.7-11.3,30.8-11.3l13.5,0.1l0.5,0.8L264,314.7z
		 M170.3,338.2c5.5,0.3,13.7,0.1,20.1-4.2c7.2-5,10.7-13.7,10.7-20c0-8.9-5.4-12.3-11.7-12.3c-5,0-8.5,2.2-11.7,4.1
		C177.7,305.8,170.9,335.8,170.3,338.2 M158.3,345.3c0.7-3,4.9-20.4,9.2-40c3.7-16.8,6.3-27.3,7.2-35.1l0.8-0.7l10.7-1.9l0.5,0.7
		l-2.7,10.9l-4.5,18.8c4.1-2.3,8-4.4,14.3-4.4c9.7,0,17.8,6.6,17.8,18.9c0,5-1.6,14.4-8.1,21.9c-8.8,10.1-19.7,10.8-32.3,11.3h-5.4
		l-6.9,0.1L158.3,345.3L158.3,345.3z"/>
	<path class="st1" d="M139.4,124.6c0-28.1,22.8-50.9,50.9-50.9c28.1,0,50.9,22.8,50.9,50.9c0,28.1-22.8,50.9-50.9,50.9
		C162.1,175.4,139.4,152.7,139.4,124.6"/>
	<path class="st0" d="M225.5,60.1c0-16.1,13.1-29.2,29.2-29.2c16.1,0,29.2,13.1,29.2,29.2c0,16.1-13.1,29.2-29.2,29.2
		C238.6,89.3,225.5,76.2,225.5,60.1 M75.3,124.6c0-63.3,51.3-114.6,114.6-114.7v41.5c-40.4,0.1-73.1,32.8-73.1,73.3
		c0,40.5,32.8,73.2,73.2,73.2c40.2,0,73.3-32.5,73.3-73.5l41.4,0c0,63.6-51.3,114.9-114.7,114.9C126.6,239.3,75.3,187.9,75.3,124.6"
		/>
</g>
</svg>
