<?xml version="1.0" encoding="utf-8"?>
<!-- Generator: Adobe Illustrator 21.1.0, SVG Export Plug-In . SVG Version: 6.00 Build 0)  -->
<svg version="1.1" id="Layer_1" xmlns="http://www.w3.org/2000/svg" xmlns:xlink="http://www.w3.org/1999/xlink" x="0px" y="0px"
	 width="1920px" height="1080px" viewBox="0 0 1920 1080" style="enable-background:new 0 0 1920 1080;" xml:space="preserve">
<style type="text/css">
	.st0{fill:url(#SVGID_1_);}
	.st1{opacity:0.2;}
	.st2{clip-path:url(#SVGID_3_);}
	.st3{fill:url(#SVGID_4_);}
	.st4{clip-path:url(#SVGID_6_);}
	.st5{fill:url(#SVGID_7_);}
	.st6{fill:#FAE690;}
	.st7{fill:#F4AB3C;}
	.st8{fill:#2A106D;}
	.st9{fill:#2752A3;}
	.st10{fill:#FFD11D;}
	.st11{fill:#FD9D04;}
	.st12{fill:#FF5910;}
	.st13{fill:#EA656C;}
	.st14{fill:#444A87;}
	.st15{fill:#FFE200;}
	.st16{fill:#19B1E0;}
	.st17{fill:#4865D3;}
	.st18{fill:#00FFF8;}
	.st19{fill:#F7CA11;}
	.st20{fill:#F2703D;}
	.st21{fill:#FFFFFF;}
	.st22{fill:#6533FF;}
	.st23{clip-path:url(#SVGID_13_);}
	.st24{fill:#FFC431;}
	.st25{fill:url(#SVGID_16_);}
	.st26{clip-path:url(#SVGID_18_);}
	.st27{clip-path:url(#SVGID_20_);}
	.st28{fill:url(#SVGID_21_);}
	.st29{clip-path:url(#SVGID_23_);}
	.st30{fill:url(#SVGID_24_);}
	.st31{fill:#FFE200;stroke:#FFFFFF;stroke-width:5;stroke-linecap:round;stroke-linejoin:round;stroke-miterlimit:10;}
	.st32{fill:url(#SVGID_27_);}
	.st33{clip-path:url(#SVGID_29_);}
	.st34{clip-path:url(#SVGID_31_);}
	.st35{fill:url(#SVGID_32_);}
	.st36{clip-path:url(#SVGID_34_);}
	.st37{fill:url(#SVGID_35_);}
	.st38{clip-path:url(#SVGID_39_);}
	.st39{clip-path:url(#SVGID_41_);}
	.st40{fill:url(#SVGID_42_);}
	.st41{fill:url(#SVGID_46_);}
	.st42{clip-path:url(#SVGID_48_);}
	.st43{fill:url(#SVGID_49_);}
	.st44{opacity:0.6;}
	.st45{clip-path:url(#SVGID_53_);}
	.st46{fill:#F7F7F7;}
	.st47{clip-path:url(#SVGID_55_);}
	.st48{fill:url(#SVGID_56_);}
</style>
<g>
	<defs>
		<rect id="SVGID_17_" y="-1284" width="1920" height="1080"/>
	</defs>
	<clipPath id="SVGID_1_">
		<use xlink:href="#SVGID_17_"  style="overflow:visible;"/>
	</clipPath>
	<g style="clip-path:url(#SVGID_1_);">
		<defs>
			<path id="SVGID_19_" d="M1299.5-1471.5l-979.6-155.1c-12.8-2-25.5,4.4-31.4,16L-161.8-727c-5.9,11.6-3.7,25.6,5.5,34.8L545,9.2
				c9.2,9.2,23.3,11.4,34.8,5.5l883.7-450.3c11.6-5.9,18-18.6,16-31.4l-155.1-979.6C1322.4-1459.4,1312.3-1469.5,1299.5-1471.5z"/>
		</defs>
		<clipPath id="SVGID_3_">
			<use xlink:href="#SVGID_19_"  style="overflow:visible;"/>
		</clipPath>
	</g>
</g>
<linearGradient id="SVGID_4_" gradientUnits="userSpaceOnUse" x1="194.7633" y1="-232.1098" x2="1725.2367" y2="1052.1099">
	<stop  offset="0" style="stop-color:#F7CA11"/>
	<stop  offset="1" style="stop-color:#F2703D"/>
</linearGradient>
<rect class="st3" width="1920" height="820"/>
<g>
	<defs>
		<rect id="SVGID_28_" width="1920" height="1080"/>
	</defs>
	<clipPath id="SVGID_6_">
		<use xlink:href="#SVGID_28_"  style="overflow:visible;"/>
	</clipPath>
	<g class="st4">
		<defs>
			<path id="SVGID_30_" d="M1299.5-187.5L319.9-342.6c-12.8-2-25.5,4.4-31.4,16L-161.8,557c-5.9,11.6-3.7,25.6,5.5,34.8L545,1293.2
				c9.2,9.2,23.3,11.4,34.8,5.5l883.7-450.3c11.6-5.9,18-18.6,16-31.4l-155.1-979.6C1322.4-175.4,1312.3-185.5,1299.5-187.5z"/>
		</defs>
		<clipPath id="SVGID_7_">
			<use xlink:href="#SVGID_30_"  style="overflow:visible;"/>
		</clipPath>
		<g style="clip-path:url(#SVGID_7_);">
			
				<linearGradient id="SVGID_9_" gradientUnits="userSpaceOnUse" x1="142.5238" y1="-2673.1089" x2="1514.4751" y2="-2673.1089" gradientTransform="matrix(0.7071 0.7071 -0.7071 0.7071 -1737.6631 1618.8861)">
				<stop  offset="0" style="stop-color:#FFE200"/>
				<stop  offset="1" style="stop-color:#F7CA11"/>
			</linearGradient>
			<path style="fill:url(#SVGID_9_);" d="M1195.5-149.3L367.8-280.4c-3.4-0.5-6.8,1.2-8.4,4.3L-21,470.6c-1.6,3.1-1,6.8,1.5,9.3
				L573,1072.4c2.5,2.5,6.2,3,9.3,1.5L1329,693.4c3.1-1.6,4.8-5,4.3-8.4l-131.1-827.7C1201.6-146.1,1199-148.7,1195.5-149.3z"/>
		</g>
	</g>
	<g class="st4">
		<defs>
			<path id="SVGID_33_" d="M1998.2-11.3l-323-51.2c-12.8-2-25.5,4.4-31.4,16L1495.3,245c-5.9,11.6-3.7,25.6,5.5,34.8L1732,511.1
				c9.2,9.2,23.3,11.4,34.8,5.5l291.4-148.5c11.6-5.9,18-18.6,16-31.4l-51.2-323C2021.1,0.8,2011.1-9.2,1998.2-11.3z"/>
		</defs>
		<clipPath id="SVGID_11_">
			<use xlink:href="#SVGID_33_"  style="overflow:visible;"/>
		</clipPath>
		<g style="clip-path:url(#SVGID_11_);">
			
				<linearGradient id="SVGID_13_" gradientUnits="userSpaceOnUse" x1="1208.1423" y1="-3521.0146" x2="1805.0873" y2="-3521.0146" gradientTransform="matrix(0.7071 0.7071 -0.7071 0.7071 -1737.6631 1618.8861)">
				<stop  offset="0" style="stop-color:#FFE200;stop-opacity:0.4"/>
				<stop  offset="1" style="stop-color:#F7CA11"/>
			</linearGradient>
			<path style="fill:url(#SVGID_13_);" d="M2014-8.8l-354.6-56.2c-3.4-0.5-6.8,1.2-8.4,4.3l-163,319.9c-1.6,3.1-1,6.8,1.5,9.3
				l253.9,253.9c2.5,2.5,6.2,3,9.3,1.5l319.9-163c3.1-1.6,4.8-5,4.3-8.4L2020.7-2.1C2020.1-5.5,2017.4-8.2,2014-8.8z"/>
		</g>
	</g>
</g>
<g>
	<defs>
		<rect id="SVGID_36_" x="123" y="123" width="1674" height="589"/>
	</defs>
	<clipPath id="SVGID_15_">
		<use xlink:href="#SVGID_36_"  style="overflow:visible;"/>
	</clipPath>
</g>
</svg>
