<?xml version="1.0" encoding="utf-8"?>
<!-- Generator: Adobe Illustrator 21.1.0, SVG Export Plug-In . SVG Version: 6.00 Build 0)  -->
<svg version="1.1" id="Layer_1" xmlns="http://www.w3.org/2000/svg" xmlns:xlink="http://www.w3.org/1999/xlink" x="0px" y="0px"
	 width="1920px" height="625px" viewBox="0 0 1920 625" style="enable-background:new 0 0 1920 625;" xml:space="preserve">
<style type="text/css">
	.st0{fill:url(#SVGID_1_);}
	.st1{fill:#F2F3F5;}
	.st2{fill:url(#SVGID_2_);}
	.st3{opacity:0.2;}
	.st4{clip-path:url(#SVGID_4_);}
	.st5{fill:url(#SVGID_5_);}
	.st6{clip-path:url(#SVGID_7_);}
	.st7{fill:url(#SVGID_8_);}
	.st8{fill:#FAE690;}
	.st9{fill:#F4AB3C;}
	.st10{fill:#2A106D;}
	.st11{fill:#2752A3;}
	.st12{fill:#FFD11D;}
	.st13{fill:#FD9D04;}
	.st14{fill:#FF5910;}
	.st15{fill:#EA656C;}
	.st16{fill:#444A87;}
	.st17{fill:#FFE200;}
	.st18{fill:#19B1E0;}
	.st19{fill:#4865D3;}
	.st20{fill:#00FFF8;}
	.st21{fill:#F7CA11;}
	.st22{fill:#F2703D;}
	.st23{fill:#56344D;}
	.st24{fill:#45283E;}
	.st25{fill:#684661;}
	.st26{opacity:0.3;fill:#EA656C;}
	.st27{opacity:0.1;fill:#EA656C;}
	.st28{fill:#FFFFFF;}
	.st29{fill:#6533FF;}
	.st30{clip-path:url(#SVGID_14_);}
	.st31{fill:#FFC431;}
	.st32{fill:url(#SVGID_17_);}
	.st33{clip-path:url(#SVGID_19_);}
	.st34{clip-path:url(#SVGID_21_);}
	.st35{fill:url(#SVGID_22_);}
	.st36{clip-path:url(#SVGID_24_);}
	.st37{fill:url(#SVGID_25_);}
	.st38{fill:#FFE200;stroke:#FFFFFF;stroke-width:5;stroke-linecap:round;stroke-linejoin:round;stroke-miterlimit:10;}
	.st39{fill:url(#SVGID_28_);}
	.st40{clip-path:url(#SVGID_30_);}
	.st41{clip-path:url(#SVGID_32_);}
	.st42{fill:url(#SVGID_33_);}
	.st43{clip-path:url(#SVGID_35_);}
	.st44{fill:url(#SVGID_36_);}
	.st45{fill:url(#SVGID_39_);}
	.st46{clip-path:url(#SVGID_41_);}
	.st47{clip-path:url(#SVGID_43_);}
	.st48{fill:url(#SVGID_44_);}
	.st49{clip-path:url(#SVGID_46_);}
	.st50{fill:url(#SVGID_47_);}
	.st51{clip-path:url(#SVGID_51_);}
	.st52{clip-path:url(#SVGID_53_);}
	.st53{fill:url(#SVGID_54_);}
	.st54{fill:url(#SVGID_58_);}
	.st55{clip-path:url(#SVGID_60_);}
	.st56{fill:url(#SVGID_61_);}
	.st57{opacity:0.6;}
	.st58{clip-path:url(#SVGID_65_);}
	.st59{fill:#F7F7F7;}
	.st60{clip-path:url(#SVGID_67_);}
	.st61{fill:url(#SVGID_68_);}
	.st62{fill:none;stroke:#E6E6E6;stroke-width:3;stroke-linecap:round;stroke-miterlimit:10;}
	.st63{fill:none;stroke:#E6E6E6;stroke-width:3;stroke-linecap:round;stroke-miterlimit:10;stroke-dasharray:0,9.0909;}
	.st64{fill:url(#SVGID_69_);}
	.st65{fill:none;stroke:#E6E6E6;stroke-miterlimit:10;}
	.st66{fill:url(#SVGID_70_);}
	.st67{fill:none;}
	.st68{clip-path:url(#SVGID_72_);}
	.st69{fill:url(#SVGID_73_);}
	.st70{fill:url(#SVGID_74_);}
	.st71{opacity:5.000000e-02;}
	.st72{clip-path:url(#SVGID_76_);}
	.st73{fill:#653950;}
	.st74{fill:#8F4F64;}
	.st75{fill:url(#SVGID_77_);}
	.st76{fill:url(#SVGID_78_);}
	.st77{fill:url(#SVGID_79_);}
</style>
<g>
	
		<linearGradient id="SVGID_1_" gradientUnits="userSpaceOnUse" x1="-6314.5132" y1="-4068.3999" x2="-4720.5229" y2="-4068.3999" gradientTransform="matrix(-0.8596 -0.511 0.511 -0.8596 -2230.5298 -6514.231)">
		<stop  offset="0" style="stop-color:#F7CA11"/>
		<stop  offset="1" style="stop-color:#F7CA11"/>
	</linearGradient>
	<path class="st0" d="M50.9,455.2l971.1-89.6c3.5-0.3,6.3-2.8,7.1-6.2L1244-591.9c0.8-3.4-0.7-6.9-3.7-8.6l-838.3-498.3
		c-3-1.8-6.8-1.4-9.4,0.9l-733,643.3c-2.6,2.3-3.4,6-2.1,9.2L42.9,450.4C44.2,453.6,47.5,455.5,50.9,455.2z"/>
</g>
<g>
	
		<linearGradient id="SVGID_2_" gradientUnits="userSpaceOnUse" x1="506.6321" y1="-5736.4619" x2="1109.2277" y2="-5736.4619" gradientTransform="matrix(-0.7071 -0.7071 0.7071 -0.7071 4657.9736 -3242.4902)">
		<stop  offset="0" style="stop-color:#FFE200"/>
		<stop  offset="1" style="stop-color:#F7CA11"/>
	</linearGradient>
	<path class="st2" d="M-168.1,447.7L190,504.4c3.4,0.5,6.8-1.2,8.4-4.3l164.6-323c1.6-3.1,1-6.8-1.5-9.3L105.1-88.6
		c-2.5-2.5-6.2-3-9.3-1.5l-323,164.6c-3.1,1.6-4.8,5-4.3,8.4l56.7,358.1C-174.2,444.4-171.5,447.1-168.1,447.7z"/>
</g>
<g>
	
		<linearGradient id="SVGID_4_" gradientUnits="userSpaceOnUse" x1="-1854.6323" y1="-8232.4268" x2="-1252.0367" y2="-8232.4268" gradientTransform="matrix(-0.2668 0.9638 -0.9638 -0.2668 -6485.8589 -454.7641)">
		<stop  offset="0" style="stop-color:#FFE200"/>
		<stop  offset="1" style="stop-color:#F7CA11"/>
	</linearGradient>
	<path style="fill:url(#SVGID_4_);" d="M2138.9,316.2L2011.8-23.4c-1.2-3.2-4.4-5.3-7.8-5.2l-362.2,16c-3.5,0.2-6.4,2.5-7.4,5.9
		l-96.7,349.4c-0.9,3.3,0.4,6.9,3.3,8.8l302.4,200c2.9,1.9,6.7,1.7,9.4-0.4l283.6-225.8C2139.1,323.1,2140.1,319.4,2138.9,316.2z"/>
</g>
<g>
	
		<linearGradient id="SVGID_5_" gradientUnits="userSpaceOnUse" x1="1582.3208" y1="-6426.3926" x2="2887.4385" y2="-6426.3926" gradientTransform="matrix(-0.4975 -0.8674 0.8674 -0.4975 7825.8472 -1310.9353)">
		<stop  offset="0" style="stop-color:#F2703D"/>
		<stop  offset="1" style="stop-color:#F7CA11"/>
	</linearGradient>
	<path class="st5" d="M604.4,260.2l726.9,326.1c3.2,1.4,6.9,0.6,9.2-1.9L1875.3-6.2c2.3-2.6,2.7-6.3,1-9.4l-396.4-691.1
		c-1.7-3-5.2-4.6-8.6-3.8L691.5-547c-3.4,0.7-5.9,3.5-6.3,7L599.7,252C599.3,255.5,601.2,258.8,604.4,260.2z"/>
</g>
</svg>
