<?xml version="1.0" encoding="utf-8"?>
<!-- Generator: Adobe Illustrator 22.1.0, SVG Export Plug-In . SVG Version: 6.00 Build 0)  -->
<svg version="1.1" id="Layer_1" xmlns="http://www.w3.org/2000/svg" xmlns:xlink="http://www.w3.org/1999/xlink" x="0px" y="0px"
	 viewBox="0 0 142 46" style="enable-background:new 0 0 142 46;" xml:space="preserve">
<style type="text/css">
	.st0{fill:#2752A3;}
	.st1{fill:url(#SVGID_1_);}
	.st2{fill:#F2F3F5;}
	.st3{fill:url(#SVGID_2_);}
	.st4{opacity:0.2;}
	.st5{clip-path:url(#SVGID_4_);}
	.st6{fill:url(#SVGID_5_);}
	.st7{clip-path:url(#SVGID_7_);}
	.st8{fill:url(#SVGID_8_);}
	.st9{fill:#FAE690;}
	.st10{fill:#F4AB3C;}
	.st11{fill:#2A106D;}
	.st12{fill:#FFD11D;}
	.st13{fill:#FD9D04;}
	.st14{fill:#FF5910;}
	.st15{fill:#EA656C;}
	.st16{fill:#444A87;}
	.st17{fill:#FFE200;}
	.st18{fill:#19B1E0;}
	.st19{fill:#4865D3;}
	.st20{fill:#00FFF8;}
	.st21{fill:#F7CA11;}
	.st22{fill:#F2703D;}
	.st23{fill:#56344D;}
	.st24{fill:#45283E;}
	.st25{fill:#684661;}
	.st26{opacity:0.3;fill:#EA656C;}
	.st27{opacity:0.1;fill:#EA656C;}
	.st28{fill:#FFFFFF;}
	.st29{fill:#6533FF;}
	.st30{fill:url(#SVGID_17_);}
	.st31{clip-path:url(#SVGID_19_);}
	.st32{clip-path:url(#SVGID_21_);}
	.st33{fill:url(#SVGID_22_);}
	.st34{clip-path:url(#SVGID_24_);}
	.st35{fill:url(#SVGID_25_);}
	.st36{fill:#FFE200;stroke:#FFFFFF;stroke-width:5;stroke-linecap:round;stroke-linejoin:round;stroke-miterlimit:10;}
	.st37{fill:url(#SVGID_28_);}
	.st38{clip-path:url(#SVGID_30_);}
	.st39{clip-path:url(#SVGID_32_);}
	.st40{fill:url(#SVGID_33_);}
	.st41{clip-path:url(#SVGID_35_);}
	.st42{fill:url(#SVGID_36_);}
	.st43{fill:url(#SVGID_39_);}
	.st44{clip-path:url(#SVGID_41_);}
	.st45{clip-path:url(#SVGID_43_);}
	.st46{fill:url(#SVGID_44_);}
	.st47{clip-path:url(#SVGID_46_);}
	.st48{fill:url(#SVGID_47_);}
	.st49{clip-path:url(#SVGID_51_);}
	.st50{fill:#FFC431;}
	.st51{clip-path:url(#SVGID_53_);}
	.st52{fill:url(#SVGID_54_);}
	.st53{fill:url(#SVGID_58_);}
	.st54{clip-path:url(#SVGID_60_);}
	.st55{fill:url(#SVGID_61_);}
	.st56{opacity:0.6;}
	.st57{clip-path:url(#SVGID_65_);}
	.st58{fill:#F7F7F7;}
	.st59{clip-path:url(#SVGID_67_);}
	.st60{fill:url(#SVGID_68_);}
	.st61{fill:none;stroke:#E6E6E6;stroke-width:3;stroke-linecap:round;stroke-miterlimit:10;}
	.st62{fill:none;stroke:#E6E6E6;stroke-width:3;stroke-linecap:round;stroke-miterlimit:10;stroke-dasharray:0,9.0909;}
	.st63{fill:url(#SVGID_69_);}
	.st64{fill:none;stroke:#E6E6E6;stroke-miterlimit:10;}
	.st65{fill:url(#SVGID_70_);}
	.st66{fill:none;}
	.st67{clip-path:url(#SVGID_72_);}
	.st68{fill:url(#SVGID_73_);}
	.st69{fill:url(#SVGID_74_);}
	.st70{opacity:5.000000e-02;}
	.st71{clip-path:url(#SVGID_76_);}
	.st72{fill:#653950;}
	.st73{fill:#8F4F64;}
	.st74{fill:url(#SVGID_77_);}
	.st75{fill:url(#SVGID_78_);}
	.st76{fill:url(#SVGID_79_);}
	.st77{clip-path:url(#SVGID_81_);}
	.st78{clip-path:url(#SVGID_83_);}
	.st79{clip-path:url(#SVGID_85_);}
	.st80{fill:#7A6A5F;}
	.st81{fill:none;stroke:#FFD11D;stroke-width:4;stroke-miterlimit:10;}
	.st82{fill:url(#SVGID_86_);}
	.st83{fill:url(#SVGID_87_);}
	.st84{fill:url(#SVGID_88_);}
	.st85{fill:url(#SVGID_89_);}
	.st86{fill:#F7CA11;stroke:#FFFFFF;stroke-width:2;stroke-miterlimit:10;}
	.st87{fill:url(#SVGID_90_);}
	.st88{fill:url(#SVGID_91_);}
</style>
<g>
	<g>
		<path class="st80" d="M138.5,21.5c-0.3-0.1-0.5-0.4-0.6-0.6c-0.2-0.3-0.2-0.6-0.2-0.9c0-0.4,0.1-0.7,0.2-0.9
			c0.2-0.3,0.4-0.5,0.6-0.6c0.3-0.1,0.6-0.2,0.9-0.2s0.7,0.1,0.9,0.2c0.3,0.1,0.5,0.4,0.6,0.6c0.2,0.3,0.2,0.6,0.2,0.9
			c0,0.4-0.1,0.7-0.2,0.9c-0.2,0.3-0.4,0.5-0.6,0.6c-0.3,0.1-0.6,0.2-0.9,0.2S138.7,21.6,138.5,21.5z M140.2,21.3
			c0.2-0.1,0.4-0.3,0.5-0.5c0.1-0.2,0.2-0.5,0.2-0.8c0-0.3-0.1-0.6-0.2-0.8c-0.1-0.2-0.3-0.4-0.5-0.5c-0.2-0.1-0.5-0.2-0.8-0.2
			c-0.3,0-0.6,0.1-0.8,0.2c-0.2,0.1-0.4,0.3-0.5,0.5c-0.1,0.2-0.2,0.5-0.2,0.8c0,0.3,0.1,0.6,0.2,0.8c0.1,0.2,0.3,0.4,0.5,0.5
			c0.2,0.1,0.5,0.2,0.8,0.2C139.7,21.5,140,21.4,140.2,21.3z M138.6,20.9c-0.2-0.2-0.3-0.4-0.3-0.7v-0.6c0-0.3,0.1-0.5,0.3-0.7
			c0.2-0.2,0.4-0.2,0.8-0.2c0.4,0,0.7,0.1,0.9,0.4l-0.4,0.4c-0.1-0.1-0.2-0.2-0.2-0.2c-0.1,0-0.2-0.1-0.3-0.1c-0.1,0-0.2,0-0.3,0.1
			c-0.1,0.1-0.1,0.2-0.1,0.3v0.6c0,0.1,0,0.2,0.1,0.3c0.1,0.1,0.2,0.1,0.3,0.1c0.1,0,0.2,0,0.3-0.1c0.1,0,0.1-0.1,0.2-0.2l0.4,0.4
			c-0.1,0.1-0.2,0.2-0.4,0.3c-0.1,0.1-0.3,0.1-0.6,0.1C139,21.1,138.8,21,138.6,20.9z"/>
	</g>
	<g>
		<g>
			<g>
				<linearGradient id="SVGID_1_" gradientUnits="userSpaceOnUse" x1="0.8" y1="23" x2="46.0569" y2="23">
					<stop  offset="0" style="stop-color:#FFE200"/>
					<stop  offset="1" style="stop-color:#F7CA11"/>
				</linearGradient>
				<path class="st1" d="M21.7,1.9L2,16.2c-1.1,0.8-1.5,2.1-1.1,3.4l7.5,23.1c0.4,1.2,1.6,2.1,2.9,2.1h24.3c1.3,0,2.5-0.8,2.9-2.1
					l7.5-23.1c0.4-1.2,0-2.6-1.1-3.4L25.2,1.9C24.1,1.1,22.7,1.1,21.7,1.9z"/>
			</g>
			<g>
				<path class="st80" d="M52.4,19.9h5c1.5,0,2.6,0.3,3.3,1c0.7,0.6,1.1,1.6,1.1,3s-0.4,2.3-1.1,3c-0.7,0.6-1.8,1-3.3,1h-2.5v4.5
					h-2.5V19.9z M57.4,25.8c0.5,0,1-0.2,1.3-0.5c0.3-0.3,0.5-0.8,0.5-1.5c0-0.7-0.2-1.2-0.5-1.5c-0.3-0.3-0.8-0.5-1.3-0.5h-2.6v4
					H57.4z"/>
				<path class="st80" d="M66.8,30.6c0.3-0.1,0.6-0.3,0.9-0.6l1.4,1.2c-0.7,0.8-1.8,1.3-3.3,1.3c-1.4,0-2.3-0.3-2.9-0.8
					c-0.6-0.5-0.9-1.3-0.9-2.5v-2.5c0-0.9,0.3-1.6,1-2.1c0.7-0.5,1.5-0.8,2.7-0.8c1.2,0,2.1,0.3,2.7,0.8c0.7,0.6,1,1.4,1,2.4
					c0,0.5,0,0.9-0.1,1.2c-0.1,0.3-0.3,0.5-0.5,0.6c-0.3,0.1-0.6,0.2-1.1,0.2h-3.3v0.2c0,1,0.5,1.5,1.6,1.5
					C66.2,30.7,66.5,30.7,66.8,30.6z M64.5,25.9c-0.2,0.3-0.4,0.6-0.4,1v0.6h2c0.3,0,0.5,0,0.6-0.1c0.1-0.1,0.2-0.3,0.2-0.5
					c0-0.4-0.1-0.8-0.4-1c-0.2-0.2-0.6-0.4-1.1-0.4C65.1,25.5,64.8,25.6,64.5,25.9z"/>
				<path class="st80" d="M77,24.5c0.5,0.5,0.7,1.2,0.7,2.1v5.7h-2.3v-5.4c0-0.4-0.1-0.7-0.3-1c-0.2-0.2-0.5-0.4-0.9-0.4
					c-0.8,0-1.3,0.5-1.7,1.4v5.4h-2.3v-5.7c0-0.3-0.1-0.6-0.2-0.8c-0.1-0.2-0.3-0.4-0.7-0.7l1.5-1.3c0.4,0.2,0.7,0.4,0.9,0.6
					c0.2,0.2,0.4,0.5,0.5,0.7c0.2-0.4,0.6-0.7,1-1s0.9-0.4,1.6-0.4C75.9,23.7,76.6,24,77,24.5z"/>
				<path class="st80" d="M81.4,25.7v3.4c0,0.5,0.1,0.8,0.2,1c0.2,0.2,0.4,0.3,0.8,0.3h1.4v1.8h-1.4c-0.8,0-1.5-0.1-2-0.3
					c-0.5-0.2-0.8-0.5-1-1c-0.2-0.4-0.3-1.1-0.3-1.8v-6.5c0-0.3-0.1-0.6-0.2-0.8c-0.1-0.2-0.3-0.4-0.7-0.7l1.5-1.3
					c0.6,0.3,1,0.7,1.3,1.1c0.2,0.4,0.4,0.9,0.4,1.7V24h2.4v1.8H81.4z"/>
				<path class="st80" d="M92,30.5c0.1,0.2,0.3,0.4,0.7,0.7l-1.5,1.3c-0.7-0.3-1.1-0.8-1.4-1.3c-0.3,0.4-0.6,0.7-1.1,0.9
					c-0.4,0.2-1,0.4-1.7,0.4c-0.8,0-1.5-0.2-2-0.6c-0.5-0.4-0.7-1-0.7-1.8c0-0.7,0.2-1.3,0.6-1.6c0.4-0.4,0.8-0.6,1.3-0.8
					c0.5-0.1,1-0.2,1.6-0.3l0.8-0.1c0.3,0,0.6-0.1,0.7-0.2c0.1-0.1,0.2-0.2,0.2-0.4c0-0.4-0.1-0.7-0.3-0.9c-0.2-0.2-0.6-0.4-1.2-0.4
					c-0.4,0-0.7,0.1-1,0.2c-0.3,0.1-0.6,0.4-0.9,0.7l-1.6-1.1c0.3-0.4,0.8-0.8,1.3-1c0.5-0.2,1.2-0.4,2.1-0.4c2.5,0,3.8,1,3.8,3.1
					v2.9C91.8,30,91.9,30.3,92,30.5z M89,30.4c0.3-0.3,0.5-0.7,0.5-1.1v-0.7c-0.2,0.1-0.5,0.1-1.1,0.2l-0.5,0.1
					c-0.4,0-0.7,0.1-1,0.3c-0.3,0.1-0.4,0.4-0.4,0.8c0,0.3,0.1,0.5,0.3,0.7c0.2,0.2,0.5,0.2,0.8,0.2C88.2,30.8,88.7,30.7,89,30.4z"
					/>
				<path class="st80" d="M94.4,32.3c-0.4-0.1-0.7-0.3-1-0.5c-0.2-0.2-0.5-0.5-0.8-0.9l1.4-1.2c0.3,0.4,0.6,0.6,0.9,0.8
					c0.3,0.1,0.6,0.2,1.1,0.2c0.5,0,0.9-0.1,1.1-0.2c0.2-0.1,0.3-0.3,0.3-0.6c0-0.3-0.1-0.5-0.4-0.6c-0.3-0.1-0.9-0.3-1.7-0.4
					c-1.6-0.3-2.5-1.2-2.5-2.7c0-0.8,0.3-1.4,0.9-1.8c0.6-0.4,1.4-0.7,2.4-0.7c0.8,0,1.5,0.1,2,0.4c0.5,0.2,0.9,0.6,1.2,1.1L98,26.4
					c-0.3-0.3-0.6-0.5-0.8-0.7s-0.6-0.2-0.9-0.2c-0.8,0-1.1,0.3-1.1,0.8c0,0.2,0.1,0.4,0.4,0.6c0.3,0.1,0.6,0.2,1,0.3
					c0.7,0.2,1.3,0.3,1.7,0.5c0.4,0.2,0.8,0.4,1.1,0.8c0.3,0.4,0.4,0.9,0.4,1.5c0,0.8-0.3,1.5-0.9,1.9c-0.6,0.4-1.5,0.6-2.7,0.6
					C95.4,32.5,94.9,32.4,94.4,32.3z"/>
				<path class="st80" d="M101.1,31.6c-0.7-0.6-1-1.4-1-2.4V27c0-1,0.3-1.9,1-2.4s1.6-0.8,2.8-0.8c1.5,0,2.6,0.5,3.3,1.4l-1.6,1.3
					c-0.3-0.3-0.5-0.6-0.8-0.7c-0.2-0.1-0.5-0.2-0.9-0.2c-0.5,0-0.9,0.1-1.1,0.4c-0.3,0.3-0.4,0.6-0.4,1.1v2.2
					c0,0.5,0.1,0.9,0.4,1.1c0.3,0.3,0.6,0.4,1.1,0.4c0.4,0,0.7-0.1,0.9-0.2c0.2-0.1,0.5-0.4,0.8-0.7l1.6,1.3
					c-0.3,0.5-0.8,0.8-1.3,1.1c-0.5,0.2-1.2,0.3-2,0.3C102.7,32.5,101.8,32.2,101.1,31.6z"/>
				<path class="st80" d="M114.9,24.5c0.5,0.5,0.7,1.2,0.7,2.1v5.7h-2.3v-5.4c0-0.4-0.1-0.7-0.3-1c-0.2-0.2-0.5-0.4-0.9-0.4
					c-0.8,0-1.3,0.5-1.7,1.4v5.4h-2.3V21.8c0-0.3-0.1-0.6-0.2-0.8c-0.1-0.2-0.3-0.4-0.7-0.7l1.5-1.3c0.6,0.3,1,0.7,1.3,1.1
					c0.2,0.4,0.4,0.9,0.4,1.7v3.1c0.5-0.7,1.3-1,2.4-1C113.7,23.7,114.4,24,114.9,24.5z"/>
				<path class="st80" d="M117.7,31.6c-0.7-0.6-1-1.4-1-2.4V27c0-1,0.3-1.9,1-2.4s1.6-0.8,2.8-0.8c1.2,0,2.2,0.3,2.8,0.8
					s1,1.4,1,2.4v2.2c0,1-0.3,1.9-1,2.4c-0.7,0.6-1.6,0.8-2.8,0.8C119.3,32.5,118.4,32.2,117.7,31.6z M121.7,30.3
					c0.3-0.3,0.4-0.6,0.4-1.1V27c0-0.5-0.1-0.9-0.4-1.1c-0.3-0.3-0.6-0.4-1.1-0.4s-0.9,0.1-1.1,0.4c-0.3,0.3-0.4,0.6-0.4,1.1v2.2
					c0,0.5,0.1,0.9,0.4,1.1c0.3,0.3,0.6,0.4,1.1,0.4S121.4,30.6,121.7,30.3z"/>
				<path class="st80" d="M126.2,31.6c-0.7-0.6-1-1.4-1-2.4V27c0-1,0.3-1.9,1-2.4c0.7-0.6,1.6-0.8,2.8-0.8c1.2,0,2.2,0.3,2.8,0.8
					c0.7,0.6,1,1.4,1,2.4v2.2c0,1-0.3,1.9-1,2.4c-0.7,0.6-1.6,0.8-2.8,0.8C127.8,32.5,126.9,32.2,126.2,31.6z M130.2,30.3
					c0.3-0.3,0.4-0.6,0.4-1.1V27c0-0.5-0.1-0.9-0.4-1.1c-0.3-0.3-0.6-0.4-1.1-0.4c-0.5,0-0.9,0.1-1.1,0.4c-0.3,0.3-0.4,0.6-0.4,1.1
					v2.2c0,0.5,0.1,0.9,0.4,1.1c0.3,0.3,0.6,0.4,1.1,0.4C129.6,30.7,129.9,30.6,130.2,30.3z"/>
				<path class="st80" d="M134.5,31.4c-0.2-0.4-0.4-0.9-0.4-1.7v-8c0-0.3-0.1-0.6-0.2-0.8c-0.1-0.2-0.3-0.4-0.7-0.7l1.5-1.3
					c0.6,0.3,1,0.7,1.3,1.1c0.2,0.4,0.4,0.9,0.4,1.7v8c0,0.3,0.1,0.6,0.2,0.8c0.1,0.2,0.3,0.4,0.7,0.7l-1.5,1.3
					C135.2,32.2,134.8,31.8,134.5,31.4z"/>
			</g>
		</g>
		<path class="st28" d="M22.8,35.3l-11.2,7.8c-0.8,0.5-1.8-0.2-1.5-1.1l4-13.1c0.1-0.4,0-0.8-0.4-1.1L2.7,19.5
			C2,19,2.4,17.8,3.3,17.7L17,17.5c0.4,0,0.8-0.3,0.9-0.7l4.5-12.9C22.7,3,24,3,24.3,3.9l4.5,12.9c0.1,0.4,0.5,0.7,0.9,0.7l13.7,0.3
			c0.9,0,1.3,1.2,0.6,1.8L33,27.8c-0.3,0.3-0.5,0.7-0.4,1.1l4,13.1c0.3,0.9-0.8,1.7-1.5,1.1l-11.2-7.8C23.6,35,23.1,35,22.8,35.3z"
			/>
	</g>
</g>
</svg>
