<?xml version="1.0" encoding="utf-8"?>
<!-- Generator: Adobe Illustrator 21.1.0, SVG Export Plug-In . SVG Version: 6.00 Build 0)  -->
<svg version="1.1" id="Layer_1" xmlns="http://www.w3.org/2000/svg" xmlns:xlink="http://www.w3.org/1999/xlink" x="0px" y="0px"
	 width="57px" height="37px" viewBox="0 0 57 37" style="enable-background:new 0 0 57 37;" xml:space="preserve">
<style type="text/css">
	.st0{fill:#F2753B;}
</style>
<g>
	<g>
		<path class="st0" d="M19,0c-1.6,0-3.9,1-5,2.3L2,16.2c-1.1,1.2-1.1,3.3,0,4.5l12.1,14c1.1,1.2,3.3,2.3,5,2.3h35c1.7,0,3-1.3,3-3V3
			c0-1.6-1.3-3-3-3H19z M11,20c-1.1,0-2-0.9-2-2c0-1.1,0.9-2,2-2s2,0.9,2,2C13,19.1,12.1,20,11,20z"/>
	</g>
</g>
</svg>
