<?xml version="1.0" encoding="utf-8"?>
<!-- Generator: Adobe Illustrator 23.0.1, SVG Export Plug-In . SVG Version: 6.00 Build 0)  -->
<svg version="1.1" id="Layer_1" xmlns="http://www.w3.org/2000/svg" xmlns:xlink="http://www.w3.org/1999/xlink" x="0px" y="0px"
	 width="138.3px" height="44.3px" viewBox="0 0 138.3 44.3" style="enable-background:new 0 0 138.3 44.3;" xml:space="preserve">
<style type="text/css">
	.st0{fill:#FFFFFF;}
	.st1{fill:#7A6A5F;}
	.st2{fill:url(#SVGID_1_);}
	.st3{fill:url(#SVGID_2_);}
</style>
<g>
	<g>
		
			<linearGradient id="SVGID_1_" gradientUnits="userSpaceOnUse" x1="0.4383" y1="-319.8085" x2="45.6952" y2="-319.8085" gradientTransform="matrix(1 0 0 -1 0 -297.6596)">
			<stop  offset="0" style="stop-color:#FFE200"/>
			<stop  offset="1" style="stop-color:#F7CA11"/>
		</linearGradient>
		<path class="st2" d="M21.3,1L1.6,15.3c-1.1,0.8-1.5,2.1-1.1,3.4L8,41.8c0.4,1.2,1.6,2.1,2.9,2.1h24.3c1.3,0,2.5-0.8,2.9-2.1
			l7.5-23.1c0.4-1.2,0-2.6-1.1-3.4L24.8,1C23.7,0.2,22.3,0.2,21.3,1z"/>
	</g>
	<path class="st0" d="M22.4,30.5L12.6,40c-0.8,0.8-2.1-0.2-1.6-1.1l6-12.2c0.2-0.5,0-1.1-0.4-1.3l-12-6.4c-1-0.5-0.5-2,0.6-1.9
		L18.7,19c0.5,0.1,1-0.3,1.1-0.8l2.3-13.4c0.2-1.1,1.8-1.1,1.9,0l2.3,13.4c0.1,0.5,0.6,0.9,1.1,0.8L41,17.1c1.1-0.2,1.6,1.3,0.6,1.9
		l-12,6.4c-0.5,0.3-0.7,0.8-0.4,1.3l6,12.2c0.5,1-0.8,1.9-1.6,1.1l-9.8-9.5C23.4,30.1,22.8,30.1,22.4,30.5z"/>
	<g>
		<g>
			<path class="st1" d="M135.3,14.4c-0.3-0.1-0.5-0.4-0.6-0.6c-0.2-0.3-0.2-0.6-0.2-0.9c0-0.4,0.1-0.7,0.2-0.9
				c0.2-0.3,0.4-0.5,0.6-0.6c0.3-0.1,0.6-0.2,0.9-0.2s0.7,0.1,0.9,0.2c0.3,0.1,0.5,0.4,0.6,0.6c0.2,0.3,0.2,0.6,0.2,0.9
				c0,0.4-0.1,0.7-0.2,0.9c-0.2,0.3-0.4,0.5-0.6,0.6c-0.3,0.1-0.6,0.2-0.9,0.2S135.5,14.5,135.3,14.4z M137,14.2
				c0.2-0.1,0.4-0.3,0.5-0.5s0.2-0.5,0.2-0.8s-0.1-0.6-0.2-0.8c-0.1-0.2-0.3-0.4-0.5-0.5s-0.5-0.2-0.8-0.2s-0.6,0.1-0.8,0.2
				s-0.4,0.3-0.5,0.5s-0.2,0.5-0.2,0.8s0.1,0.6,0.2,0.8c0.1,0.2,0.3,0.4,0.5,0.5s0.5,0.2,0.8,0.2S136.8,14.3,137,14.2z M135.4,13.8
				c-0.2-0.2-0.3-0.4-0.3-0.7v-0.6c0-0.3,0.1-0.5,0.3-0.7s0.4-0.2,0.8-0.2c0.4,0,0.7,0.1,0.9,0.4l-0.4,0.4c-0.1-0.1-0.2-0.2-0.2-0.2
				c-0.1,0-0.2-0.1-0.3-0.1s-0.2,0-0.3,0.1s-0.1,0.2-0.1,0.3v0.6c0,0.1,0,0.2,0.1,0.3c0.1,0.1,0.2,0.1,0.3,0.1s0.2,0,0.3-0.1
				c0.1,0,0.1-0.1,0.2-0.2l0.4,0.4c-0.1,0.1-0.2,0.2-0.4,0.3c-0.1,0.1-0.3,0.1-0.6,0.1C135.8,14,135.6,13.9,135.4,13.8z"/>
		</g>
		<g>
			<path class="st1" d="M49.6,12.2h5c1.5,0,2.6,0.3,3.3,1c0.7,0.6,1.1,1.6,1.1,3s-0.4,2.3-1.1,3c-0.7,0.6-1.8,1-3.3,1h-2.5v4.5h-2.5
				V12.2z M54.6,18.1c0.5,0,1-0.2,1.3-0.5s0.5-0.8,0.5-1.5s-0.2-1.2-0.5-1.5s-0.8-0.5-1.3-0.5H52v4H54.6z"/>
			<path class="st1" d="M64.2,22.9c0.3-0.1,0.6-0.3,0.9-0.6l1.4,1.2c-0.7,0.8-1.8,1.3-3.3,1.3c-1.4,0-2.3-0.3-2.9-0.8
				c-0.6-0.5-0.9-1.3-0.9-2.5V19c0-0.9,0.3-1.6,1-2.1s1.5-0.8,2.7-0.8s2.1,0.3,2.7,0.8c0.7,0.6,1,1.4,1,2.4c0,0.5,0,0.9-0.1,1.2
				c-0.1,0.3-0.3,0.5-0.5,0.6c-0.3,0.1-0.6,0.2-1.1,0.2h-3.3v0.2c0,1,0.5,1.5,1.6,1.5C63.6,23,63.9,23,64.2,22.9z M61.9,18.2
				c-0.2,0.3-0.4,0.6-0.4,1v0.6h2c0.3,0,0.5,0,0.6-0.1s0.2-0.3,0.2-0.5c0-0.4-0.1-0.8-0.4-1c-0.2-0.2-0.6-0.4-1.1-0.4
				C62.5,17.8,62.2,17.9,61.9,18.2z"/>
			<path class="st1" d="M74.6,16.8c0.5,0.5,0.7,1.2,0.7,2.1v5.7H73v-5.4c0-0.4-0.1-0.7-0.3-1c-0.2-0.2-0.5-0.4-0.9-0.4
				c-0.8,0-1.3,0.5-1.7,1.4v5.4h-2.3v-5.7c0-0.3-0.1-0.6-0.2-0.8c-0.1-0.2-0.3-0.4-0.7-0.7l1.5-1.3c0.4,0.2,0.7,0.4,0.9,0.6
				c0.2,0.2,0.4,0.5,0.5,0.7c0.2-0.4,0.6-0.7,1-1s0.9-0.4,1.6-0.4C73.5,16,74.2,16.3,74.6,16.8z"/>
			<path class="st1" d="M78.5,18v3.4c0,0.5,0.1,0.8,0.2,1c0.2,0.2,0.4,0.3,0.8,0.3h1.4v1.8h-1.4c-0.8,0-1.5-0.1-2-0.3s-0.8-0.5-1-1
				c-0.2-0.4-0.3-1.1-0.3-1.8v-6.5c0-0.3-0.1-0.6-0.2-0.8c-0.1-0.2-0.3-0.4-0.7-0.7l1.5-1.3c0.6,0.3,1,0.7,1.3,1.1
				c0.2,0.4,0.4,0.9,0.4,1.7v1.4h2.4v1.8L78.5,18L78.5,18z"/>
			<path class="st1" d="M89.3,22.8c0.1,0.2,0.3,0.4,0.7,0.7l-1.5,1.3c-0.7-0.3-1.1-0.8-1.4-1.3c-0.3,0.4-0.6,0.7-1.1,0.9
				c-0.4,0.2-1,0.4-1.7,0.4c-0.8,0-1.5-0.2-2-0.6s-0.7-1-0.7-1.8c0-0.7,0.2-1.3,0.6-1.6c0.4-0.4,0.8-0.6,1.3-0.8
				c0.5-0.1,1-0.2,1.6-0.3l0.8-0.1c0.3,0,0.6-0.1,0.7-0.2s0.2-0.2,0.2-0.4c0-0.4-0.1-0.7-0.3-0.9c-0.2-0.2-0.6-0.4-1.2-0.4
				c-0.4,0-0.7,0.1-1,0.2s-0.6,0.4-0.9,0.7l-1.6-1.1c0.3-0.4,0.8-0.8,1.3-1s1.2-0.4,2.1-0.4c2.5,0,3.8,1,3.8,3.1v2.9
				C89.1,22.3,89.2,22.6,89.3,22.8z M86.3,22.7c0.3-0.3,0.5-0.7,0.5-1.1v-0.7c-0.2,0.1-0.5,0.1-1.1,0.2l-0.5,0.1
				c-0.4,0-0.7,0.1-1,0.3c-0.3,0.1-0.4,0.4-0.4,0.8c0,0.3,0.1,0.5,0.3,0.7c0.2,0.2,0.5,0.2,0.8,0.2C85.5,23.1,86,23,86.3,22.7z"/>
			<path class="st1" d="M92.1,24.6c-0.4-0.1-0.7-0.3-1-0.5c-0.2-0.2-0.5-0.5-0.8-0.9l1.4-1.2c0.3,0.4,0.6,0.6,0.9,0.8
				c0.3,0.1,0.6,0.2,1.1,0.2s0.9-0.1,1.1-0.2s0.3-0.3,0.3-0.6c0-0.3-0.1-0.5-0.4-0.6s-0.9-0.3-1.7-0.4c-1.6-0.3-2.5-1.2-2.5-2.7
				c0-0.8,0.3-1.4,0.9-1.8s1.4-0.7,2.4-0.7c0.8,0,1.5,0.1,2,0.4c0.5,0.2,0.9,0.6,1.2,1.1l-1.3,1.2c-0.3-0.3-0.6-0.5-0.8-0.7
				s-0.6-0.2-0.9-0.2c-0.8,0-1.1,0.3-1.1,0.8c0,0.2,0.1,0.4,0.4,0.6c0.3,0.1,0.6,0.2,1,0.3c0.7,0.2,1.3,0.3,1.7,0.5
				c0.4,0.2,0.8,0.4,1.1,0.8c0.3,0.4,0.4,0.9,0.4,1.5c0,0.8-0.3,1.5-0.9,1.9s-1.5,0.6-2.7,0.6C93.1,24.8,92.6,24.7,92.1,24.6z"/>
			<path class="st1" d="M99.2,23.9c-0.7-0.6-1-1.4-1-2.4v-2.2c0-1,0.3-1.9,1-2.4s1.6-0.8,2.8-0.8c1.5,0,2.6,0.5,3.3,1.4l-1.6,1.3
				c-0.3-0.3-0.5-0.6-0.8-0.7c-0.2-0.1-0.5-0.2-0.9-0.2c-0.5,0-0.9,0.1-1.1,0.4c-0.3,0.3-0.4,0.6-0.4,1.1v2.2c0,0.5,0.1,0.9,0.4,1.1
				c0.3,0.3,0.6,0.4,1.1,0.4c0.4,0,0.7-0.1,0.9-0.2c0.2-0.1,0.5-0.4,0.8-0.7l1.6,1.3c-0.3,0.5-0.8,0.8-1.3,1.1
				c-0.5,0.2-1.2,0.3-2,0.3C100.8,24.8,99.9,24.5,99.2,23.9z"/>
			<path class="st1" d="M112.8,16.8c0.5,0.5,0.7,1.2,0.7,2.1v5.7h-2.3v-5.4c0-0.4-0.1-0.7-0.3-1c-0.2-0.2-0.5-0.4-0.9-0.4
				c-0.8,0-1.3,0.5-1.7,1.4v5.4H106V14.1c0-0.3-0.1-0.6-0.2-0.8c-0.1-0.2-0.3-0.4-0.7-0.7l1.5-1.3c0.6,0.3,1,0.7,1.3,1.1
				c0.2,0.4,0.4,0.9,0.4,1.7v3.1c0.5-0.7,1.3-1,2.4-1C111.6,16,112.3,16.3,112.8,16.8z"/>
			<path class="st1" d="M115.3,23.9c-0.7-0.6-1-1.4-1-2.4v-2.2c0-1,0.3-1.9,1-2.4s1.6-0.8,2.8-0.8c1.2,0,2.2,0.3,2.8,0.8
				s1,1.4,1,2.4v2.2c0,1-0.3,1.9-1,2.4c-0.7,0.6-1.6,0.8-2.8,0.8C116.9,24.8,116,24.5,115.3,23.9z M119.3,22.6
				c0.3-0.3,0.4-0.6,0.4-1.1v-2.2c0-0.5-0.1-0.9-0.4-1.1c-0.3-0.3-0.6-0.4-1.1-0.4s-0.9,0.1-1.1,0.4c-0.3,0.3-0.4,0.6-0.4,1.1v2.2
				c0,0.5,0.1,0.9,0.4,1.1c0.3,0.3,0.6,0.4,1.1,0.4S119,22.9,119.3,22.6z"/>
			<path class="st1" d="M123.7,23.9c-0.7-0.6-1-1.4-1-2.4v-2.2c0-1,0.3-1.9,1-2.4c0.7-0.6,1.6-0.8,2.8-0.8c1.2,0,2.2,0.3,2.8,0.8
				c0.7,0.6,1,1.4,1,2.4v2.2c0,1-0.3,1.9-1,2.4c-0.7,0.6-1.6,0.8-2.8,0.8C125.3,24.8,124.4,24.5,123.7,23.9z M127.7,22.6
				c0.3-0.3,0.4-0.6,0.4-1.1v-2.2c0-0.5-0.1-0.9-0.4-1.1c-0.3-0.3-0.6-0.4-1.1-0.4s-0.9,0.1-1.1,0.4c-0.3,0.3-0.4,0.6-0.4,1.1v2.2
				c0,0.5,0.1,0.9,0.4,1.1c0.3,0.3,0.6,0.4,1.1,0.4C127.1,23,127.4,22.9,127.7,22.6z"/>
			<path class="st1" d="M131.6,23.7c-0.2-0.4-0.4-0.9-0.4-1.7v-8c0-0.3-0.1-0.6-0.2-0.8c-0.1-0.2-0.3-0.4-0.7-0.7l1.5-1.3
				c0.6,0.3,1,0.7,1.3,1.1c0.2,0.4,0.4,0.9,0.4,1.7v8c0,0.3,0.1,0.6,0.2,0.8c0.1,0.2,0.3,0.4,0.7,0.7l-1.5,1.3
				C132.3,24.5,131.9,24.1,131.6,23.7z"/>
		</g>
		<g>
			<path class="st1" d="M50,31.1c-0.3-0.2-0.4-0.6-0.4-1v-1c0-0.4,0.1-0.8,0.4-1c0.3-0.2,0.6-0.4,1.1-0.4c0.5,0,0.8,0.1,1.1,0.4
				c0.3,0.2,0.4,0.6,0.4,1v1c0,0.4-0.1,0.8-0.4,1c-0.3,0.2-0.6,0.4-1.1,0.4C50.6,31.5,50.3,31.3,50,31.1z M51.8,30.8
				c0.2-0.2,0.3-0.4,0.3-0.7v-1c0-0.3-0.1-0.5-0.3-0.7c-0.2-0.2-0.4-0.2-0.7-0.2c-0.3,0-0.6,0.1-0.7,0.2c-0.2,0.2-0.3,0.4-0.3,0.7v1
				c0,0.3,0.1,0.5,0.3,0.7c0.2,0.2,0.4,0.2,0.7,0.2C51.4,31.1,51.6,31,51.8,30.8z"/>
			<path class="st1" d="M55.8,29.4c0.1,0.2,0.3,0.4,0.3,0.7l0.3,1.2h-0.5l-0.3-1.2c-0.1-0.2-0.1-0.4-0.3-0.5
				c-0.1-0.1-0.3-0.2-0.5-0.2l-0.7,0.7v1.1h-0.5v-4.6c0-0.1,0-0.2,0-0.2c0-0.1-0.1-0.1-0.2-0.2l0.3-0.3c0.1,0.1,0.2,0.2,0.3,0.3
				s0.1,0.3,0.1,0.4v2.9l1.7-1.7h0.6l-1.2,1.2C55.4,29.2,55.6,29.3,55.8,29.4z"/>
			<path class="st1" d="M57.6,28.3v2.1c0,0.4,0.2,0.7,0.6,0.7h0.4v0.4h-0.4c-0.4,0-0.6-0.1-0.8-0.3c-0.2-0.2-0.3-0.4-0.3-0.8v-3.3
				c0-0.1,0-0.2,0-0.2s-0.1-0.1-0.2-0.2l0.3-0.3c0.1,0.1,0.2,0.2,0.3,0.3c0.1,0.1,0.1,0.3,0.1,0.4v0.8h1v0.4H57.6z"/>
			<path class="st1" d="M62.3,31c0,0.1,0.1,0.1,0.2,0.2l-0.3,0.3c-0.1-0.1-0.2-0.1-0.3-0.2s-0.1-0.2-0.1-0.3
				c-0.1,0.2-0.3,0.3-0.5,0.4c-0.2,0.1-0.5,0.2-0.7,0.2c-0.4,0-0.7-0.1-0.9-0.3c-0.2-0.2-0.3-0.4-0.3-0.8c0-0.3,0.1-0.5,0.3-0.7
				c0.2-0.2,0.5-0.3,1-0.3l0.6-0.1c0.2,0,0.3,0,0.4-0.1c0.1,0,0.1-0.1,0.2-0.1c0-0.1,0-0.1,0-0.2c0-0.5-0.4-0.7-1-0.7
				c-0.2,0-0.4,0-0.6,0.1c-0.2,0.1-0.3,0.2-0.4,0.3l-0.3-0.3c0.2-0.4,0.7-0.6,1.3-0.6c0.5,0,0.8,0.1,1.1,0.3
				c0.2,0.2,0.4,0.5,0.4,0.9v1.7C62.2,30.8,62.2,30.9,62.3,31z M61.4,30.8c0.2-0.2,0.3-0.4,0.3-0.7v-0.6c-0.1,0-0.1,0.1-0.2,0.1
				c-0.1,0-0.2,0-0.3,0.1l-0.5,0.1c-0.3,0-0.5,0.1-0.6,0.2c-0.1,0.1-0.2,0.3-0.2,0.5c0,0.4,0.3,0.6,0.8,0.6
				C60.9,31.1,61.2,31,61.4,30.8z"/>
			<path class="st1" d="M63.8,28.3v2.1c0,0.4,0.2,0.7,0.6,0.7h0.4v0.4h-0.4c-0.4,0-0.6-0.1-0.8-0.3c-0.2-0.2-0.3-0.4-0.3-0.8v-3.3
				c0-0.1,0-0.2,0-0.2s-0.1-0.1-0.2-0.2l0.3-0.3c0.1,0.1,0.2,0.2,0.3,0.3c0.1,0.1,0.1,0.3,0.1,0.4v0.8h1v0.4H63.8z"/>
			<path class="st1" d="M68.4,31c0,0.1,0.1,0.1,0.2,0.2l-0.3,0.3c-0.1-0.1-0.2-0.1-0.3-0.2s-0.1-0.2-0.1-0.3
				c-0.1,0.2-0.3,0.3-0.5,0.4c-0.2,0.1-0.5,0.2-0.7,0.2c-0.4,0-0.7-0.1-0.9-0.3c-0.2-0.2-0.3-0.4-0.3-0.8c0-0.3,0.1-0.5,0.3-0.7
				c0.2-0.2,0.5-0.3,1-0.3l0.6-0.1c0.2,0,0.3,0,0.4-0.1c0.1,0,0.1-0.1,0.2-0.1c0-0.1,0-0.1,0-0.2c0-0.5-0.4-0.7-1-0.7
				c-0.2,0-0.4,0-0.6,0.1c-0.2,0.1-0.3,0.2-0.4,0.3l-0.3-0.3c0.2-0.4,0.7-0.6,1.3-0.6c0.5,0,0.8,0.1,1.1,0.3
				c0.2,0.2,0.4,0.5,0.4,0.9v1.7C68.4,30.8,68.4,30.9,68.4,31z M67.6,30.8c0.2-0.2,0.3-0.4,0.3-0.7v-0.6c-0.1,0-0.1,0.1-0.2,0.1
				c-0.1,0-0.2,0-0.3,0.1l-0.5,0.1c-0.3,0-0.5,0.1-0.6,0.2c-0.1,0.1-0.2,0.3-0.2,0.5c0,0.4,0.3,0.6,0.8,0.6
				C67.1,31.1,67.4,31,67.6,30.8z M67.4,26.3H68l-0.7,1.1h-0.4L67.4,26.3z"/>
			<path class="st1" d="M69.8,31.3c-0.2-0.1-0.4-0.2-0.6-0.5l0.3-0.3c0.2,0.2,0.3,0.3,0.5,0.4c0.1,0.1,0.3,0.1,0.5,0.1
				c0.3,0,0.5-0.1,0.7-0.2c0.2-0.1,0.2-0.3,0.2-0.4c0-0.1,0-0.2-0.1-0.3C71.3,30.1,71.2,30,71,30c-0.1-0.1-0.4-0.1-0.7-0.2
				c-0.7-0.1-1-0.5-1-1c0-0.3,0.1-0.6,0.3-0.7c0.2-0.2,0.5-0.3,0.9-0.3c0.3,0,0.5,0,0.7,0.1s0.4,0.2,0.5,0.4l-0.3,0.3
				c-0.1-0.1-0.2-0.3-0.4-0.3c-0.1-0.1-0.3-0.1-0.5-0.1c-0.2,0-0.4,0.1-0.6,0.2c-0.1,0.1-0.2,0.2-0.2,0.4c0,0.2,0.1,0.3,0.2,0.4
				c0.1,0.1,0.3,0.2,0.6,0.2c0.3,0.1,0.6,0.2,0.8,0.2c0.2,0.1,0.3,0.2,0.4,0.3c0.1,0.1,0.1,0.3,0.1,0.5c0,0.3-0.1,0.6-0.3,0.7
				c-0.2,0.2-0.6,0.3-1,0.3C70.2,31.5,70,31.4,69.8,31.3z"/>
			<path class="st1" d="M72.8,27c-0.1-0.1-0.1-0.2-0.1-0.2c0-0.1,0-0.2,0.1-0.2c0.1-0.1,0.2-0.1,0.2-0.1c0.1,0,0.2,0,0.2,0.1
				c0.1,0.1,0.1,0.1,0.1,0.2c0,0.1,0,0.2-0.1,0.2c-0.1,0.1-0.1,0.1-0.2,0.1C72.9,27.1,72.8,27.1,72.8,27z M72.8,31.2
				c-0.1-0.1-0.1-0.3-0.1-0.4v-2.8h0.5v2.8c0,0.1,0,0.2,0,0.2s0.1,0.1,0.2,0.2l-0.3,0.3C73,31.4,72.9,31.3,72.8,31.2z"/>
			<path class="st1" d="M78.6,29.4c0.1,0.2,0.3,0.4,0.3,0.7l0.3,1.2h-0.5l-0.3-1.2c-0.1-0.2-0.1-0.4-0.3-0.5
				c-0.1-0.1-0.3-0.2-0.5-0.2l-0.7,0.7v1.1h-0.5v-4.6c0-0.1,0-0.2,0-0.2c0-0.1-0.1-0.1-0.2-0.2l0.3-0.3c0.1,0.1,0.2,0.2,0.3,0.3
				c0.1,0.1,0.1,0.3,0.1,0.4v2.9l1.7-1.7h0.6L78,29.1C78.2,29.2,78.4,29.3,78.6,29.4z"/>
			<path class="st1" d="M80.2,31.1c-0.3-0.2-0.4-0.6-0.4-1v-1c0-0.4,0.1-0.8,0.4-1c0.3-0.2,0.6-0.4,1.1-0.4c0.5,0,0.8,0.1,1.1,0.4
				c0.3,0.2,0.4,0.6,0.4,1v1c0,0.4-0.1,0.8-0.4,1c-0.3,0.2-0.6,0.4-1.1,0.4C80.8,31.5,80.5,31.3,80.2,31.1z M82,30.8
				c0.2-0.2,0.3-0.4,0.3-0.7v-1c0-0.3-0.1-0.5-0.3-0.7c-0.2-0.2-0.4-0.2-0.7-0.2c-0.3,0-0.6,0.1-0.7,0.2c-0.2,0.2-0.3,0.4-0.3,0.7v1
				c0,0.3,0.1,0.5,0.3,0.7c0.2,0.2,0.4,0.2,0.7,0.2C81.6,31.1,81.8,31,82,30.8z M80.5,27.3c-0.1-0.1-0.1-0.1-0.1-0.2
				c0-0.1,0-0.2,0.1-0.2c0.1-0.1,0.1-0.1,0.2-0.1c0.1,0,0.2,0,0.2,0.1C81,26.9,81,27,81,27c0,0.1,0,0.2-0.1,0.2
				c-0.1,0.1-0.1,0.1-0.2,0.1C80.6,27.3,80.5,27.3,80.5,27.3z M81.7,27.3c-0.1-0.1-0.1-0.1-0.1-0.2c0-0.1,0-0.2,0.1-0.2
				c0.1-0.1,0.1-0.1,0.2-0.1c0.1,0,0.2,0,0.2,0.1c0.1,0.1,0.1,0.1,0.1,0.2c0,0.1,0,0.2-0.1,0.2c-0.1,0.1-0.1,0.1-0.2,0.1
				C81.8,27.3,81.7,27.3,81.7,27.3z"/>
			<path class="st1" d="M86.2,31v0.4H84c-0.4,0-0.6-0.2-0.6-0.5v-0.2l2.2-2.4h-2.1v-0.4h2.7v0.4l-2.3,2.5c0,0.1,0.1,0.2,0.3,0.2
				H86.2z"/>
			<path class="st1" d="M89.6,28.1c0.2,0.2,0.4,0.4,0.5,0.6c0.1,0.3,0.2,0.5,0.2,0.8v0.2c0,0.3-0.1,0.6-0.2,0.8
				c-0.1,0.3-0.3,0.5-0.5,0.6c-0.2,0.2-0.5,0.2-0.8,0.2c-0.5,0-0.9-0.2-1.2-0.6V33h-0.5v-4.5c0-0.1,0-0.2,0-0.2s-0.1-0.1-0.2-0.2
				l0.3-0.3c0.1,0.1,0.2,0.2,0.3,0.2c0.1,0.1,0.1,0.2,0.1,0.3c0.3-0.4,0.7-0.6,1.2-0.6C89.1,27.8,89.4,27.9,89.6,28.1z M89.8,29.5
				c0-0.4-0.1-0.7-0.3-0.9c-0.2-0.2-0.5-0.4-0.8-0.4c-0.3,0-0.5,0.1-0.7,0.2c-0.2,0.1-0.3,0.3-0.4,0.6v1.2c0.1,0.3,0.2,0.5,0.4,0.6
				c0.2,0.1,0.4,0.2,0.7,0.2c0.3,0,0.6-0.1,0.8-0.4c0.2-0.2,0.3-0.6,0.3-0.9V29.5z"/>
			<path class="st1" d="M91.5,31.1c-0.3-0.2-0.4-0.6-0.4-1v-1c0-0.4,0.1-0.8,0.4-1c0.3-0.2,0.6-0.4,1.1-0.4c0.5,0,0.8,0.1,1.1,0.4
				c0.3,0.2,0.4,0.6,0.4,1v1c0,0.4-0.1,0.8-0.4,1c-0.3,0.2-0.6,0.4-1.1,0.4C92.1,31.5,91.8,31.3,91.5,31.1z M93.3,30.8
				c0.2-0.2,0.3-0.4,0.3-0.7v-1c0-0.3-0.1-0.5-0.3-0.7c-0.2-0.2-0.4-0.2-0.7-0.2c-0.3,0-0.6,0.1-0.7,0.2c-0.2,0.2-0.3,0.4-0.3,0.7v1
				c0,0.3,0.1,0.5,0.3,0.7c0.2,0.2,0.4,0.2,0.7,0.2C92.9,31.1,93.2,31,93.3,30.8z"/>
			<path class="st1" d="M97.6,28.1c0.2,0.2,0.3,0.5,0.3,0.9v2.4h-0.5v-2.3c0-0.3-0.1-0.5-0.2-0.6c-0.1-0.2-0.3-0.2-0.5-0.2
				c-0.3,0-0.5,0.1-0.7,0.3c-0.2,0.2-0.3,0.5-0.4,0.8v2h-0.5v-2.8c0-0.1,0-0.2,0-0.2s-0.1-0.1-0.2-0.2l0.3-0.3
				c0.2,0.1,0.3,0.2,0.3,0.3s0.1,0.3,0.1,0.4v0.1c0.1-0.3,0.3-0.5,0.5-0.6c0.2-0.1,0.5-0.2,0.7-0.2C97.2,27.8,97.5,27.9,97.6,28.1z"
				/>
			<path class="st1" d="M99.5,28.3v2.1c0,0.4,0.2,0.7,0.6,0.7h0.4v0.4h-0.4c-0.4,0-0.6-0.1-0.8-0.3C99.1,31,99,30.7,99,30.4v-3.3
				c0-0.1,0-0.2,0-0.2s-0.1-0.1-0.2-0.2l0.3-0.3c0.1,0.1,0.2,0.2,0.3,0.3c0.1,0.1,0.1,0.3,0.1,0.4v0.8h1v0.4H99.5z"/>
		</g>
	</g>
</g>
</svg>
