<?xml version="1.0" encoding="utf-8"?>
<!-- Generator: Adobe Illustrator 21.1.0, SVG Export Plug-In . SVG Version: 6.00 Build 0)  -->
<svg version="1.1" id="Layer_1" xmlns="http://www.w3.org/2000/svg" xmlns:xlink="http://www.w3.org/1999/xlink" x="0px" y="0px"
	 width="1920px" height="444px" viewBox="0 0 1920 444" style="enable-background:new 0 0 1920 444;" xml:space="preserve">
<style type="text/css">
	.st0{fill:#F2F3F5;}
	.st1{fill:url(#SVGID_1_);}
	.st2{opacity:0.2;}
	.st3{clip-path:url(#SVGID_3_);}
	.st4{fill:url(#SVGID_4_);}
	.st5{clip-path:url(#SVGID_6_);}
	.st6{fill:url(#SVGID_7_);}
	.st7{fill:#FAE690;}
	.st8{fill:#F4AB3C;}
	.st9{fill:#2A106D;}
	.st10{fill:#2752A3;}
	.st11{fill:#FFD11D;}
	.st12{fill:#FD9D04;}
	.st13{fill:#FF5910;}
	.st14{fill:#EA656C;}
	.st15{fill:#444A87;}
	.st16{fill:#FFE200;}
	.st17{fill:#19B1E0;}
	.st18{fill:#4865D3;}
	.st19{fill:#00FFF8;}
	.st20{fill:#F7CA11;}
	.st21{fill:#F2703D;}
	.st22{fill:#56344D;}
	.st23{fill:#45283E;}
	.st24{fill:#684661;}
	.st25{opacity:0.3;fill:#EA656C;}
	.st26{opacity:0.1;fill:#EA656C;}
	.st27{fill:#FFFFFF;}
	.st28{fill:#6533FF;}
	.st29{clip-path:url(#SVGID_13_);}
	.st30{fill:#FFC431;}
	.st31{fill:url(#SVGID_16_);}
	.st32{clip-path:url(#SVGID_18_);}
	.st33{clip-path:url(#SVGID_20_);}
	.st34{fill:url(#SVGID_21_);}
	.st35{clip-path:url(#SVGID_23_);}
	.st36{fill:url(#SVGID_24_);}
	.st37{fill:#FFE200;stroke:#FFFFFF;stroke-width:5;stroke-linecap:round;stroke-linejoin:round;stroke-miterlimit:10;}
	.st38{fill:url(#SVGID_27_);}
	.st39{clip-path:url(#SVGID_29_);}
	.st40{clip-path:url(#SVGID_31_);}
	.st41{fill:url(#SVGID_32_);}
	.st42{clip-path:url(#SVGID_34_);}
	.st43{fill:url(#SVGID_35_);}
	.st44{fill:url(#SVGID_38_);}
	.st45{clip-path:url(#SVGID_40_);}
	.st46{clip-path:url(#SVGID_42_);}
	.st47{fill:url(#SVGID_43_);}
	.st48{clip-path:url(#SVGID_45_);}
	.st49{fill:url(#SVGID_46_);}
	.st50{clip-path:url(#SVGID_50_);}
	.st51{clip-path:url(#SVGID_52_);}
	.st52{fill:url(#SVGID_53_);}
	.st53{fill:url(#SVGID_57_);}
	.st54{clip-path:url(#SVGID_59_);}
	.st55{fill:url(#SVGID_60_);}
	.st56{opacity:0.6;}
	.st57{clip-path:url(#SVGID_64_);}
	.st58{fill:#F7F7F7;}
	.st59{clip-path:url(#SVGID_66_);}
	.st60{fill:url(#SVGID_67_);}
	.st61{fill:none;stroke:#E6E6E6;stroke-width:3;stroke-linecap:round;stroke-miterlimit:10;}
	.st62{fill:none;stroke:#E6E6E6;stroke-width:3;stroke-linecap:round;stroke-miterlimit:10;stroke-dasharray:0,9.0909;}
	.st63{fill:url(#SVGID_68_);}
	.st64{fill:none;stroke:#E6E6E6;stroke-miterlimit:10;}
	.st65{fill:url(#SVGID_69_);}
	.st66{fill:none;}
	.st67{clip-path:url(#SVGID_71_);}
	.st68{fill:url(#SVGID_72_);}
	.st69{fill:url(#SVGID_73_);}
	.st70{opacity:5.000000e-02;}
	.st71{clip-path:url(#SVGID_75_);}
	.st72{fill:#653950;}
	.st73{fill:#8F4F64;}
	.st74{fill:url(#SVGID_76_);}
	.st75{fill:url(#SVGID_77_);}
	.st76{fill:url(#SVGID_78_);}
	.st77{fill:url(#SVGID_79_);}
</style>
<g>
	
		<linearGradient id="SVGID_1_" gradientUnits="userSpaceOnUse" x1="1934.3441" y1="-3274.6602" x2="2536.9397" y2="-3274.6602" gradientTransform="matrix(0.7071 0.7071 -0.7071 0.7071 -3824.3352 754.5583)">
		<stop  offset="0" style="stop-color:#F7CA11"/>
		<stop  offset="1" style="stop-color:#F7CA11"/>
	</linearGradient>
	<path class="st1" d="M270.5-185.3L-87.5-242c-3.4-0.5-6.8,1.2-8.4,4.3l-164.6,323c-1.6,3.1-1,6.8,1.5,9.3L-2.7,350.9
		c2.5,2.5,6.2,3,9.3,1.5l323-164.6c3.1-1.6,4.8-5,4.3-8.4l-56.7-358.1C276.6-182.1,274-184.7,270.5-185.3z"/>
</g>
<g>
	
		<linearGradient id="SVGID_3_" gradientUnits="userSpaceOnUse" x1="2158.8562" y1="-4769.8613" x2="2457.1482" y2="-4769.8613" gradientTransform="matrix(-0.9684 0.2494 -0.2494 -0.9684 1613.0607 -5095.3745)">
		<stop  offset="0" style="stop-color:#F7CA11"/>
		<stop  offset="1" style="stop-color:#F7CA11"/>
	</linearGradient>
	<path style="fill:url(#SVGID_3_);" d="M607.4,234.5L718.5,100c2.2-2.7,2.4-6.5,0.6-9.4L625.5-56.6c-1.9-2.9-5.4-4.3-8.7-3.5
		l-169,43.5c-3.4,0.9-5.8,3.8-6,7.3L431,164.8c-0.2,3.5,1.8,6.7,5,7.9l162.3,64.1C601.5,238.1,605.2,237.2,607.4,234.5z"/>
</g>
<g>
	
		<linearGradient id="SVGID_4_" gradientUnits="userSpaceOnUse" x1="3478.3496" y1="-5160.1802" x2="4080.9451" y2="-5160.1802" gradientTransform="matrix(-0.2668 0.9638 -0.9638 -0.2668 -2102.1753 -4955.8003)">
		<stop  offset="0" style="stop-color:#FFE200"/>
		<stop  offset="1" style="stop-color:#F7CA11"/>
	</linearGradient>
	<path class="st4" d="M2138.9,135.2l-127.1-339.5c-1.2-3.2-4.4-5.3-7.8-5.2l-362.2,16c-3.5,0.2-6.4,2.5-7.4,5.9l-96.7,349.4
		c-0.9,3.3,0.4,6.9,3.3,8.8l302.4,200c2.9,1.9,6.7,1.7,9.4-0.4l283.6-225.8C2139.1,142.1,2140.1,138.4,2138.9,135.2z"/>
</g>
<g>
	
		<linearGradient id="SVGID_6_" gradientUnits="userSpaceOnUse" x1="3019.1567" y1="-4079.2659" x2="4079.8269" y2="-4079.2659" gradientTransform="matrix(0.7463 0.6656 -0.6656 0.7463 -4156.3101 445.5121)">
		<stop  offset="0" style="stop-color:#F2703D"/>
		<stop  offset="1" style="stop-color:#F7CA11"/>
	</linearGradient>
	<path style="fill:url(#SVGID_6_);" d="M1539.3-615l-642.4-64.4c-3.4-0.3-6.7,1.6-8.1,4.7L629-83.7c-1.4,3.2-0.6,6.9,2,9.2
		l481.8,429.7c2.6,2.3,6.4,2.7,9.4,0.9l557.6-325.5c3-1.7,4.5-5.2,3.8-8.6l-137.2-630.9C1545.6-612.1,1542.8-614.7,1539.3-615z"/>
</g>
</svg>
