<?xml version="1.0" encoding="utf-8"?>
<!-- Generator: Adobe Illustrator 19.0.0, SVG Export Plug-In . SVG Version: 6.00 Build 0)  -->
<svg version="1.1" id="Layer_1" xmlns="http://www.w3.org/2000/svg" xmlns:xlink="http://www.w3.org/1999/xlink" x="0px" y="0px"
	 viewBox="0 0 650 650" style="enable-background:new 0 0 650 650;" xml:space="preserve">
<style type="text/css">
	.st0{fill:#F3703D;}
	.st1{fill:#FFFFFF;}
	.st2{fill:#EDF8FC;}
	.st3{fill:#E9F6F8;}
	.st4{fill:#FEE200;}
	.st5{fill:#010101;}
	.st6{fill:none;stroke:#E2EDF9;stroke-width:4.8029;stroke-miterlimit:10;}
	.st7{fill:none;stroke:#E2EDF9;stroke-width:1.601;stroke-miterlimit:10;}
	.st8{fill:#FCD5C8;}
	.st9{fill:none;}
</style>
<path id="XMLID_1755_" class="st0" d="M489,417.4l-76.2,107.8l-0.8,1.2c-0.1,0.1-0.1,0.2-0.2,0.2c-0.1,0.1-0.2,0.3-0.3,0.4v0
	c-0.5,0.7-1.1,1.3-1.6,2c-0.5,0.6-1,1.2-1.5,1.7c-0.8,0.9-1.7,1.8-2.6,2.6c0,0,0,0,0,0c-8.4,7.5-19.4,11.4-30.6,10.7
	c-0.1,0-0.2,0-0.3,0c-1.5-0.1-3.1-0.3-4.6-0.6c-1.1-0.2-2.1-0.4-3.2-0.7c-0.1,0-0.2-0.1-0.4-0.1c-0.4-0.1-0.8-0.2-1.2-0.4l-0.2-0.1
	l-0.3-0.1l0,0l-2-0.6l-5.3-1.6l-2.1-0.7l-4.5-1.4l-23.5-7.4l-0.8-0.2l-4.1-1.3l-84.7-26.5c-17.3-5.2-29.3-21.3-29.3-38.6l-1.4-132.9
	c0-18.7,10.6-34.5,27.9-40l54.2-18.3l72.1-24.3c6.5-2,13.2-2.4,19.6-1.5c10.6,1.6,20.4,7,27,16.2l79.7,106.2
	C498.2,382.8,498.2,402.7,489,417.4z"/>
<path id="XMLID_1747_" class="st1" d="M366.2,543.2c0.1,0,0.2-0.1,0.4-0.2c0,0.1,0,0.2,0,0.2S366.4,543.2,366.2,543.2z"/>
<path id="XMLID_1721_" class="st1" d="M424.4,469.6c-3.8,4.5-17.3,52.3-17.3,52.3l0.2,0.2c0,0,0,0,0,0l0.4,0.4l3.9,4.1
	c-0.1,0.1-0.2,0.3-0.3,0.4v0c-0.5,0.7-1.1,1.3-1.6,2c-0.5,0.6-1,1.2-1.5,1.7c-0.8,0.9-1.7,1.8-2.6,2.6c0.2,0.1,0.5,0.1,0.7,0.1
	c-0.2,0-0.5,0-0.7-0.1c-8.4,7.5-19.4,11.4-30.6,10.7c0.4-0.6,0.7-1.2,1-1.7c0,0,0,0,0,0c4-7,3.2-7.1,3.2-7.1l1.8-2.1l7.5-8.8
	l0.5-0.5l2.7-3.2l1.2-1.4l1.3-1.5l0.4-0.1l0.7-0.1h0l2.4-0.3c0,0,0-0.2,0.1-0.6c0.9-5.3,7.1-41.3,9.1-39.8c0.8,0.7,1.5-0.4,2-1.8
	c0.4-1.2,0.7-2.7,0.9-3.7c0.1-0.7,0.2-1.1,0.2-1.1s-0.6-1.2-1.7-3.3c-0.4-0.8-0.9-1.8-1.5-2.9c-6.5-12.5-21-39.3-24.5-37.1
	c-0.4,0.2-0.8,1.2-1.2,2.7c0,0,0,0,0,0c-0.7,2.3-1.4,6-2.2,10.8c0,0,0,0.1,0,0.1c-2.8,16.5-6.2,44.9-8.7,67.7
	c-0.1,1.1-0.2,2.1-0.3,3.2c-0.2,1.6-0.4,3.2-0.5,4.7c-0.1,0.8-0.2,1.5-0.2,2.3c-1.4,12.5-2.3,22-2.5,24.3c-0.4-0.1-0.8-0.2-1.2-0.4
	l-0.2-0.1l0,0.1l-0.3-0.2l0,0l-2-0.6l-5.3-1.6l-2.1-0.7l-4.5-1.4l-23.5-7.4l-0.8-0.2c-0.5-6.8-1.1-15-1.7-23.7
	c-1.9-24.8-4.2-53.4-5.7-64.5c0,0,0,0,0,0c-0.2-1.8-0.5-3.1-0.7-3.9c-0.3-1.1-1.1-2.7-2.5-4.9c0-0.1-0.1-0.2-0.2-0.3c0,0,0,0,0,0
	c-0.2-0.4-0.5-0.8-0.8-1.3c0,0,0,0,0-0.1c-4.5-6.8-12.7-17.4-21.7-28.5c0,0,0,0-0.1-0.1c-18.5-22.8-40.4-47.9-40.4-47.9
	s-0.1-0.7-0.4-1.8c-1.8-8.5-9.1-44.6-7.4-46.9c2.1-2.6-5-5.2-5-5.2l1.4-2.8l16.3-0.9v6.6l-5,1.7c0,0,11.6,36.2,10.9,39.7
	c-0.9,3.4,28.9,35,32.1,38.5c0.2,0.2,0.3,0.3,0.3,0.3s2.8-2.1,5.4-4.4c2.8-2.6,5.3-5.6,3.2-6.4c-4-1.7-10.4-2.1-10.4-2.1l8.7-16.6
	l7.1,0.7l-1.2-17.5h-3.3l-0.2-18.9c0,0-2.4-5.2-9.2-2.8c-6.9,2.4-31-1.2-31-1.2l24.1-35.9l0-6.2l0.2-43.5c0,0,2.4-7.6-8-4.7
	c-10.4,3.1,5.4-11.1,5.4-11.1h5.4c0,0-5-21.5-2.6-22.9c2.4-1.4,4.7-10.6,4.7-10.6s19.9-38.8,45.9-32.4c26.2,6.4,40,19.9,36.9,41.6
	c-3.1,21.8,1.4,0.2,1.4,0.2s3.5,28.8-0.2,32.9c-3.8,4,2.6,9,2.6,9l-0.1,15.8l-0.4,118.1c0,0,2.1-0.7,4.4-1.4
	c0.6-0.2,1.2-0.3,1.8-0.5c0.9-0.2,1.7-0.5,2.4-0.6c0.4-0.1,0.8-0.2,1.1-0.2c3.1-0.5,13.2-2.4,10.4,12.5c-0.2,1.3-0.5,2.5-0.6,3.4v0
	c-0.8,5.3,0,4.5,0.9,2.8c0.7-1.3,1.4-3.2,1.4-3.2s1.8,2.6,2.5,6.2c0,0,0,0,0,0c1.1,4.9,0.3,11.5-9.8,15.1c0,0,0,0,0,0
	c-0.4,0.1-0.8,0.3-1.3,0.4c-0.2,0-0.3,0.1-0.5,0.1c0,0-0.1,0-0.1,0c-0.7,0.2-1.4,0.4-2,0.6c-1.2,0.4-2.1,0.7-2.9,1c0,0-0.1,0-0.1,0
	c-5.7,2.1-0.8,1.4,3.2,0.8c2-0.3,3.8-0.7,3.8-0.7s13.7,26.2,22.5,46.2c0.4,0.9,0.8,1.8,1.2,2.6c2,4.7,3.7,8.9,4.7,12.2
	c0.7,2.1,1.1,3.8,1.3,5.1C424.8,468.5,424.8,469.3,424.4,469.6z"/>
<path id="XMLID_4168_" class="st2" d="M256.3,290.6c1.7,0.7,8.8-18.2,8.8-18.2s4-20.8-6.9-21.5c-10.9-0.7-15.4,3.5-15.4,3.5l0.2,4.3
	l1.4,5.4h-12.3c0,0-9.5,9.5-7.3,15.6c2.1,6.1,5.9,8.8,5.9,8.8C231.7,286.1,248.7,287.5,256.3,290.6z"/>
<path id="XMLID_4356_" class="st3" d="M69.5,213.7"/>
<path id="XMLID_4326_" class="st4" d="M345.5,123.4c0,0,8.3,13.7,1.9,16.8c-4,1.9,8.5-3.5,8.5-3.5S355.6,124.8,345.5,123.4z"/>
<path id="XMLID_4516_" class="st4" d="M78.2,201.4c0,0,45.4-26.3,71.2-25.8c25.8,0.2,62.9-10.9,62.9-10.9l11.6,14.7
	c0,0,8.3,25.5,8.8,27.4c0.5,1.9-134.6-8-126.3,10.6S78.2,201.4,78.2,201.4z"/>
<path id="XMLID_4517_" class="st4" d="M151.1,233.8l25.3-6.4c0,0,20.8,5.4,20.3,6.4c-0.5,0.9,8.5,5,7.8,8c-0.7,3.3-45.6-11.8-45.4-4
	"/>
<path id="XMLID_4520_" class="st4" d="M329.4,147.5l12.8-0.5l9.5,3.5l12.5,7.8l7.3,8.5l3.5,11.4v10.2l-11.4,3.5l-16.6,0.9
	C347.6,193.2,367.2,142.1,329.4,147.5z"/>
<g id="XMLID_4530_">
	<g id="XMLID_1283_">
		<path id="XMLID_1284_" class="st5" d="M332.2,138.1c-0.9-0.7-1.9-1.7-2.8-2.6c-0.2-0.2-0.7-0.9-0.9-1.2c0-0.2-0.2-0.2-0.2,0
			c0.2,0,0.5-0.2,0.7-0.2c3.1-0.7,1.7-5.2-1.2-4.7c-2.8,0.7-5,3.3-3.8,6.1c0.9,2.6,3.5,5,5.9,6.6C332.2,144,334.6,139.7,332.2,138.1
			L332.2,138.1z"/>
	</g>
</g>
<g id="XMLID_4531_">
	<g id="XMLID_1281_">
		<path id="XMLID_1282_" class="st5" d="M333.6,127.2c0.5-2.4,1.4-5,4-5.2c2.4-0.2,4.3,1.4,5.9,3.1c2.1,2.1,5.7-1.2,3.3-3.3
			c-2.8-2.8-6.6-5-10.6-4.3c-4.3,0.7-6.6,4.5-7.3,8.5C328.4,129.1,332.9,130.3,333.6,127.2L333.6,127.2z"/>
	</g>
</g>
<g id="XMLID_4532_">
	<g id="XMLID_1279_">
		<path id="XMLID_1280_" class="st5" d="M351.1,128.1c-0.2,0-0.2,0-0.5,0.2c-0.5-0.5-0.9-0.7-1.4-1.2c0.5,0.7,0.2,1.4,0.7,2.1
			c0.5,0.9,1.4,1.4,1.9,2.4c2.1,3.1-0.9,5-3.8,5.2c-3.1,0.2-3.1,5,0,4.7c5.7-0.5,11.4-4.5,8.8-10.9c-0.5-1.2-1.2-2.1-1.9-2.8
			c-0.5-0.5-0.7-0.9-1.2-1.4c-0.2-0.5-0.2-1.2-0.7-1.7c-1.4-2.1-4-1.4-5.7,0C345.5,126.7,348.8,130.3,351.1,128.1L351.1,128.1z"/>
	</g>
</g>
<g id="XMLID_4274_">
	<g id="XMLID_1277_">
		<path id="XMLID_1278_" class="st6" d="M197.6,516"/>
	</g>
</g>
<g id="XMLID_1274_">
	<g id="XMLID_1275_">
		<path id="XMLID_1276_" class="st7" d="M184.4,373.6"/>
	</g>
</g>
<path id="XMLID_4273_" class="st4" d="M386.1,364.4c0,0,16.1,27.9,5,32.4c-7.1,2.8,8-2.4,8-2.4l3.3-8.3l-3.3-10.9l0.7-8.5l-5.2-4.5
	h-7.8L386.1,364.4z"/>
<path id="XMLID_1293_" class="st4" d="M378.1,425.9l-9.1,81.6l-0.4,3.9l-0.5,4.2l-0.2,2.3l-2.7,24.2l0,0.1l-0.3-0.2l0,0l-2-0.6
	l-5.3-1.6c2.4-1.1,9.4-41.4,14.3-73.1C375.3,444.6,378,425.9,378.1,425.9z"/>
<path id="XMLID_4346_" class="st4" d="M345.5,337c0,0,3.8,1.2,3.8,2.4c-0.2,1.2-2.1,6.9-2.1,6.9l11.4-9.5l2.6-9.9L345.5,337z"/>
<path id="XMLID_4353_" class="st4" d="M301,378.8c0,0,28.6,4.5,29.6,6.4c0.9,1.7,6.4-3.8,6.4-3.8l-35.9-7.3c0,0,0.9,4.3-1.2,5
	c-2.1,0.7-2.1,0.7-2.1,0.7"/>
<path id="XMLID_1273_" class="st4" d="M238.3,287.1c0,0,10.2-13,7.6-20.8c-3.3-10.4,6.1,4,6.1,4l0.5,7.1l-1.9,5.9l-6.1,4h-6.1
	C238.3,287.3,238.3,287.1,238.3,287.1z"/>
<g id="XMLID_4782_">
	<g id="XMLID_1271_">
		<path id="XMLID_1272_" class="st5" d="M305,339.1c17.3,1.9,43.5,5,55.3-11.4c8.8-12.1,13.2-38.3,2.1-49.9
			c-2.1-2.1-5.4,1.2-3.3,3.3c12.3,13,2.6,43.8-11.8,50.6c-13,6.1-28.4,4-42.1,2.6C301.9,334.1,301.9,338.8,305,339.1L305,339.1z"/>
	</g>
</g>
<g id="XMLID_4775_">
	<g id="XMLID_1217_">
		<path id="XMLID_1225_" class="st5" d="M300.8,318c-0.5,6.4-0.2,12.5,0.2,18.9c0.2,3.1,5,3.1,4.7,0c-0.5-6.4-0.7-12.5-0.2-18.9
			C305.7,315,301,315,300.8,318L300.8,318z"/>
	</g>
</g>
<g id="XMLID_4768_">
	<g id="XMLID_1215_">
		<path id="XMLID_1216_" class="st5" d="M285.1,228.6c-0.2,16.6-0.2,33.1-0.2,49.7c0,3.1,4.7,3.1,4.7,0c0.2-16.6,0.2-33.1,0.2-49.7
			C289.9,225.6,285.1,225.6,285.1,228.6L285.1,228.6z"/>
	</g>
</g>
<g id="XMLID_4761_">
	<g id="XMLID_1207_">
		<path id="XMLID_1208_" class="st5" d="M300.3,356.3c28.1,5.4,53.4-1.7,65.7-29.1c5.4-12.1,8.8-40.7-4-49.4c-2.6-1.7-5,2.4-2.4,4.3
			c11.4,7.6,5.4,36.9,0.7,46.4c-11.6,23.4-34.5,28.1-58.6,23.6C298.6,351.1,297.4,355.6,300.3,356.3L300.3,356.3z"/>
	</g>
</g>
<g id="XMLID_4754_">
	<g id="XMLID_1195_">
		<path id="XMLID_1205_" class="st5" d="M376.4,278.3c0,28.6-0.2,57.5-0.2,86.1c0,3.1,4.7,3.1,4.7,0c0-28.6,0.2-57.5,0.2-86.1
			C381.4,275.2,376.4,275.2,376.4,278.3L376.4,278.3z"/>
	</g>
</g>
<g id="XMLID_4747_">
	<g id="XMLID_1192_">
		<path id="XMLID_1194_" class="st5" d="M305.7,339.6c0.5,5,0.5,10.2-0.2,15.1c-0.5,3.1,4.5,3.1,4.7,0c0.7-5,0.7-10.2,0.2-15.1
			C310.5,336.5,305.5,336.5,305.7,339.6L305.7,339.6z"/>
	</g>
</g>
<g id="XMLID_4740_">
	<g id="XMLID_1186_">
		<path id="XMLID_1187_" class="st5" d="M291.3,201.9c-0.9-4-1.4-7.8-1.2-11.8c0.2-3.1-4.7-3.1-4.7,0c-0.2,4.5,0.2,8.8,1.4,13.2
			C287.5,206.2,292,205,291.3,201.9L291.3,201.9z"/>
	</g>
</g>
<g id="XMLID_4733_">
	<g id="XMLID_1174_">
		<path id="XMLID_1182_" class="st5" d="M291.3,190.8c7.8-3.5,20.6,1.7,28.6,2.8c8.3,1.2,16.6,1.7,24.8,1.9
			c12.8,0.2,23.4,1.7,33.6-6.4c2.4-1.9-0.9-5.2-3.3-3.3c-12.5,9.9-39.7,5.2-54.9,3.1c-10.4-1.7-21.3-6.9-31.2-2.1
			C286.1,188,288.5,192.2,291.3,190.8L291.3,190.8z"/>
	</g>
</g>
<g id="XMLID_4726_">
	<g id="XMLID_1011_">
		<path id="XMLID_1150_" class="st5" d="M374.8,189.9c5.7,8.8,4,21.3-0.2,30.3c-1.4,2.8,2.8,5.2,4.3,2.4c5-10.4,6.9-24.8,0.2-35.2
			C377.4,184.9,373.1,187.3,374.8,189.9L374.8,189.9z"/>
	</g>
</g>
<g id="XMLID_4719_">
	<g id="XMLID_999_">
		<path id="XMLID_1000_" class="st5" d="M374.5,220.1c-29.3,11.6-55.6-15.6-84.9-8c-3.1,0.7-1.7,5.4,1.2,4.7
			c29.1-7.6,55.3,19.6,84.9,8C378.6,223.7,377.4,219.2,374.5,220.1L374.5,220.1z"/>
	</g>
</g>
<g id="XMLID_4712_">
	<g id="XMLID_997_">
		<path id="XMLID_998_" class="st5" d="M297.7,173.5c6.1-13.7,23.9-23.6,38.1-23.9c9.5-0.2,17,3.8,24.6,9
			c11.1,7.6,12.3,19.2,12.5,31.9c0,3.1,4.7,3.1,4.7,0c-0.2-11.4-0.7-23.9-9.5-31.9c-6.9-6.4-17.5-13-27-14
			c-18-1.7-40.2,9.2-47.8,26.3C292.5,173.8,296.5,176.1,297.7,173.5L297.7,173.5z"/>
	</g>
</g>
<g id="XMLID_4705_">
	<g id="XMLID_994_">
		<path id="XMLID_995_" class="st5" d="M375.5,425.6c-2.4,26.7-4.7,53.4-7.1,80.2c-0.2,3.1,4.5,3.1,4.7,0
			c2.4-26.7,4.7-53.4,7.1-80.2C380.7,422.6,375.7,422.6,375.5,425.6L375.5,425.6z"/>
	</g>
</g>
<g id="XMLID_4698_">
	<g id="XMLID_992_">
		<path id="XMLID_1295_" class="st5" d="M327.4,530.3l-0.8-0.2l-4.1-1.3c-1.9-17.5-3.6-35.2-5.7-52.8c-0.5-3.1,4.5-3.1,4.7,0
			c1.2,10.1,2.3,20.2,3.3,30.4C325.7,514.4,326.6,522.4,327.4,530.3z"/>
	</g>
</g>
<g id="XMLID_4691_">
	<g id="XMLID_990_">
		<path id="XMLID_991_" class="st5" d="M301.2,189.6c-0.2,2.1-0.5,4.3-0.7,6.4c-0.2,3.1,4.7,3.1,4.7,0c0-1.7,0.2-3.3,0.5-5
			c0.2-1.2-0.2-2.6-1.7-2.8C302.9,187.5,301.5,188.2,301.2,189.6L301.2,189.6z"/>
	</g>
</g>
<g id="XMLID_4684_">
	<g id="XMLID_987_">
		<path id="XMLID_988_" class="st5" d="M314.9,193.2c0,1.4,0,3.1,0,4.5c0,3.1,5,3.1,4.7,0c0-1.4,0-3.1,0-4.5
			C319.9,190.1,315.2,190.1,314.9,193.2L314.9,193.2z"/>
	</g>
</g>
<g id="XMLID_4677_">
	<g id="XMLID_984_">
		<path id="XMLID_986_" class="st5" d="M365.1,195.3c0.2,7.6,3.3,15.8,0,22.9c-1.2,2.8,2.8,5.2,4.3,2.4c3.8-8.3,0.9-16.6,0.7-25.3
			C369.8,192.2,365.1,192.2,365.1,195.3L365.1,195.3z"/>
	</g>
</g>
<g id="XMLID_4670_">
	<g id="XMLID_981_">
		<path id="XMLID_983_" class="st5" d="M353.5,194.8c0.7,5.9,1.4,12.1-0.5,17.7c-0.9,2.8,3.8,4.3,4.7,1.2c1.9-6.4,1.4-12.5,0.7-19.2
			C358,191.7,353,191.7,353.5,194.8L353.5,194.8z"/>
	</g>
</g>
<g id="XMLID_4663_">
	<g id="XMLID_979_">
		<path id="XMLID_980_" class="st5" d="M350.2,273.6c0.9-2.1,2.4-4,4.7-5c2.1-0.9,5.7-1.4,7.6,0.5c2.1,2.4,5.4-0.9,3.3-3.3
			c-5.7-6.4-16.8-1.2-19.6,5.2C344.7,273.8,349,276.4,350.2,273.6L350.2,273.6z"/>
	</g>
</g>
<g id="XMLID_4656_">
	<g id="XMLID_976_">
		<path id="XMLID_978_" class="st5" d="M285.1,277.1c-8,12.1-16.1,23.9-24.1,35.7c-1.7,2.6,2.4,5,4.3,2.4
			c8.3-11.8,16.3-23.6,24.1-35.7C291.1,276.9,286.8,274.5,285.1,277.1L285.1,277.1z"/>
	</g>
</g>
<g id="XMLID_4649_">
	<g id="XMLID_973_">
		<path id="XMLID_974_" class="st5" d="M262.9,316.4c10.4-0.2,20.6,0.7,31,1.2c3.1,0.2,3.1-4.7,0-4.7c-10.4-0.5-20.6-1.4-31-1.2
			C259.8,311.6,259.8,316.6,262.9,316.4L262.9,316.4z"/>
	</g>
</g>
<g id="XMLID_4642_">
	<g id="XMLID_971_">
		<path id="XMLID_972_" class="st5" d="M379.5,427.5c9.5,11.1,17.7,22.9,25.3,35.2c1.7,2.6,5.7,0.2,4.3-2.4
			c-7.6-12.8-16.3-24.8-26-36.4C380.7,421.9,377.4,425.2,379.5,427.5L379.5,427.5z"/>
	</g>
</g>
<g id="XMLID_4635_">
	<g id="XMLID_969_">
		<path id="XMLID_970_" class="st5" d="M391.3,402c9,14.2,14.7,30.7,22,45.9c1.4,2.8,5.4,0.2,4.3-2.4c-7.3-15.1-13.2-31.7-22-45.9
			C393.9,397,389.9,399.4,391.3,402L391.3,402z"/>
	</g>
</g>
<g id="XMLID_4628_">
	<g id="XMLID_966_">
		<path id="XMLID_967_" class="st5" d="M261.7,353.5c10.6,9.2,19.2,21.3,28.9,31.7c2.1,2.4,5.4-1.2,3.3-3.3
			c-9.5-10.4-18.2-22.5-28.9-31.7C262.7,348.1,259.4,351.6,261.7,353.5L261.7,353.5z"/>
	</g>
</g>
<g id="XMLID_4621_">
	<g id="XMLID_964_">
		<path id="XMLID_965_" class="st5" d="M249,356.3c23.4,23.6,42.1,53.2,63.1,79c1.9,2.4,5.4-0.9,3.3-3.3c-21-26-39.7-55.3-63.1-79
			C250.1,350.9,246.8,354.2,249,356.3L249,356.3z"/>
	</g>
</g>
<g id="XMLID_4614_">
	<g id="XMLID_962_">
		<path id="XMLID_963_" class="st5" d="M405.1,474.1c-3.1,3.5-4.3,8.5-5,13c-1.9,9.7-3.5,19.2-5,28.9c-0.5,3.1,4.3,4.3,4.7,1.2
			c1.2-7.6,2.4-15.4,3.8-22.9c0.9-5.2,1.4-12.5,5-17C410.5,475.1,406.9,471.8,405.1,474.1L405.1,474.1z"/>
	</g>
</g>
<g id="XMLID_4607_">
	<g id="XMLID_959_">
		<path id="XMLID_960_" class="st5" d="M420.7,468.4c-5.4,17.5-11.1,35-17.3,52.3c-0.9,2.8,3.5,4.3,4.7,1.2
			c6.1-17.3,11.8-34.8,17.3-52.3C426.1,466.8,421.6,465.6,420.7,468.4L420.7,468.4z"/>
	</g>
</g>
<g id="XMLID_4600_">
	<g id="XMLID_957_">
		<path id="XMLID_958_" class="st5" d="M251.6,309.5c2.1,0,2.1-3.3,0-3.3C249.4,306.4,249.4,309.5,251.6,309.5L251.6,309.5z"/>
	</g>
</g>
<g id="XMLID_4593_">
	<g id="XMLID_955_">
		<path id="XMLID_956_" class="st5" d="M250.1,341.2c-1.9-11.8-3.3-23.4-4.7-35.2c-0.5-3.1-5.2-3.1-4.7,0c1.4,12.3,3.1,24.4,5,36.4
			C245.9,345.5,250.6,344.3,250.1,341.2L250.1,341.2z"/>
	</g>
</g>
<g id="XMLID_4586_">
	<g id="XMLID_948_">
		<path id="XMLID_950_" class="st5" d="M264.8,344.8c-2.1-11.1-8-21-9.9-32.2c-0.5-3.1-5-1.7-4.7,1.2c1.7,11.4,7.8,21,9.9,32.2
			C260.6,349,265.3,347.8,264.8,344.8L264.8,344.8z"/>
	</g>
</g>
<g id="XMLID_4579_">
	<g id="XMLID_946_">
		<path id="XMLID_947_" class="st5" d="M237.1,297c-0.5,1.9-1.7,4.3-1.4,6.4c0,1.2,0.7,1.9,1.7,2.4c2.1,0.7,5.4,0.2,7.8,0.2
			c3.1,0,5.9,0,9,0c1.7,0,3.3,0.2,4.3-1.2c1.2-1.7,0.5-5.2,0.5-7.1c0-3.1-4.7-3.1-4.7,0c0,1.7,0.5,3.8,0,5.4
			c0.5-0.5,1.2-1.2,1.7-1.7c-2.4,0.7-6.1,0-8.5,0s-6.4,0.7-8.5,0c0.5,0.7,1.2,1.7,1.7,2.4c0-1.4,0.9-3.5,1.4-5
			C242.6,295.3,237.9,294.1,237.1,297L237.1,297z"/>
	</g>
</g>
<g id="XMLID_4572_">
	<g id="XMLID_944_">
		<path id="XMLID_945_" class="st5" d="M239.7,299.4c5.2-0.2,10.6-0.2,15.8-0.2c3.1,0,3.1-4.7,0-4.7c-5.2,0-10.6,0-15.8,0.2
			C236.7,294.6,236.7,299.6,239.7,299.4L239.7,299.4z"/>
	</g>
</g>
<g id="XMLID_4565_">
	<g id="XMLID_940_">
		<path id="XMLID_1301_" class="st5" d="M412.8,525.2l-0.8,1.2c-0.1,0.1-0.1,0.2-0.2,0.2c-0.1,0.1-0.2,0.3-0.3,0.4v0
			c-0.5,0.7-1.1,1.3-1.6,2c0,0,0,0-0.1,0c-1.1-0.7-2.2-1.3-3.3-1.9c-4.4-2.5-8.6-5.1-13-7.6c-0.2-0.1-0.3-0.2-0.5-0.3
			c-0.5-0.3-0.9-0.5-1.3-0.8c-1.4-0.7-1.4-2.3-0.7-3.3v0c0.6-1,1.8-1.6,3-0.9c0.5,0.3,0.9,0.6,1.3,0.8c0.9,0.5,1.7,1.1,2.6,1.6
			c0.6,0.4,1.2,0.8,1.9,1.1c1.3,0.8,2.6,1.6,4,2.3c1.2,0.7,2.5,1.4,3.7,2.1c0,0,0,0,0,0c0.2,0.1,0.3,0.2,0.5,0.3
			c1.4,0.8,2.8,1.6,4.3,2.3C412.4,524.9,412.6,525,412.8,525.2z"/>
	</g>
</g>
<g id="XMLID_4558_">
	<g id="XMLID_933_">
		<path id="XMLID_934_" class="st5" d="M390.2,515.7c-0.9,1.4-1.9,3.1-3.1,4.5c-1.7,2.6,2.4,5,4.3,2.4c0.9-1.4,1.9-3.1,3.1-4.5
			C395.8,515.5,391.8,513.1,390.2,515.7L390.2,515.7z"/>
	</g>
</g>
<g id="XMLID_4551_">
	<g id="XMLID_931_">
		<path id="XMLID_1288_" class="st5" d="M408.3,530.7c-0.8,0.9-1.7,1.8-2.6,2.6c0,0-0.1,0-0.1,0c-0.2-0.1-0.4-0.1-0.5-0.2
			c0,0,0,0,0,0c-5.8-2.3-11.2-5.2-16.4-8.8c-0.1-0.1-0.2-0.1-0.3-0.2c-0.4-0.3-0.7-0.7-0.9-1.1c-0.9-2,1.1-4.6,3.3-3.2
			c0.4,0.2,0.7,0.5,1.1,0.8c0.2,0.2,0.5,0.3,0.7,0.5c4.2,2.8,8.6,5.3,13.3,7.1c0.3,0.1,0.7,0.3,1,0.4
			C407.7,528.9,408.2,529.8,408.3,530.7z"/>
	</g>
</g>
<g id="XMLID_4544_">
	<g id="XMLID_928_">
		<path id="XMLID_1287_" class="st5" d="M411.4,527L411.4,527c-0.5,0.7-1.1,1.4-1.6,2c-0.5,0.6-1,1.2-1.5,1.7
			c-0.8,0.9-1.7,1.8-2.6,2.6c0.2,0.1,0.5,0.1,0.7,0.1c-0.2,0-0.5,0-0.7-0.1c-0.1,0-0.2,0-0.3-0.1c-0.1-0.1-0.2-0.1-0.3-0.2
			c0,0,0,0,0,0c-1-0.8-1.3-2.2-0.6-3.1c0.5-0.6,0.9-1.2,1.3-1.8c0.2-0.4,0.5-0.7,0.8-1.1c0.2-0.2,0.3-0.4,0.5-0.7
			c0.7-1.2,2.1-1.7,3.3-0.9C410.9,525.8,411.3,526.4,411.4,527z"/>
	</g>
</g>
<g id="XMLID_4509_">
	<g id="XMLID_925_">
		<path id="XMLID_927_" class="st5" d="M310.2,348.8c9,0,18.9,1.4,27.4-1.4c2.8-0.9,1.7-5.7-1.2-4.7c-8,2.8-17.7,1.4-26,1.4
			C307.1,343.8,307.1,348.8,310.2,348.8L310.2,348.8z"/>
	</g>
</g>
<ellipse id="XMLID_4508_" class="st5" cx="330.3" cy="251.8" rx="4.5" ry="15.1"/>
<ellipse id="XMLID_4507_" class="st5" cx="310.2" cy="256.3" rx="3.5" ry="11.6"/>
<g id="XMLID_4500_">
	<g id="XMLID_897_">
		<path id="XMLID_916_" class="st5" d="M381.9,268.8c0-9.7,0-19.6,0-29.3c0-4-6.1-4-6.1,0c0,9.7,0,19.6,0,29.3
			C375.7,272.9,381.9,272.9,381.9,268.8L381.9,268.8z"/>
	</g>
</g>
<g id="XMLID_4493_">
	<g id="XMLID_895_">
		<path id="XMLID_896_" class="st5" d="M381.4,230.5v-0.2c0-3.1-4.7-3.1-4.7,0c0,0.2,0,0.5,0,0.7c0,3.1,4.7,3.1,4.7,0
			C381.4,230.8,381.4,230.5,381.4,230.5c0-3.1-4.7-3.1-4.7,0v0.2c0,3.1,4.7,3.1,4.7,0c0-0.2,0-0.5,0-0.7c0-3.1-4.7-3.1-4.7,0v0.2
			C376.7,233.6,381.4,233.6,381.4,230.5L381.4,230.5z"/>
	</g>
</g>
<g id="XMLID_4486_">
	<g id="XMLID_893_">
		<path id="XMLID_894_" class="st5" d="M297.2,353.7c-1.2,3.5-5.7,11.1-5,14.9c0.7,3.3,5,4.3,7.6,5.4c11.8,5.2,24.1,6.9,36.9,8.3
			c3.1,0.2,3.1-4.5,0-4.7c-9.2-0.9-18.4-2.1-27.2-5c-1.9-0.5-3.5-1.2-5.4-1.9c-0.7-0.2-6.6-1.9-6.9-2.4c-0.7-1.4,4-11.4,4.7-13.2
			C302.9,352.1,298.2,350.9,297.2,353.7L297.2,353.7z"/>
	</g>
</g>
<g id="XMLID_4479_">
	<g id="XMLID_891_">
		<path id="XMLID_892_" class="st5" d="M366.3,271.9v0.2c-0.5,1.2,0.5,2.6,1.7,2.8c1.4,0.5,2.4-0.5,2.8-1.7v-0.2
			c0.5-1.2-0.5-2.6-1.7-2.8C367.9,269.8,366.7,270.7,366.3,271.9L366.3,271.9z"/>
	</g>
</g>
<g id="XMLID_4472_">
	<g id="XMLID_889_">
		<path id="XMLID_890_" class="st5" d="M290.4,177.8c-0.2,0.2-0.2,0.7-0.2,0.9c-0.2,1.2,0.2,2.6,1.7,2.8c1.2,0.2,2.8-0.5,2.8-1.7
			c0-0.5,0.2-0.7,0.2-0.9c0.5-1.2-0.5-2.6-1.7-2.8C292,175.7,290.8,176.6,290.4,177.8L290.4,177.8z"/>
	</g>
</g>
<g id="XMLID_4465_">
	<g id="XMLID_887_">
		<path id="XMLID_888_" class="st5" d="M306.7,401c14.7-6.1,28.6-5.7,43.8-2.1c11.1,2.6,21,4.7,32.4,2.6c3.1-0.7,1.7-5.2-1.2-4.7
			c-15.6,3.1-29.6-3.8-44.9-5.4c-10.9-1.2-21.3,0.7-31.5,5C302.6,397.5,303.8,402.2,306.7,401L306.7,401z"/>
	</g>
</g>
<g id="XMLID_4458_">
	<g id="XMLID_885_">
		<path id="XMLID_886_" class="st5" d="M297.2,377.6c-4,9,0.7,17.3,7.8,22.9c2.4,1.9,5.9-1.4,3.3-3.3c-5.2-4-10.2-10.4-7.1-17.3
			C302.6,377.2,298.6,374.8,297.2,377.6L297.2,377.6z"/>
	</g>
</g>
<g id="XMLID_4451_">
	<g id="XMLID_883_">
		<path id="XMLID_884_" class="st5" d="M387.6,364.6c3.3-1.2,7.6-1.9,9.2,2.1c1.2,2.8,0.2,1.9,0,4.5c-0.2,2.1-0.2,3.1,0.5,5.2
			c1.9,5.2,5.2,9,0.9,14.9c-2.6,3.5-8.5,4.5-12.5,5.4c-3.1,0.7-1.7,5.4,1.2,4.7c13.2-3.1,21.8-10.4,16.3-24.4
			c-0.9-2.4-2.1-1.9-1.4-5.4c0.2-1.2,0.9-2.4,1.2-3.8c0.2-1.9-0.2-3.3-1.4-4.7c-3.3-4.7-10.2-5-15.1-3.1
			C383.3,361.1,384.7,365.6,387.6,364.6L387.6,364.6z"/>
	</g>
</g>
<g id="XMLID_4444_">
	<g id="XMLID_881_">
		<path id="XMLID_882_" class="st5" d="M282.1,212.8c-5,1.2-8,7.8-9,12.1c1.7,0.5,3.1,0.9,4.7,1.2c-0.5,0.5-0.2,0.5,0.7,0.2
			c0.5,0,1.2,0,1.7,0c1.2,0,2.1,0,3.3,0c3.1,0,3.1-4.7,0-4.7c-3.1,0-9.5-0.7-10.2,3.5c-0.5,3.1,3.8,4.3,4.7,1.2
			c0.5-1.7,1.2-3.3,2.1-5c0.7-1.4,2.1-3.3,3.8-3.8C286.6,216.8,285.1,212.1,282.1,212.8L282.1,212.8z"/>
	</g>
</g>
<g id="XMLID_4437_">
	<g id="XMLID_877_">
		<path id="XMLID_880_" class="st5" d="M292,219.4c-0.2,3.1,0.9,5.7,2.1,8.3c0.7,1.4,2.6,1.4,3.8,0.5c1.2-0.9,1.7-2.4,2.8-3.3
			c1.2-1.2,2.8-1.9,4.3-2.6c2.8-1.4,0.2-5.4-2.4-4.3c-1.7,0.9-3.3,1.7-4.7,2.8c-1.4,1.2-2.1,2.6-3.3,3.8c1.2,0.2,2.6,0.2,3.8,0.5
			c-0.9-1.9-1.7-3.8-1.7-5.9C297.2,216.3,292.2,216.3,292,219.4L292,219.4z"/>
	</g>
</g>
<g id="XMLID_4430_">
	<g id="XMLID_863_">
		<path id="XMLID_870_" class="st5" d="M303.8,220.8c0,1.9,1.4,3.8,3.3,3.3c0.9-0.2,1.4-0.7,2.1-0.9c0.5-0.2,1.2-0.2,1.7-0.5
			c1.2-0.2,2.4-0.9,2.4-2.4c0-1.2-1.2-2.6-2.4-2.4c-0.9,0-1.9,0.2-2.8,0.5c-0.5,0.2-0.9,0.2-1.2,0.5c-0.2,0-0.5,0.2-0.5,0.5
			c-0.7,0.5-0.7,0.5,0.2,0c0.5,0,0.7,0.2,1.2,0.2c0,0-0.2,0-0.2-0.2c0.2,0.2,0.5,0.5,0.9,0.9c0,0.7,0,0.7,0,0.2
			C308.6,217.8,303.8,217.8,303.8,220.8L303.8,220.8z"/>
	</g>
</g>
<g id="XMLID_4423_">
	<g id="XMLID_747_">
		<path id="XMLID_856_" class="st5" d="M321.1,467.7c-0.5-3.8-0.7-7.6-0.7-11.1c0-3.1-4.7-3.1-4.7,0c0,4.3,0.5,8.3,0.9,12.5
			C316.8,472,321.6,470.8,321.1,467.7L321.1,467.7z"/>
	</g>
</g>
<g id="XMLID_4416_">
	<g id="XMLID_741_">
		<path id="XMLID_744_" class="st5" d="M312.3,435.8c1.2,1.9,2.4,3.5,2.1,5.9c-0.2,3.1,4.5,3.1,4.7,0c0.2-3.1-1.2-5.7-2.8-8.3
			C314.9,430.8,310.7,433.2,312.3,435.8L312.3,435.8z"/>
	</g>
</g>
<g id="XMLID_4409_">
	<g id="XMLID_737_">
		<path id="XMLID_738_" class="st5" d="M317.1,451.7c3.1,0,3.1-4.7,0-4.7C314,446.7,314,451.7,317.1,451.7L317.1,451.7z"/>
	</g>
</g>
<g id="XMLID_4402_">
	<g id="XMLID_734_">
		<path id="XMLID_735_" class="st5" d="M408.6,471.5c3.1,0,3.1-4.7,0-4.7S405.5,471.5,408.6,471.5L408.6,471.5z"/>
	</g>
</g>
<g id="XMLID_4395_">
	<g id="XMLID_732_">
		<path id="XMLID_733_" class="st5" d="M415.7,453.5c0.7,1.2,1.4,2.4,2.1,3.8c0.5,1.2,1.4,2.4,1.4,3.5c0,3.1,4.7,3.1,4.7,0
			c0-1.9-0.9-3.3-1.7-5s-1.7-3.3-2.6-4.7C418.3,448.3,414,450.7,415.7,453.5L415.7,453.5z"/>
	</g>
</g>
<g id="XMLID_4388_">
	<g id="XMLID_718_">
		<path id="XMLID_731_" class="st5" d="M249,350c2.4,0,2.4-3.5,0-3.5S246.6,350,249,350L249,350z"/>
	</g>
</g>
<g id="XMLID_4381_">
	<g id="XMLID_705_">
		<path id="XMLID_993_" class="st5" d="M361.3,429.9c-3.3,1.4-8.5,1.7-11.3,3.5c-8.1,4.7-6.6,9.5-5.4,17.5
			c1.2,9.2,2.6,18.2,3.8,27.4c2.8,19.9,5.2,39.5,7.3,59.4c0.1,0.6,0,1-0.2,1.4l-4.5-1.4c-2.8-26.9-6.4-53.9-10.2-80.8
			c-0.7-5.9-4-15.4-1.2-21.3c2.9-5.8,9.8-6.5,15.8-8.3c-8.7-6.6-16.9-13.7-24.5-21.3c-2.1-2.1,1.2-5.7,3.1-3.8
			c8.5,8.5,17.5,16.3,27.4,23.4C362.7,426.6,363.2,428.9,361.3,429.9z"/>
	</g>
</g>
<g id="XMLID_4374_">
	<g id="XMLID_696_">
		<path id="XMLID_698_" class="st5" d="M349.7,380.5c6.1,0.2,12.3,0.2,18.4-0.7c3.5-0.5,6.6-1.4,9-4c1.9-2.4-1.4-5.7-3.3-3.3
			c-2.6,3.1-7.3,3.1-11.1,3.3c-4.3,0.2-8.5,0.2-13,0.2C346.6,375.5,346.6,380.2,349.7,380.5L349.7,380.5z"/>
	</g>
</g>
<g id="XMLID_4968_">
	<g id="XMLID_694_">
		<path id="XMLID_695_" class="st5" d="M242.1,247.6c-5.9-28.6-7.8-60.3-25.1-84.9c-1.7-2.6-5.9,0-4.3,2.4
			c17,24.4,18.7,55.6,24.6,84C238.1,251.8,242.6,250.6,242.1,247.6L242.1,247.6z"/>
	</g>
</g>
<g id="XMLID_4961_">
	<g id="XMLID_680_">
		<path id="XMLID_692_" class="st5" d="M211.8,159.6c-27,3.5-53.2,10.2-79.5,17.3c-19.4,5.2-40,9.7-55.8,22.7
			c-2.4,1.9,0.9,5.4,3.3,3.3c16.8-13.7,39.7-17.5,60.1-23.2c24.1-6.6,48.2-12.1,73.1-15.6C216.1,163.8,214.7,159.3,211.8,159.6
			L211.8,159.6z"/>
	</g>
</g>
<g id="XMLID_4954_">
	<g id="XMLID_676_">
		<path id="XMLID_679_" class="st5" d="M234.5,211.6c-28.4,4.3-56.3,11.1-83.5,19.6c-21.8,6.9-42.8,15.4-59.6,31
			c-2.4,2.1,1.2,5.4,3.3,3.3c18.4-17,42.1-25.3,65.7-32.4c24.6-7.6,49.9-13.2,75.4-17C238.8,215.9,237.4,211.1,234.5,211.6
			L234.5,211.6z"/>
	</g>
</g>
<g id="XMLID_4947_">
	<g id="XMLID_672_">
		<path id="XMLID_674_" class="st5" d="M67.3,214.9c8,17,14.9,34.5,20.6,52.5c0.9,2.8,5.7,1.7,4.7-1.2c-5.7-18.4-12.8-36.2-21-53.7
			C70.2,209.7,66.2,212.1,67.3,214.9L67.3,214.9z"/>
	</g>
</g>
<g id="XMLID_4940_">
	<g id="XMLID_670_">
		<path id="XMLID_671_" class="st5" d="M91.9,270.3c17.7-0.2,35.5-0.5,53,3.8c15.6,3.5,30.5,9,46.4,11.6c2.6,0.5,3.5-3.3,0.9-3.8
			c-17-2.8-33.3-9-50.4-12.5c-16.6-3.5-33.1-3.3-49.9-3.1C89.3,266.5,89.3,270.5,91.9,270.3L91.9,270.3z"/>
	</g>
</g>
<g id="XMLID_4933_">
	<g id="XMLID_668_">
		<path id="XMLID_669_" class="st5" d="M174,229.4c8,0.2,15.6,2.4,22.7,6.1c2.4,1.2,4.3-2.4,2.1-3.5c-7.8-4-16.1-6.4-24.6-6.6
			C171.4,225.3,171.4,229.4,174,229.4L174,229.4z"/>
	</g>
</g>
<g id="XMLID_4926_">
	<g id="XMLID_645_">
		<path id="XMLID_667_" class="st5" d="M196,285.6c-0.7-9.2-1.4-18.7,2.4-27.4c2.6-6.1,7.1-11.4,9.5-17.7c0.9-2.4-2.8-3.5-3.8-0.9
			c-3.1,7.6-8.8,13.7-11.1,21.8c-2.4,7.8-1.7,16.3-0.9,24.4C192.2,288,196.2,288.2,196,285.6L196,285.6z"/>
	</g>
</g>
<g id="XMLID_4872_">
	<g id="XMLID_577_">
		<path id="XMLID_578_" class="st5" d="M72.3,209.2c3.1,0,3.1-4.7,0-4.7C69.2,204.5,69.2,209.2,72.3,209.2L72.3,209.2z"/>
	</g>
</g>
<g id="XMLID_4842_">
	<g id="XMLID_575_">
		<path id="XMLID_576_" class="st5" d="M202.6,237.6c2.1,0,2.1-3.3,0-3.3C200.5,234.6,200.5,237.6,202.6,237.6L202.6,237.6z"/>
	</g>
</g>
<g id="XMLID_4170_">
	<g id="XMLID_573_">
		<path id="XMLID_574_" class="st5" d="M369.3,516c3.1,0,3.1-4.7,0-4.7C366.3,511.2,366.3,516,369.3,516L369.3,516z"/>
	</g>
</g>
<g id="XMLID_509_">
	<g id="XMLID_510_">
		<path id="XMLID_1296_" class="st5" d="M364.7,543.2c0.7,0,1.2,0,1.5-0.1C365.7,543.4,365.2,543.4,364.7,543.2z"/>
		<path id="XMLID_1297_" class="st5" d="M370.5,520.7c-0.9,6.9-2.1,13.9-3.1,20.8c-0.1,0.5-0.3,0.9-0.5,1.2
			c-0.1,0.1-0.3,0.2-0.4,0.3c0-0.1,0-0.2,0-0.4c-0.4-0.1-0.8-0.2-1.2-0.4l-0.2-0.1l0,0.1l-0.3-0.2l0,0l-2-0.6
			c-0.1-0.2-0.1-0.4-0.1-0.6c0-0.2,0-0.3,0-0.5c0.9-6.9,2.1-14,3.1-20.8c0.2-1.2,1.1-1.6,2-1.6c0.5,0,0.9,0.1,1.3,0.4
			C370,518.7,370.6,519.6,370.5,520.7z"/>
	</g>
</g>
<g id="XMLID_4534_">
	<g id="XMLID_505_">
		<path id="XMLID_508_" class="st5" d="M234.1,266.2c6.4-3.1,19.4,2.4,18.2,10.9c-1.2,8.3-14.7,7.6-20.8,8.3c-2.8,0.2-2.8,4.7,0,4.3
			c8.8-0.9,27-1.2,25.1-14.7c-1.4-10.9-15.6-16.6-24.8-12.3C229.3,263.6,231.5,267.4,234.1,266.2L234.1,266.2z"/>
	</g>
</g>
<g id="XMLID_4538_">
	<g id="XMLID_503_">
		<path id="XMLID_504_" class="st5" d="M252,248.3c-2.6-0.2-5.7,1.4-7.8,2.8c-1.9,1.2-3.5,2.8-3.1,5.2c0.9,5.9,8.5,5,12.8,5.2
			c2.8,0,2.8-4.3,0-4.3c-1.9,0-6.9,0.9-8-0.9c-0.7-0.9,0.9-1.4,1.9-1.9c1.4-0.7,3.1-1.9,4.5-1.7C254.6,252.8,254.6,248.5,252,248.3
			L252,248.3z"/>
	</g>
</g>
<g id="XMLID_4540_">
	<g id="XMLID_499_">
		<path id="XMLID_502_" class="st5" d="M256.8,252.8c9.7,4,7.3,18.7,3.1,25.5c-2.6,4-4.5,7.3-4.5,12.3c0,2.8,4.3,2.8,4.3,0
			c0-6.1,4.5-9.7,6.6-14.9c1.4-3.8,1.7-7.6,1.4-11.6c-0.7-7.1-3.1-12.5-9.7-15.4C255.4,247.6,254.2,251.8,256.8,252.8L256.8,252.8z"
			/>
	</g>
</g>
<g id="XMLID_4269_">
	<g id="XMLID_493_">
		<path id="XMLID_497_" class="st5" d="M228.2,283c-0.5-4.5,0.2-8.8,1.4-13c0.9-2.6-3.3-3.8-4.3-1.2c-1.4,4.5-2.1,9.5-1.7,14.2
			C223.9,285.6,228.4,285.6,228.2,283L228.2,283z"/>
	</g>
</g>
<g id="XMLID_4270_">
	<g id="XMLID_491_">
		<path id="XMLID_492_" class="st5" d="M380.9,524c-3.5,0.5-8,2.6-8.5,6.4c-0.2,1.2,1.2,2.1,2.1,2.1c1.2,0,2.1-0.9,2.1-2.1
			c0-0.2,1.4-0.9,1.7-0.9c0.7-0.5,1.7-0.9,2.4-0.9c1.2-0.2,2.1-0.9,2.1-2.1C383.1,525.2,382.1,523.8,380.9,524L380.9,524z"/>
	</g>
</g>
<g id="XMLID_4271_">
	<g id="XMLID_483_">
		<path id="XMLID_1292_" class="st5" d="M381.2,535.6c-1.4,2.3-3.3,4.5-5.1,6.7c0,0,0,0,0,0c-0.5,0.6-0.9,1.1-1.3,1.7
			c-1.5-0.1-3.1-0.3-4.6-0.6c2.4-3.4,5.2-6.6,7.5-10.2c0.9-1.4,2.6-1.2,3.5-0.2C381.6,533.7,381.8,534.6,381.2,535.6z"/>
	</g>
</g>
<path id="XMLID_465_" class="st0" d="M180.4,348.3l5,15.4c0.7,2.1,0,4.3-1.9,5.7l-13.2,9.5c-1.7,1.2-4.3,1.2-5.9,0l-13.2-9.5
	c-1.9-1.2-2.6-3.5-1.9-5.7l5-15.4c0.7-2.1,2.6-3.5,4.7-3.5h16.3C177.8,344.8,179.7,346.2,180.4,348.3z"/>
<path id="XMLID_422_" class="st0" d="M491.1,263.4l5.4,21.5c0.7,3.1-0.5,5.9-3.1,7.6l-19.2,11.8c-2.4,1.4-5.9,1.2-8-0.5L449,289.7
	c-2.6-1.9-3.3-5.2-2.1-8l8.3-20.6c1.2-2.8,4-4.7,6.9-4.5l22.5,1.7C487.8,258.4,490.4,260.6,491.1,263.4z"/>
<path id="XMLID_416_" class="st8" d="M435.8,178.7l2.8,11.4c0.5,1.7-0.2,3.1-1.7,4l-9.9,6.1c-1.2,0.7-3.1,0.7-4.3-0.2l-9-7.6
	c-1.4-0.9-1.7-2.6-1.2-4.3l4.3-10.9c0.7-1.4,2.1-2.4,3.5-2.4l11.8,0.7C434.1,176.1,435.3,177.1,435.8,178.7z"/>
<path id="XMLID_410_" class="st8" d="M168.6,310.2l7.6-5.4c0.9-0.7,2.4-0.7,3.5,0l7.6,5.7c0.9,0.7,1.4,2.1,1.2,3.3l-2.8,9
	c-0.5,1.2-1.4,2.1-2.8,2.1h-9.5c-1.2,0-2.4-0.7-2.8-2.1l-2.8-9C166.9,312.1,167.4,310.9,168.6,310.2z"/>
<path id="XMLID_403_" class="st8" d="M509.3,234.6l13.2-4.5c1.7-0.7,3.8,0,5,1.7l8.3,11.4c0.9,1.4,1.2,3.5,0.2,5.2l-8,11.6
	c-1.2,1.4-2.8,2.4-5,1.9l-13.5-4c-1.7-0.5-3.1-2.1-3.1-4.3l-0.2-14C506,236.4,507.2,235,509.3,234.6z"/>
<path id="XMLID_96_" class="st8" d="M456.4,506.8l8.8-3.1c1.2-0.5,2.4,0,3.3,0.9l5.4,7.6c0.7,0.9,0.7,2.4,0.2,3.5l-5.2,7.8
	c-0.7,0.9-1.9,1.7-3.3,1.2l-9-2.8c-1.2-0.2-2.1-1.4-2.1-2.8v-9.5C454.2,508.2,455,507.2,456.4,506.8z"/>
<path id="XMLID_93_" class="st9" d="M482.6,261c7.1,0,14.4-0.2,21.5-1.7c2.1-0.5,4-0.9,5.9-2.1s3.1-2.8,3.3-5"/>
<path id="XMLID_65_" class="st9" d="M497.5,281.4c0.2-1.4,0.7-2.8,1.4-4c1.4-3.1,3.5-5.9,5.4-8.5s4-5.2,6.6-7.3
	c0.9-0.9,2.1-1.7,3.3-2.1c2.8-1.2,5.9-1.2,9-1.7"/>
<path id="XMLID_64_" class="st9" d="M512.4,265.1c0.7,0.9,1.2,2.1,1.2,3.3c0,0.5,0,1.2-0.2,1.7c-0.2,0.7-0.5,1.2-0.9,1.7
	c-0.9,1.7-1.7,4-0.7,5.7c0.5,0.7,0.9,1.2,1.7,1.2s1.4,0,1.9-0.5c0.2-0.2,0.5-0.7,0.5-1.2c0.7-2.4,0.5-5-0.7-7.3
	c-1.2-2.4-2.6-4.3-4.5-5.9"/>
</svg>
